<svg width="338" height="226" viewBox="0 0 338 226" fill="none" xmlns="http://www.w3.org/2000/svg">
<path d="M227.187 55.6313C195.642 11.6646 160.404 28.5969 154.176 45.4484C147.948 62.3 142.709 76.2459 95.4273 87.8996C64.4092 95.5447 72.8789 127.748 82.3757 148.998V148.998L82.3762 148.999C83.3611 151.203 84.357 153.289 85.321 155.217C91.5659 166.851 108.362 191.21 141.526 196.497C144.933 196.967 148.508 197.269 152.248 197.368C154.493 197.427 156.755 197.447 159.028 197.428C160.824 197.352 162.464 197.318 163.956 197.324C200.95 196.081 239.599 184.316 252.609 158.843C262.106 140.248 258.732 99.5978 227.187 55.6313Z" fill="#FF5C40"/>
<path d="M247.519 120.361C247.519 120.361 248.249 120.693 248.216 121.953C248.183 123.214 246.059 125.636 246.059 125.636L243.406 122.053L247.519 120.361Z" fill="black"/>
<path d="M245.497 121.82C245.497 121.82 250.273 126.332 249.377 130.313C248.481 134.294 232.956 144.943 230.269 145.739C230.269 145.739 231.231 151.578 225.89 153.833C225.89 153.833 228.909 155.194 228.411 156.554C228.411 156.554 221.245 155.791 220.881 156.288C220.516 156.786 222.108 148.459 222.108 148.459C222.108 148.459 226.586 144.047 227.084 142.256C227.582 140.464 232.889 135 233.387 134.095C233.885 133.19 233.918 127.361 233.918 127.361L245.497 121.82Z" fill="white" stroke="black" stroke-width="0.432" stroke-miterlimit="10"/>
<path d="M230.269 145.739C230.269 145.739 229.251 144.313 230.446 143.937C231.64 143.561 236.834 141.851 236.834 141.851C236.834 141.851 232.525 144.954 230.269 145.739ZM267.261 167.265C267.261 171.176 248.258 174.549 220.827 176.105C210.477 176.691 198.928 177.018 186.748 177.018C173.621 177.018 161.228 176.638 150.279 175.963C124.14 174.351 106.234 171.062 106.234 167.265C106.234 161.879 142.282 157.512 186.748 157.512C231.214 157.512 267.261 161.879 267.261 167.265Z" fill="black"/>
<path d="M220.826 158.843V176.105C210.477 176.691 198.927 177.018 186.747 177.018C173.621 177.018 161.228 176.638 150.279 175.963L149.269 162.86L220.826 158.843Z" fill="black" stroke="white" stroke-width="0.432" stroke-miterlimit="10"/>
<path d="M206.87 68.7352C206.87 68.7352 208.125 74.8938 207.153 78.1883C207.153 78.1883 209.047 79.9999 207.814 81.0851C207.085 81.7269 205.368 81.6431 205.368 81.6431C205.368 81.6431 204.23 86.3009 199.499 86.592C197.693 86.7031 196.794 86.4462 196.472 86.3192C196.407 86.2939 196.34 86.3471 196.349 86.4156L197.164 92.6112C197.164 92.6112 211.445 95.9448 211.028 98.7315C210.819 100.126 165.896 97.7239 164.982 97.5373C161.596 96.8457 168.416 93.0088 180.707 89.6087L186.829 77.0292C186.829 77.0292 182.263 74.9733 182.729 71.3198C183.194 67.6663 186.264 66.6663 187.553 67.7211C188.843 68.7758 187.55 63.3253 193.075 63.0142C198.599 62.7031 206.87 68.7352 206.87 68.7352ZM201.805 80.5324C201.805 80.5324 203.71 81.5467 205.368 81.6431L201.805 80.5324Z" fill="white"/>
<path d="M205.368 81.6431C205.368 81.6431 207.085 81.7269 207.814 81.0851C209.047 79.9999 207.153 78.1883 207.153 78.1883C208.125 74.8938 206.87 68.7352 206.87 68.7352C206.87 68.7352 198.599 62.7031 193.075 63.0142C187.55 63.3253 188.843 68.7758 187.553 67.7211C186.264 66.6663 183.194 67.6663 182.729 71.3198C182.263 74.9733 186.829 77.0292 186.829 77.0292L180.707 89.6087C168.416 93.0088 161.596 96.8457 164.982 97.5373C165.896 97.7239 210.819 100.126 211.028 98.7315C211.445 95.9448 197.164 92.6112 197.164 92.6112L196.349 86.4156C196.34 86.3471 196.407 86.2939 196.472 86.3192C196.794 86.4462 197.693 86.7031 199.499 86.592C204.23 86.3009 205.368 81.6431 205.368 81.6431ZM205.368 81.6431C203.71 81.5467 201.805 80.5324 201.805 80.5324" stroke="black" stroke-width="0.432" stroke-miterlimit="10"/>
<path d="M194.742 65.5065C194.742 65.5065 202.965 73.2982 211.81 66.4091C220.655 59.52 201.886 49.1882 193.322 55.3386C193.322 55.3386 190.891 54.9087 188.502 56.0698C185.364 57.5955 184.152 61.6762 184.155 63.2372C184.164 67.1242 184.488 67.9835 184.488 67.9835C184.488 67.9835 187.638 65.8056 189.202 71.1169C190.338 74.9742 191.848 75.1597 192.476 73.9674C193.103 72.7752 192.434 63.8321 194.742 65.5065Z" fill="black"/>
<path d="M186.748 72.4137C186.748 72.4137 185.584 71.2424 185.31 70.325M186.328 69.3699C186.279 69.2883 184.585 70.0337 184.755 72.1565" stroke="black" stroke-width="0.432" stroke-miterlimit="10" stroke-linecap="round"/>
<path d="M196.512 86.07C196.512 86.07 194.997 85.7619 193.104 84.9868C192.725 84.8316 192.378 85.2685 192.614 85.6036C193.735 87.2002 195.702 90.0747 197.164 92.6113L196.512 86.07Z" fill="black"/>
<path d="M199.689 75.4751C199.572 75.0282 199.739 74.5981 200.061 74.5144C200.383 74.4306 200.738 74.725 200.855 75.1719C200.971 75.6188 200.804 76.0489 200.482 76.1326C200.16 76.2164 199.805 75.922 199.689 75.4751ZM205.914 75.6913C205.988 75.2355 206.314 74.9093 206.642 74.9626C206.971 75.016 207.177 75.4287 207.103 75.8844C207.029 76.3402 206.703 76.6664 206.374 76.6131C206.046 76.5597 205.84 76.1471 205.914 75.6913Z" fill="#191919"/>
<path d="M208.111 71.0253C208.111 71.0253 206.922 71.6542 205.66 70.5053M200.539 69.5627C200.539 69.5627 199.978 70.7856 198.278 70.6423" stroke="black" stroke-width="0.432" stroke-miterlimit="10" stroke-linecap="round"/>
<path d="M175.929 90.1063C175.929 90.1063 192.102 103.392 202.203 93.1915C202.203 93.1915 221.643 93.9544 247.519 120.361C247.519 120.361 236.439 127.925 233.387 134.095L223.169 126.664C223.169 126.664 224.197 158.677 222.605 166.34C222.605 166.34 170.024 170.254 147.201 164.947C147.201 164.947 144.746 144.511 144.945 130.711C144.945 130.711 140.798 105.632 148.66 100.357C156.523 95.0824 171.928 90.3863 175.929 90.1063Z" fill="#FEF7EF" stroke="black" stroke-width="0.432" stroke-miterlimit="10"/>
<path d="M145.567 104.662C145.567 104.662 195.573 121.396 220.349 99.368M144.083 122.998C144.083 122.998 204.191 136.982 233.349 107.758M145.519 146.861C145.519 146.861 200.866 155.247 223.435 138.794" stroke="#FF5C40" stroke-width="0.432" stroke-miterlimit="10"/>
<path d="M171.749 119.963L176.925 136.832C176.925 136.832 175.522 139.074 174.968 139.704C173.974 140.837 172.187 142.709 169.978 144.311H169.977C169.976 144.312 169.975 144.313 169.974 144.314C169.971 144.316 169.966 144.319 169.96 144.323C169.806 144.436 169.65 144.546 169.492 144.654C169.487 144.657 169.483 144.66 169.479 144.663C168.478 145.35 167.399 145.969 166.276 146.435C163.585 147.552 160.352 149.42 157.829 150.983C155.405 152.483 152.51 151.821 152.51 151.821C152.51 151.821 147.699 144.843 144.945 130.712" stroke="black" stroke-width="0.432" stroke-miterlimit="10"/>
<path d="M211.16 117.773L212.786 119.134L219.022 118.371L217.198 117.209L211.16 117.773Z" fill="#FEF7EF" stroke="black" stroke-width="0.432" stroke-miterlimit="10"/>
<path d="M211.161 117.773L208.507 126.166L207.578 129.384L210.13 127.838L212.786 119.134L211.161 117.773Z" fill="#FEF7EF" stroke="black" stroke-width="0.432" stroke-miterlimit="10"/>
<path d="M210.13 127.838L212.786 119.134L219.023 118.371L217.264 126.764L210.13 127.838Z" fill="black"/>
<path d="M215.573 132.536C214.677 134.427 208.938 135.09 205.72 136.152C202.502 137.213 184.488 155.525 175.83 158.975C174.99 159.31 174.105 159.518 173.204 159.591C171.956 159.694 170.715 159.545 169.51 159.222C163.268 157.546 158.001 151.192 157.833 150.987C157.832 150.985 157.831 150.984 157.829 150.982C160.352 149.42 163.586 147.552 166.276 146.435C167.399 145.969 168.478 145.349 169.479 144.663C169.483 144.659 169.488 144.656 169.492 144.654C169.651 144.545 169.807 144.435 169.96 144.323C169.965 144.32 169.969 144.317 169.974 144.314C169.975 144.313 169.977 144.312 169.977 144.311H169.978C172.187 142.709 173.974 140.837 174.969 139.704L175.83 142.521C175.83 142.521 178.849 140.995 192.252 136.085C205.654 131.176 204.459 128.787 204.459 127.294C204.459 125.801 207.445 124.275 207.511 123.148C207.578 122.019 207.976 121.82 207.976 121.82C211.061 122.086 209.336 126.299 209.203 127.427C209.071 128.555 213.118 127.261 215.241 125.669C217.364 124.077 217.961 124.607 217.961 124.607C218.758 125.901 216.468 130.645 215.573 132.536Z" fill="white" stroke="black" stroke-width="0.432" stroke-miterlimit="10"/>
<path d="M169.977 144.311C169.977 144.311 169.976 144.311 169.974 144.313C169.975 144.312 169.976 144.311 169.977 144.311H169.977Z" stroke="black" stroke-width="0.432" stroke-miterlimit="10"/>
<path d="M173.343 159.624C173.343 159.624 171.966 159.958 169.51 159.222C166.799 158.41 162.773 156.294 157.833 150.987C157.832 150.985 157.831 150.984 157.829 150.982C160.352 149.42 163.586 147.552 166.276 146.435C167.399 145.969 168.478 145.349 169.479 144.663C167.904 145.81 163.204 149.53 164.286 152.357C165.563 155.7 169.463 158.704 173.204 159.591C173.25 159.603 173.296 159.614 173.343 159.624ZM222.954 126.382L222.705 118.171C222.705 118.171 223.236 115.915 225.226 121.82C227.217 127.726 230.188 131.768 230.188 131.768L222.954 126.382ZM175.658 142.759C175.658 142.759 176.355 145.712 179.573 143.589C182.791 141.466 184.994 138.794 184.994 138.794L175.658 142.759Z" fill="black"/>
<path d="M150.801 148.785C150.801 148.785 167.643 144.032 173.342 135.965M231.504 132.726C231.504 132.726 232.783 125.244 242.868 119.471M172.99 90.614C172.99 90.614 189.591 109.453 203.922 95.7189" stroke="black" stroke-width="0.432" stroke-miterlimit="10"/>
<path d="M207.153 78.1884C207.153 78.1884 205.366 77.324 204.569 75.5327L207.153 78.1884Z" fill="white"/>
<path d="M207.153 78.1884C207.153 78.1884 205.366 77.324 204.569 75.5327" stroke="black" stroke-width="0.432" stroke-miterlimit="10"/>
<path d="M202.463 83.6733C202.463 83.6733 199.112 83.7382 197.785 81.7147" stroke="black" stroke-width="0.432" stroke-miterlimit="10" stroke-linecap="round"/>
<path d="M150.698 58.6544H171.171C172.755 58.6544 174.051 57.3584 174.051 55.7744V51.4762C174.051 49.8922 172.755 48.5962 171.171 48.5962H150.698C149.114 48.5962 147.818 49.8922 147.818 51.4762V55.7744C147.818 57.3584 149.114 58.6544 150.698 58.6544ZM155.491 61.8044H170.838C172.605 61.8044 174.051 63.2506 174.051 65.018V68.6491C174.051 70.4166 172.605 71.8627 170.838 71.8627H170.367L170 73.0262C169.819 73.5983 169.087 73.7606 168.681 73.3185L167.346 71.8627H155.491C153.723 71.8627 152.277 70.4166 152.277 68.6491V65.018C152.277 63.2506 153.723 61.8044 155.491 61.8044Z" fill="#FEF7EF" stroke="black" stroke-width="0.432" stroke-miterlimit="10"/>
<path d="M163.021 51.5391L158.849 55.7115M163.021 55.7115L158.849 51.5391M165.251 64.6514L161.078 68.8239M165.251 68.8239L161.078 64.6514" stroke="black" stroke-width="0.432" stroke-miterlimit="10" stroke-linecap="round"/>
<path d="M133.748 39.8082H118.401C116.633 39.8082 115.187 41.2543 115.187 43.0217V46.6528C115.187 48.4203 116.633 49.8663 118.401 49.8663H118.872L119.239 51.0298C119.42 51.602 120.152 51.7643 120.557 51.3221L121.893 49.8663H133.748C135.516 49.8663 136.962 48.4202 136.962 46.6528V43.0217C136.962 41.2543 135.516 39.8082 133.748 39.8082Z" fill="#FEF7EF" stroke="black" stroke-width="0.432" stroke-miterlimit="10"/>
<path d="M132.874 45.7788C133.392 45.2609 133.392 44.421 132.874 43.9031C132.356 43.3851 131.516 43.3851 130.998 43.9031C130.48 44.4211 130.48 45.2609 130.998 45.7789C131.516 46.2969 132.356 46.2968 132.874 45.7788Z" fill="black"/>
<path d="M127.151 45.7788C127.669 45.2609 127.669 44.421 127.151 43.9031C126.633 43.3851 125.793 43.3851 125.275 43.9031C124.757 44.4211 124.757 45.2609 125.275 45.7789C125.793 46.2969 126.633 46.2968 127.151 45.7788Z" fill="black"/>
<path d="M121.428 45.7788C121.946 45.2609 121.946 44.421 121.428 43.9031C120.91 43.3851 120.07 43.3851 119.552 43.9031C119.034 44.4211 119.034 45.2609 119.552 45.7789C120.07 46.2969 120.91 46.2968 121.428 45.7788Z" fill="black"/>
<path d="M118.067 36.6582H134.082C135.666 36.6582 136.962 35.3622 136.962 33.7782V29.48C136.962 27.896 135.666 26.6 134.082 26.6H118.067C116.483 26.6 115.187 27.896 115.187 29.48V33.7782C115.187 35.3622 116.483 36.6582 118.067 36.6582Z" fill="#FEF7EF" stroke="black" stroke-width="0.432" stroke-miterlimit="10"/>
<path d="M121.19 33.2801L121.174 33.0723C121.126 32.6493 121.27 32.1701 121.67 31.699C122.028 31.2676 122.228 30.9561 122.228 30.5968C122.228 30.1895 121.973 29.918 121.469 29.9102C121.182 29.9102 120.863 30.0058 120.663 30.1576L120.471 29.6546C120.743 29.4628 121.19 29.335 121.614 29.335C122.532 29.335 122.947 29.902 122.947 30.509C122.947 31.0519 122.644 31.4512 122.26 31.8986C121.909 32.3138 121.781 32.673 121.805 33.0804L121.813 33.28H121.19V33.2801ZM121.478 34.9011C121.206 34.9011 121.014 34.6856 121.014 34.406C121.014 34.1104 121.214 33.903 121.493 33.903C121.773 33.903 121.965 34.1104 121.965 34.406C121.965 34.6856 121.781 34.9011 121.486 34.9011H121.478ZM125.555 33.2801L125.539 33.0723C125.491 32.6493 125.635 32.1701 126.035 31.699C126.393 31.2676 126.593 30.9561 126.593 30.5968C126.593 30.1895 126.338 29.918 125.834 29.9102C125.547 29.9102 125.228 30.0058 125.028 30.1576L124.836 29.6546C125.108 29.4628 125.555 29.335 125.979 29.335C126.897 29.335 127.312 29.902 127.312 30.509C127.312 31.0519 127.009 31.4512 126.625 31.8986C126.274 32.3138 126.146 32.673 126.17 33.0804L126.178 33.28H125.555V33.2801ZM125.843 34.9011C125.571 34.9011 125.379 34.6856 125.379 34.406C125.379 34.1104 125.579 33.903 125.858 33.903C126.138 33.903 126.33 34.1104 126.33 34.406C126.33 34.6856 126.146 34.9011 125.851 34.9011H125.843ZM129.92 33.2801L129.904 33.0723C129.856 32.6493 130 32.1701 130.4 31.699C130.758 31.2676 130.958 30.9561 130.958 30.5968C130.958 30.1895 130.703 29.918 130.199 29.9102C129.912 29.9102 129.593 30.0058 129.393 30.1576L129.201 29.6546C129.473 29.4628 129.92 29.335 130.344 29.335C131.262 29.335 131.677 29.902 131.677 30.509C131.677 31.0519 131.374 31.4512 130.99 31.8986C130.639 32.3138 130.511 32.673 130.535 33.0804L130.543 33.28H129.92V33.2801ZM130.208 34.9011C129.936 34.9011 129.744 34.6856 129.744 34.406C129.744 34.1104 129.944 33.903 130.223 33.903C130.503 33.903 130.695 34.1104 130.695 34.406C130.695 34.6856 130.511 34.9011 130.216 34.9011H130.208Z" fill="black"/>
<path d="M70.74 116.863C70.74 116.863 78.477 197.435 147.818 199.4" stroke="black" stroke-width="0.432" stroke-miterlimit="10" stroke-linecap="round"/>
<path d="M242.21 32.0189C232.683 29.888 223.301 35.5824 221.252 44.7377C220.195 49.4637 221.299 54.188 223.925 57.9462L222.38 59.7524C222.38 59.7524 221.039 61.271 225.287 59.6566C227.695 62.3258 230.964 64.3169 234.793 65.1734C244.32 67.3044 253.703 61.61 255.75 52.4546C257.798 43.2993 251.736 34.1499 242.21 32.0189Z" fill="white" stroke="black" stroke-width="0.432" stroke-miterlimit="10"/>
<path d="M243.426 51.1582C243.426 51.1582 238.934 49.1373 235.461 47.1524C231.891 45.1121 229.398 43.1097 233.968 43.3786C242.984 43.9089 233.084 48.152 236.885 51.7762C240.686 55.4003 239.802 50.5386 241.658 47.0912C243.515 43.6438 230.335 44.4394 231.489 49.6547C232.642 54.87 238.83 49.3011 241.305 43.8206C243.78 38.3401 233.703 43.1134 233.703 48.594C233.703 54.0745 237.592 51.8646 243.426 47.6216C249.261 43.3786 242.1 54.4281 239.714 54.8701C237.327 55.3121 228.807 46.9145 230.697 45.1465C232.588 43.3786 242.012 39.8428 242.719 43.7322C243.426 47.6216 232.731 52.8706 234.499 54.8869C236.266 56.9032 241.393 50.4503 244.487 44.793C247.581 39.1357 246.52 54.5165 242.189 54.7817C237.858 55.0469 229.816 53.251 232.112 48.3299C234.408 43.4087 249.261 46.3841 247.493 50.0083C245.725 53.6325 243.426 51.1582 243.426 51.1582Z" fill="white" stroke="black" stroke-width="0.432" stroke-miterlimit="10"/>
</svg>
