<svg width="64" height="64" viewBox="0 0 64 64" fill="none" xmlns="http://www.w3.org/2000/svg">
<rect width="64" height="64" rx="12" fill="#F7F7F7"/>
<path d="M42.865 20.6236L42.8667 20.623C42.9382 20.5968 43.0157 20.5915 43.0902 20.6078C43.1621 20.6236 43.2282 20.6588 43.2813 20.7097C43.3308 20.7636 43.3647 20.8301 43.379 20.902C43.3939 20.9763 43.3873 21.0534 43.3601 21.1241L43.36 21.1241L43.3561 21.1347L35.3561 43.1347L35.3557 43.1359C35.3282 43.2119 35.2784 43.2779 35.2127 43.325C35.151 43.3692 35.0782 43.3949 35.0026 43.3993C34.9299 43.3945 34.8597 43.3698 34.7998 43.3279C34.7358 43.2831 34.6864 43.2206 34.6575 43.148L34.6571 43.1469L30.8171 33.5469L30.7216 33.3082L30.4828 33.2127L20.8828 29.3727L20.8829 29.3726L20.8728 29.3688C20.7969 29.34 20.7316 29.2888 20.6855 29.222C20.6393 29.1552 20.6146 29.0759 20.6146 28.9948C20.6146 28.9136 20.6393 28.8344 20.6854 28.7676C20.731 28.7016 20.7952 28.6509 20.8698 28.6219L42.865 20.6236ZM34.4426 40.4219L35.0277 41.8897L35.5643 40.4035L41.8943 22.8735L42.3285 21.6713L41.1262 22.1054L23.5962 28.4354L22.1254 28.9666L23.574 29.5556L30.534 32.3856L30.9028 32.5355L31.1843 32.254L35.59 27.8483L36.1515 28.4098L31.7857 32.7755L31.5064 33.0549L31.6526 33.4219L34.4426 40.4219Z" fill="#505050" stroke="#505050" stroke-width="1.2"/>
</svg>
