<svg width="25" height="24" viewBox="0 0 25 24" fill="none" xmlns="http://www.w3.org/2000/svg">
<path d="M5.9165 12.75H9.6665V14.25H5.9165V12.75ZM5.9165 9H14.9165V10.5H5.9165V9ZM5.9165 5.25H14.9165V6.75H5.9165V5.25Z" fill="url(#paint0_linear_9397_5633)"/>
<path d="M17.1665 1.5H3.6665C3.26904 1.50119 2.8882 1.6596 2.60716 1.94065C2.32611 2.2217 2.16769 2.60254 2.1665 3V21C2.16769 21.3975 2.32611 21.7783 2.60716 22.0593C2.8882 22.3404 3.26904 22.4988 3.6665 22.5H9.6665V21H3.6665V3H17.1665V11.25H18.6665V3C18.6653 2.60254 18.5069 2.2217 18.2259 1.94065C17.9448 1.6596 17.564 1.50119 17.1665 1.5Z" fill="url(#paint1_linear_9397_5633)"/>
<path d="M20.6665 22.3333H19.9998V21.3333C19.9998 21.0681 19.8945 20.8138 19.7069 20.6262C19.5194 20.4387 19.2651 20.3333 18.9998 20.3333H17.6665C17.4013 20.3333 17.1469 20.4387 16.9594 20.6262C16.7719 20.8138 16.6665 21.0681 16.6665 21.3333V22.3333H15.9998V21.3333C15.9998 20.8913 16.1754 20.4674 16.488 20.1548C16.8006 19.8423 17.2245 19.6667 17.6665 19.6667H18.9998C19.4419 19.6667 19.8658 19.8423 20.1783 20.1548C20.4909 20.4674 20.6665 20.8913 20.6665 21.3333V22.3333ZM18.3332 16.3333C18.531 16.3333 18.7243 16.392 18.8887 16.5019C19.0532 16.6117 19.1814 16.7679 19.257 16.9506C19.3327 17.1334 19.3525 17.3344 19.314 17.5284C19.2754 17.7224 19.1801 17.9006 19.0403 18.0404C18.9004 18.1803 18.7222 18.2755 18.5283 18.3141C18.3343 18.3527 18.1332 18.3329 17.9505 18.2572C17.7678 18.1815 17.6116 18.0534 17.5017 17.8889C17.3918 17.7245 17.3332 17.5311 17.3332 17.3333C17.3332 17.0681 17.4385 16.8138 17.6261 16.6262C17.8136 16.4387 18.068 16.3333 18.3332 16.3333ZM18.3332 15.6667C18.0035 15.6667 17.6813 15.7644 17.4072 15.9476C17.1331 16.1307 16.9195 16.391 16.7934 16.6955C16.6672 17.0001 16.6342 17.3352 16.6985 17.6585C16.7628 17.9818 16.9216 18.2788 17.1547 18.5118C17.3877 18.7449 17.6847 18.9037 18.008 18.968C18.3313 19.0323 18.6664 18.9993 18.971 18.8731C19.2755 18.747 19.5358 18.5334 19.719 18.2593C19.9021 17.9852 19.9998 17.663 19.9998 17.3333C19.9998 16.8913 19.8242 16.4674 19.5117 16.1548C19.1991 15.8423 18.7752 15.6667 18.3332 15.6667ZM15.3332 19.6667H14.6665V18.6667C14.6665 18.4014 14.5611 18.1471 14.3736 17.9596C14.1861 17.772 13.9317 17.6667 13.6665 17.6667H12.3332C12.068 17.6667 11.8136 17.772 11.6261 17.9596C11.4385 18.1471 11.3332 18.4014 11.3332 18.6667V19.6667H10.6665V18.6667C10.6665 18.2246 10.8421 17.8007 11.1547 17.4882C11.4672 17.1756 11.8911 17 12.3332 17H13.6665C14.1085 17 14.5325 17.1756 14.845 17.4882C15.1576 17.8007 15.3332 18.2246 15.3332 18.6667V19.6667ZM12.9998 13.6667C13.1976 13.6667 13.391 13.7253 13.5554 13.8352C13.7199 13.9451 13.848 14.1013 13.9237 14.284C13.9994 14.4667 14.0192 14.6678 13.9806 14.8618C13.942 15.0557 13.8468 15.2339 13.7069 15.3738C13.5671 15.5136 13.3889 15.6089 13.1949 15.6475C13.0009 15.686 12.7999 15.6662 12.6172 15.5905C12.4344 15.5149 12.2782 15.3867 12.1684 15.2222C12.0585 15.0578 11.9998 14.8644 11.9998 14.6667C11.9998 14.4015 12.1052 14.1471 12.2927 13.9596C12.4803 13.772 12.7346 13.6667 12.9998 13.6667ZM12.9998 13C12.6702 13 12.348 13.0977 12.0739 13.2809C11.7998 13.464 11.5862 13.7243 11.46 14.0289C11.3339 14.3334 11.3009 14.6685 11.3652 14.9918C11.4295 15.3151 11.5882 15.6121 11.8213 15.8452C12.0544 16.0783 12.3514 16.237 12.6747 16.3013C12.998 16.3656 13.3331 16.3326 13.6376 16.2065C13.9422 16.0803 14.2025 15.8667 14.3856 15.5926C14.5688 15.3185 14.6665 14.9963 14.6665 14.6667C14.6665 14.2246 14.4909 13.8007 14.1783 13.4882C13.8658 13.1756 13.4419 13 12.9998 13Z" fill="url(#paint2_linear_9397_5633)"/>
<defs>
<linearGradient id="paint0_linear_9397_5633" x1="2.1665" y1="12" x2="20.6665" y2="12" gradientUnits="userSpaceOnUse">
<stop stop-color="#F12711"/>
<stop offset="1" stop-color="#F5AF19"/>
</linearGradient>
<linearGradient id="paint1_linear_9397_5633" x1="2.1665" y1="12" x2="20.6665" y2="12" gradientUnits="userSpaceOnUse">
<stop stop-color="#F12711"/>
<stop offset="1" stop-color="#F5AF19"/>
</linearGradient>
<linearGradient id="paint2_linear_9397_5633" x1="2.1665" y1="12" x2="20.6665" y2="12" gradientUnits="userSpaceOnUse">
<stop stop-color="#F12711"/>
<stop offset="1" stop-color="#F5AF19"/>
</linearGradient>
</defs>
</svg>
