<svg width="24" height="24" viewBox="0 0 24 24" fill="none" xmlns="http://www.w3.org/2000/svg">
<path d="M21.0749 14.1751L9.8249 2.92514C7.9499 0.975138 4.8749 0.975138 2.9249 2.85014C0.974902 4.72514 0.974902 7.87514 2.9249 9.75014L2.9999 9.82514L5.0999 12.0001L6.1499 10.9501L3.9749 8.77514C2.6999 7.50014 2.6999 5.32514 3.9749 4.05014C5.2499 2.77514 7.4249 2.70014 8.6999 3.97514L8.7749 4.05014L19.9499 15.2251C21.2999 16.5001 21.2999 18.6751 20.0249 19.9501C18.7499 21.3001 16.5749 21.3001 15.2999 20.0251L15.2249 19.9501L9.6749 14.4001C8.9249 13.6501 8.9999 12.4501 9.6749 11.7751C10.4249 11.1001 11.5499 11.1001 12.2999 11.7751L15.3749 14.8501L16.4249 13.8001L13.2749 10.6501C11.9249 9.37514 9.8249 9.45014 8.5499 10.8001C7.3499 12.0751 7.3499 14.1001 8.5499 15.4501L14.1749 21.0751C16.0499 23.0251 19.1249 23.0251 21.0749 21.1501C23.0249 19.2751 23.0249 16.1251 21.0749 14.1751Z" fill="#707070"/>
</svg>
