<svg width="25" height="24" viewBox="0 0 25 24" fill="none" xmlns="http://www.w3.org/2000/svg">
<path d="M9.66678 10.5002C9.66678 10.3013 9.7458 10.1105 9.88645 9.96989C10.0271 9.82924 10.2179 9.75022 10.4168 9.75022H14.9168C15.1157 9.75022 15.3065 9.82924 15.4471 9.96989C15.5878 10.1105 15.6668 10.3013 15.6668 10.5002C15.6668 10.6991 15.5878 10.8899 15.4471 11.0305C15.3065 11.1712 15.1157 11.2502 14.9168 11.2502H10.4168C10.2179 11.2502 10.0271 11.1712 9.88645 11.0305C9.7458 10.8899 9.66678 10.6991 9.66678 10.5002ZM10.4168 12.7502C10.2179 12.7502 10.0271 12.8292 9.88645 12.9699C9.7458 13.1105 9.66678 13.3013 9.66678 13.5002C9.66678 13.6991 9.7458 13.8899 9.88645 14.0305C10.0271 14.1712 10.2179 14.2502 10.4168 14.2502H13.4168C13.6157 14.2502 13.8065 14.1712 13.9471 14.0305C14.0878 13.8899 14.1668 13.6991 14.1668 13.5002C14.1668 13.3013 14.0878 13.1105 13.9471 12.9699C13.8065 12.8292 13.6157 12.7502 13.4168 12.7502H10.4168ZM3.66678 12.0002C3.66716 10.0188 4.32142 8.09286 5.52805 6.52121C6.73469 4.94956 8.42625 3.82002 10.3403 3.30784C12.2544 2.79565 14.284 2.92944 16.1143 3.68845C17.9446 4.44746 19.4733 5.78926 20.4632 7.50571C21.4531 9.22216 21.8488 11.2173 21.5891 13.1816C21.3294 15.146 20.4287 16.9697 19.0268 18.3699C17.6248 19.7701 15.7999 20.6685 13.8353 20.9258C11.8706 21.183 9.87598 20.7848 8.16078 19.7927L4.65378 20.9627C4.52421 21.006 4.38529 21.013 4.25201 20.9831C4.11873 20.9532 3.99615 20.8875 3.8975 20.793C3.79885 20.6985 3.72787 20.5789 3.69223 20.447C3.6566 20.3151 3.65765 20.176 3.69528 20.0447L4.76328 16.3082C4.0418 14.9871 3.6647 13.5055 3.66678 12.0002ZM12.6668 4.50022C11.3425 4.50013 10.0419 4.85066 8.89706 5.51618C7.75221 6.18169 6.80398 7.13845 6.14875 8.28922C5.49353 9.43998 5.15466 10.7437 5.16661 12.0679C5.17856 13.3921 5.54089 14.6895 6.21678 15.8282C6.26878 15.9162 6.30226 16.0139 6.31515 16.1152C6.32805 16.2166 6.3201 16.3195 6.29178 16.4177L5.52828 19.0877L8.01528 18.2597C8.1209 18.2245 8.23304 18.2132 8.34357 18.2267C8.4541 18.2402 8.56024 18.2781 8.65428 18.3377C9.63718 18.9598 10.7513 19.3447 11.9086 19.462C13.0658 19.5793 14.2345 19.4258 15.3223 19.0137C16.41 18.6016 17.387 17.9421 18.176 17.0874C18.965 16.2327 19.5443 15.2062 19.8683 14.089C20.1922 12.9718 20.2519 11.7946 20.0426 10.6504C19.8332 9.50616 19.3606 8.42633 18.662 7.49623C17.9635 6.56614 17.0582 5.81127 16.0177 5.29129C14.9772 4.77132 13.83 4.50049 12.6668 4.50022Z" fill="#8F8F8F"/>
</svg>
