<svg width="24" height="25" viewBox="0 0 24 25" fill="none" xmlns="http://www.w3.org/2000/svg">
<g id="Icons/check filled">
<path id="Vector" d="M10.6 14.3L8.45 12.15C8.26667 11.9667 8.03333 11.875 7.75 11.875C7.46667 11.875 7.23333 11.9667 7.05 12.15C6.86667 12.3333 6.775 12.5667 6.775 12.85C6.775 13.1333 6.86667 13.3667 7.05 13.55L9.9 16.4C10.1 16.6 10.3333 16.7 10.6 16.7C10.8667 16.7 11.1 16.6 11.3 16.4L16.95 10.75C17.1333 10.5667 17.225 10.3333 17.225 10.05C17.225 9.76667 17.1333 9.53333 16.95 9.35C16.7667 9.16667 16.5333 9.075 16.25 9.075C15.9667 9.075 15.7333 9.16667 15.55 9.35L10.6 14.3ZM12 22.5C10.6167 22.5 9.31667 22.2373 8.1 21.712C6.88333 21.1867 5.825 20.4743 4.925 19.575C4.025 18.675 3.31267 17.6167 2.788 16.4C2.26333 15.1833 2.00067 13.8833 2 12.5C2 11.1167 2.26267 9.81667 2.788 8.6C3.31333 7.38333 4.02567 6.325 4.925 5.425C5.825 4.525 6.88333 3.81267 8.1 3.288C9.31667 2.76333 10.6167 2.50067 12 2.5C13.3833 2.5 14.6833 2.76267 15.9 3.288C17.1167 3.81333 18.175 4.52567 19.075 5.425C19.975 6.325 20.6877 7.38333 21.213 8.6C21.7383 9.81667 22.0007 11.1167 22 12.5C22 13.8833 21.7373 15.1833 21.212 16.4C20.6867 17.6167 19.9743 18.675 19.075 19.575C18.175 20.475 17.1167 21.1877 15.9 21.713C14.6833 22.2383 13.3833 22.5007 12 22.5Z" fill="#1D976C"/>
</g>
</svg>
