<svg width="37" height="36" viewBox="0 0 37 36" fill="none" xmlns="http://www.w3.org/2000/svg">
<rect x="1.1665" y="0.5" width="35" height="35" rx="17.5" stroke="#DFDFDF"/>
<path d="M20.3832 15.5167L21.1498 16.2833L13.5998 23.8333H12.8332V23.0667L20.3832 15.5167ZM23.3832 10.5C23.1748 10.5 22.9582 10.5833 22.7998 10.7417L21.2748 12.2667L24.3998 15.3917L25.9248 13.8667C26.0021 13.7896 26.0634 13.698 26.1052 13.5972C26.147 13.4964 26.1685 13.3883 26.1685 13.2792C26.1685 13.17 26.147 13.062 26.1052 12.9611C26.0634 12.8603 26.0021 12.7688 25.9248 12.6917L23.9748 10.7417C23.8082 10.575 23.5998 10.5 23.3832 10.5ZM20.3832 13.1583L11.1665 22.375V25.5H14.2915L23.5082 16.2833L20.3832 13.1583Z" fill="#707070"/>
</svg>
