<svg width="32" height="32" viewBox="0 0 32 32" fill="none" xmlns="http://www.w3.org/2000/svg">
<path d="M8.5 6.5H19.5V7.5H8.5V6.5ZM8.5 10.5H19.5V11.5H8.5V10.5ZM8.5 14.5H13.5V15.5H8.5V14.5ZM8.5 24.5H11.5V25.5H8.5V24.5Z" fill="white" stroke="url(#paint0_linear_4429_41156)"/>
<path d="M23.5 4.0005V13.5H22.5V4V3.5H22H6H5.5V4V28V28.5H6H11.5V29.5H6.0005C5.60266 29.4996 5.22124 29.3414 4.93992 29.0601C4.65867 28.7788 4.50046 28.3975 4.5 27.9997V4.00028C4.50046 3.60252 4.65866 3.22118 4.93992 2.93992C5.22118 2.65866 5.60252 2.50046 6.00028 2.5H21.9997C22.3975 2.50046 22.7788 2.65867 23.0601 2.93992C23.3414 3.22124 23.4996 3.60266 23.5 4.0005Z" fill="url(#paint1_linear_4429_41156)" stroke="url(#paint2_linear_4429_41156)"/>
<path d="M26.6667 27.9335L23.8667 25.1335C24.3667 24.3335 24.6667 23.3335 24.6667 22.3335C24.6667 19.5335 22.4667 17.3335 19.6667 17.3335C16.8667 17.3335 14.6667 19.5335 14.6667 22.3335C14.6667 25.1335 16.8667 27.3335 19.6667 27.3335C20.6667 27.3335 21.6667 27.0335 22.4667 26.5335L25.2667 29.3335L26.6667 27.9335ZM16.6667 22.3335C16.6667 20.6335 17.9667 19.3335 19.6667 19.3335C21.3667 19.3335 22.6667 20.6335 22.6667 22.3335C22.6667 24.0335 21.3667 25.3335 19.6667 25.3335C17.9667 25.3335 16.6667 24.0335 16.6667 22.3335Z" fill="url(#paint3_linear_4429_41156)"/>
<defs>
<linearGradient id="paint0_linear_4429_41156" x1="8" y1="16" x2="20" y2="16" gradientUnits="userSpaceOnUse">
<stop stop-color="#F12711"/>
<stop offset="1" stop-color="#F5AF19"/>
</linearGradient>
<linearGradient id="paint1_linear_4429_41156" x1="4" y1="16" x2="24" y2="16" gradientUnits="userSpaceOnUse">
<stop stop-color="#F12711"/>
<stop offset="1" stop-color="#F5AF19"/>
</linearGradient>
<linearGradient id="paint2_linear_4429_41156" x1="4" y1="16" x2="24" y2="16" gradientUnits="userSpaceOnUse">
<stop stop-color="#F12711"/>
<stop offset="1" stop-color="#F5AF19"/>
</linearGradient>
<linearGradient id="paint3_linear_4429_41156" x1="14.6667" y1="23.3335" x2="26.6667" y2="23.3335" gradientUnits="userSpaceOnUse">
<stop stop-color="#F12711"/>
<stop offset="1" stop-color="#F5AF19"/>
</linearGradient>
</defs>
</svg>
