<svg width="24" height="24" viewBox="0 0 24 24" fill="none" xmlns="http://www.w3.org/2000/svg">
<path d="M2.5 21V21.5H3H8.5V22L3.00149 22C3.0013 22 3.0011 22 3.00091 22C2.73575 21.9991 2.48171 21.8933 2.2942 21.7058C2.10672 21.5183 2.00097 21.2643 2 20.9992V3.00082C2.00097 2.73569 2.10672 2.48169 2.2942 2.2942C2.48169 2.10672 2.73569 2.00097 3.00082 2H16.4992C16.7643 2.00097 17.0183 2.10672 17.2058 2.2942C17.3933 2.48171 17.4991 2.73575 17.5 3.00091C17.5 3.0011 17.5 3.0013 17.5 3.00149L17.5 10.75H17V3V2.5H16.5H3H2.5V3V21ZM5.75 13.25H8.5V13.75H5.75V13.25ZM5.75 9.5H13.75V10H5.75V9.5ZM5.75 5.75H13.75V6.25H5.75V5.75Z" fill="#FF5C40" stroke="#FF5C40"/>
<path d="M19.8633 21.003L20.0775 21.2171C20.6752 20.4357 21.001 19.4765 20.9995 18.4871C21.0002 17.9903 20.9184 17.4975 20.758 17.0288L20.487 17.1642M19.8633 21.003C20.4056 20.2797 20.7008 19.3973 20.6995 18.4876L20.6995 18.4867C20.7001 18.0366 20.6281 17.5901 20.487 17.1642M19.8633 21.003L17.5119 18.6515M19.8633 21.003C19.8031 21.0832 19.7399 21.1615 19.6737 21.2377L17.229 18.793L17.5119 18.6515M20.487 17.1642C20.4554 17.0688 20.4203 16.9745 20.3818 16.8814L17.2883 18.4279L17.5119 18.6515M20.487 17.1642L17.5119 18.6515M15.8988 18.4871V18.4872C15.8988 18.567 15.9147 18.6459 15.9457 18.7195L16.2223 18.6033L15.9457 18.7195C15.9763 18.7926 16.0212 18.8588 16.0776 18.9144L19.0143 21.8517C18.5679 22.1852 18.0586 22.4273 17.5158 22.5626C16.8686 22.7238 16.1923 22.7287 15.5429 22.5767C14.8934 22.4247 14.2895 22.1202 13.7811 21.6885C13.2727 21.2568 12.8745 20.7102 12.6192 20.094C12.364 19.4777 12.2592 18.8096 12.3135 18.1448C12.3678 17.4801 12.5795 16.8378 12.9313 16.2711C13.2831 15.7044 13.7648 15.2297 14.3365 14.8861C14.816 14.598 15.3473 14.4091 15.8988 14.3293V18.4871ZM18.7075 14.9135C19.1988 15.2172 19.6212 15.6184 19.9493 16.091L17.099 17.5162V14.3292C17.6684 14.4113 18.2161 14.6098 18.7075 14.9135Z" fill="#FF5C40" stroke="#FF5C40" stroke-width="0.600083"/>
</svg>
