<svg width="32" height="32" viewBox="0 0 32 32" fill="none" xmlns="http://www.w3.org/2000/svg">
<path fill-rule="evenodd" clip-rule="evenodd" d="M26.4961 7.50403V29.004C26.4961 29.834 25.8271 30.504 24.9961 30.504H6.99609C6.16609 30.504 5.49609 29.834 5.49609 29.004V3.00403C5.49609 2.17303 6.16609 1.50403 6.99609 1.50403H20.4961L26.4961 7.50403Z" fill="#E9EDED" stroke="#F8B84E" stroke-linecap="round" stroke-linejoin="round"/>
<path d="M5 24.004V29.004C5 30.112 5.892 31.004 7 31.004H25C26.108 31.004 27 30.112 27 29.004V24.004H5Z" fill="#F8B84E"/>
<path d="M26.4961 7.50403H21.9961C21.1661 7.50403 20.4961 6.83403 20.4961 6.00403V1.50403" fill="#F8B84E"/>
<path d="M26.4961 7.50403H21.9961C21.1661 7.50403 20.4961 6.83403 20.4961 6.00403V1.50403" stroke="#F8B84E" stroke-linecap="round" stroke-linejoin="round"/>
<path d="M8.5 8.9989C8.36739 8.9989 8.24021 9.05162 8.14645 9.14539C8.05268 9.23915 8 9.36629 8 9.4989V11.4989C8 11.6315 8.05268 11.7588 8.14645 11.8525C8.24021 11.9463 8.36739 11.9989 8.5 11.9989H13.5C13.6326 11.9989 13.7598 11.9463 13.8536 11.8525C13.9473 11.7588 14 11.6315 14 11.4989V9.4989C14 9.36629 13.9473 9.23915 13.8536 9.14539C13.7598 9.05162 13.6326 8.9989 13.5 8.9989H8.5ZM9 9.9989H13V10.9989H9V9.9989ZM8.5 12.9989C8.36739 12.9989 8.24021 13.0516 8.14645 13.1454C8.05268 13.2392 8 13.3663 8 13.4989V15.4989C8 15.6315 8.05268 15.7588 8.14645 15.8525C8.24021 15.9463 8.36739 15.9989 8.5 15.9989H13.5C13.6326 15.9989 13.7598 15.9463 13.8536 15.8525C13.9473 15.7588 14 15.6315 14 15.4989V13.4989C14 13.3663 13.9473 13.2392 13.8536 13.1454C13.7598 13.0516 13.6326 12.9989 13.5 12.9989H8.5ZM9 13.9989H13V14.9989H9V13.9989Z" fill="#F8B84E"/>
<path d="M8.5 14.9989C8.36739 14.9989 8.24021 15.0516 8.14645 15.1454C8.05268 15.2392 8 15.3663 8 15.4989V17.4989C8 17.6315 8.05268 17.7588 8.14645 17.8525C8.24021 17.9463 8.36739 17.9989 8.5 17.9989H13.5C13.6326 17.9989 13.7598 17.9463 13.8536 17.8525C13.9473 17.7588 14 17.6315 14 17.4989V15.4989C14 15.3663 13.9473 15.2392 13.8536 15.1454C13.7598 15.0516 13.6326 14.9989 13.5 14.9989H8.5ZM9 15.9989H13V16.9989H9V15.9989Z" fill="#F8B84E"/>
<path d="M8.5 16.999C8.36739 16.999 8.24021 17.0517 8.14645 17.1455C8.05268 17.2393 8 17.3664 8 17.499V19.499C8 19.6316 8.05268 19.7589 8.14645 19.8527C8.24021 19.9464 8.36739 19.999 8.5 19.999H13.5C13.6326 19.999 13.7598 19.9464 13.8536 19.8527C13.9473 19.7589 14 19.6316 14 19.499V17.499C14 17.3664 13.9473 17.2393 13.8536 17.1455C13.7598 17.0517 13.6326 16.999 13.5 16.999H8.5ZM9 17.999H13V18.999H9V17.999Z" fill="#F8B84E"/>
<path d="M8.5 18.9989C8.36739 18.9989 8.24021 19.0516 8.14645 19.1454C8.05268 19.2392 8 19.3663 8 19.4989V21.4989C8 21.6315 8.05268 21.7588 8.14645 21.8525C8.24021 21.9463 8.36739 21.9989 8.5 21.9989H13.5C13.6326 21.9989 13.7598 21.9463 13.8536 21.8525C13.9473 21.7588 14 21.6315 14 21.4989V19.4989C14 19.3663 13.9473 19.2392 13.8536 19.1454C13.7598 19.0516 13.6326 18.9989 13.5 18.9989H8.5ZM9 19.9989H13V20.9989H9V19.9989ZM18.5 8.9989C18.3674 8.9989 18.2402 9.05162 18.1464 9.14539C18.0527 9.23915 18 9.36629 18 9.4989V11.4989C18 11.6315 18.0527 11.7588 18.1464 11.8525C18.2402 11.9463 18.3674 11.9989 18.5 11.9989H23.5C23.6326 11.9989 23.7598 11.9463 23.8536 11.8525C23.9473 11.7588 24 11.6315 24 11.4989V9.4989C24 9.36629 23.9473 9.23915 23.8536 9.14539C23.7598 9.05162 23.6326 8.9989 23.5 8.9989H18.5ZM19 9.9989H23V10.9989H19V9.9989ZM18.5 12.9989C18.3674 12.9989 18.2402 13.0516 18.1464 13.1454C18.0527 13.2392 18 13.3663 18 13.4989V15.4989C18 15.6315 18.0527 15.7588 18.1464 15.8525C18.2402 15.9463 18.3674 15.9989 18.5 15.9989H23.5C23.6326 15.9989 23.7598 15.9463 23.8536 15.8525C23.9473 15.7588 24 15.6315 24 15.4989V13.4989C24 13.3663 23.9473 13.2392 23.8536 13.1454C23.7598 13.0516 23.6326 12.9989 23.5 12.9989H18.5ZM19 13.9989H23V14.9989H19V13.9989Z" fill="#F8B84E"/>
<path d="M18.5 14.9989C18.3674 14.9989 18.2402 15.0516 18.1464 15.1454C18.0527 15.2392 18 15.3663 18 15.4989V17.4989C18 17.6315 18.0527 17.7588 18.1464 17.8525C18.2402 17.9463 18.3674 17.9989 18.5 17.9989H23.5C23.6326 17.9989 23.7598 17.9463 23.8536 17.8525C23.9473 17.7588 24 17.6315 24 17.4989V15.4989C24 15.3663 23.9473 15.2392 23.8536 15.1454C23.7598 15.0516 23.6326 14.9989 23.5 14.9989H18.5ZM19 15.9989H23V16.9989H19V15.9989Z" fill="#F8B84E"/>
<path d="M18.5 16.999C18.3674 16.999 18.2402 17.0517 18.1464 17.1455C18.0527 17.2393 18 17.3664 18 17.499V19.499C18 19.6316 18.0527 19.7589 18.1464 19.8527C18.2402 19.9464 18.3674 19.999 18.5 19.999H23.5C23.6326 19.999 23.7598 19.9464 23.8536 19.8527C23.9473 19.7589 24 19.6316 24 19.499V17.499C24 17.3664 23.9473 17.2393 23.8536 17.1455C23.7598 17.0517 23.6326 16.999 23.5 16.999H18.5ZM19 17.999H23V18.999H19V17.999Z" fill="#F8B84E"/>
<path d="M18.5 18.9989C18.3674 18.9989 18.2402 19.0516 18.1464 19.1454C18.0527 19.2392 18 19.3663 18 19.4989V21.4989C18 21.6315 18.0527 21.7588 18.1464 21.8525C18.2402 21.9463 18.3674 21.9989 18.5 21.9989H23.5C23.6326 21.9989 23.7598 21.9463 23.8536 21.8525C23.9473 21.7588 24 21.6315 24 21.4989V19.4989C24 19.3663 23.9473 19.2392 23.8536 19.1454C23.7598 19.0516 23.6326 18.9989 23.5 18.9989H18.5ZM19 19.9989H23V20.9989H19V19.9989ZM13.5 8.9989C13.3674 8.9989 13.2402 9.05162 13.1464 9.14539C13.0527 9.23915 13 9.36629 13 9.4989V11.4989C13 11.6315 13.0527 11.7588 13.1464 11.8525C13.2402 11.9463 13.3674 11.9989 13.5 11.9989H18.5C18.6326 11.9989 18.7598 11.9463 18.8536 11.8525C18.9473 11.7588 19 11.6315 19 11.4989V9.4989C19 9.36629 18.9473 9.23915 18.8536 9.14539C18.7598 9.05162 18.6326 8.9989 18.5 8.9989H13.5ZM14 9.9989H18V10.9989H14V9.9989ZM13.5 12.9989C13.3674 12.9989 13.2402 13.0516 13.1464 13.1454C13.0527 13.2392 13 13.3663 13 13.4989V15.4989C13 15.6315 13.0527 15.7588 13.1464 15.8525C13.2402 15.9463 13.3674 15.9989 13.5 15.9989H18.5C18.6326 15.9989 18.7598 15.9463 18.8536 15.8525C18.9473 15.7588 19 15.6315 19 15.4989V13.4989C19 13.3663 18.9473 13.2392 18.8536 13.1454C18.7598 13.0516 18.6326 12.9989 18.5 12.9989H13.5ZM14 13.9989H18V14.9989H14V13.9989Z" fill="#F8B84E"/>
<path d="M13.5 14.9989C13.3674 14.9989 13.2402 15.0516 13.1464 15.1454C13.0527 15.2392 13 15.3663 13 15.4989V17.4989C13 17.6315 13.0527 17.7588 13.1464 17.8525C13.2402 17.9463 13.3674 17.9989 13.5 17.9989H18.5C18.6326 17.9989 18.7598 17.9463 18.8536 17.8525C18.9473 17.7588 19 17.6315 19 17.4989V15.4989C19 15.3663 18.9473 15.2392 18.8536 15.1454C18.7598 15.0516 18.6326 14.9989 18.5 14.9989H13.5ZM14 15.9989H18V16.9989H14V15.9989Z" fill="#F8B84E"/>
<path d="M13.5 16.999C13.3674 16.999 13.2402 17.0517 13.1464 17.1455C13.0527 17.2393 13 17.3664 13 17.499V19.499C13 19.6316 13.0527 19.7589 13.1464 19.8527C13.2402 19.9464 13.3674 19.999 13.5 19.999H18.5C18.6326 19.999 18.7598 19.9464 18.8536 19.8527C18.9473 19.7589 19 19.6316 19 19.499V17.499C19 17.3664 18.9473 17.2393 18.8536 17.1455C18.7598 17.0517 18.6326 16.999 18.5 16.999H13.5ZM14 17.999H18V18.999H14V17.999Z" fill="#F8B84E"/>
<path d="M13.5 18.999C13.3674 18.999 13.2402 19.0517 13.1464 19.1455C13.0527 19.2393 13 19.3664 13 19.499V21.499C13 21.6316 13.0527 21.7589 13.1464 21.8527C13.2402 21.9464 13.3674 21.999 13.5 21.999H18.5C18.6326 21.999 18.7598 21.9464 18.8536 21.8527C18.9473 21.7589 19 21.6316 19 21.499V19.499C19 19.3664 18.9473 19.2393 18.8536 19.1455C18.7598 19.0517 18.6326 18.999 18.5 18.999H13.5ZM14 19.999H18V20.999H14V19.999Z" fill="#F8B84E"/>
<path fill-rule="evenodd" clip-rule="evenodd" d="M18.4631 24.994C18.385 24.9999 18.3093 25.024 18.2422 25.0644C18.1751 25.1049 18.1184 25.1605 18.0767 25.2269C18.0351 25.2932 18.0096 25.3685 18.0024 25.4465C17.9952 25.5245 18.0064 25.6031 18.0351 25.676L19.5351 29.676C19.5705 29.7719 19.6345 29.8546 19.7183 29.913C19.8022 29.9714 19.9019 30.0027 20.0041 30.0027C20.1063 30.0027 20.206 29.9714 20.2899 29.913C20.3737 29.8546 20.4377 29.7719 20.4731 29.676L21.9731 25.676C22.0195 25.5516 22.0146 25.4139 21.9595 25.2931C21.9043 25.1724 21.8035 25.0784 21.6791 25.032C21.5547 24.9856 21.417 24.9905 21.2962 25.0457C21.1754 25.1008 21.0815 25.2016 21.0351 25.326L20.0041 28.076L18.9731 25.326C18.9391 25.2306 18.8769 25.1478 18.7947 25.0885C18.7126 25.0292 18.6144 24.9963 18.5131 24.994C18.4964 24.9932 18.4797 24.9932 18.4631 24.994ZM10.4451 25C10.4094 25.0033 10.3742 25.0103 10.3401 25.021C9.04009 25.138 7.99609 26.191 7.99609 27.5C7.99609 28.814 9.04909 29.87 10.3571 29.979C10.4048 29.9933 10.4543 30.0004 10.5041 30H11.5041C11.6367 30 11.7639 29.9474 11.8576 29.8536C11.9514 29.7598 12.0041 29.6326 12.0041 29.5C12.0041 29.3674 11.9514 29.2402 11.8576 29.1465C11.7639 29.0527 11.6367 29 11.5041 29H10.5741C9.68209 29 8.99609 28.33 8.99609 27.5C8.99609 26.67 9.68209 26 10.5741 26H11.4961C11.6287 26 11.7559 25.9474 11.8496 25.8536C11.9434 25.7598 11.9961 25.6326 11.9961 25.5C11.9961 25.3674 11.9434 25.2402 11.8496 25.1465C11.7559 25.0527 11.6287 25 11.4961 25H10.4961C10.4794 24.9992 10.4628 24.9992 10.4461 25H10.4451ZM14.4611 25C14.4399 25.0027 14.4188 25.0067 14.3981 25.012C13.6281 25.072 13.0121 25.716 13.0121 26.5C13.0121 27.29 13.6391 27.94 14.4181 27.99C14.449 27.9963 14.4805 27.9997 14.5121 28H15.5121C15.7971 28 16.0121 28.214 16.0121 28.5C16.0121 28.786 15.7971 29 15.5121 29H13.5121C13.3795 29 13.2523 29.0527 13.1585 29.1465C13.0648 29.2402 13.0121 29.3674 13.0121 29.5C13.0121 29.6326 13.0648 29.7598 13.1585 29.8536C13.2523 29.9474 13.3795 30 13.5121 30H15.5121C15.5468 29.9996 15.5813 29.9956 15.6151 29.988C15.9925 29.9614 16.3459 29.7933 16.6049 29.5175C16.8639 29.2417 17.0093 28.8784 17.0121 28.5C17.0121 27.714 16.3921 27.067 15.6191 27.01C15.5839 27.0029 15.548 26.9995 15.5121 27H14.5471C14.5354 26.9996 14.5238 26.9996 14.5121 27C14.446 27.0017 14.3802 26.9899 14.3188 26.9653C14.2574 26.9408 14.2016 26.904 14.1549 26.8573C14.1081 26.8105 14.0713 26.7547 14.0468 26.6933C14.0223 26.6319 14.0104 26.5661 14.0121 26.5C14.0121 26.214 14.2261 26 14.5121 26H16.5121C16.6447 26 16.7719 25.9474 16.8656 25.8536C16.9594 25.7598 17.0121 25.6326 17.0121 25.5C17.0121 25.3674 16.9594 25.2402 16.8656 25.1465C16.7719 25.0527 16.6447 25 16.5121 25H14.5471C14.5354 24.9996 14.5238 24.9996 14.5121 25C14.4951 24.9992 14.4781 24.9992 14.4611 25Z" fill="#E9EDED"/>
</svg>
