<svg width="56" height="57" viewBox="0 0 56 57" fill="none" xmlns="http://www.w3.org/2000/svg">
<g id="Icons/doc">
<path id="Vector" d="M10.5 7.49935C10.5 6.2107 11.5447 5.16602 12.8333 5.16602H36.75L45.5 13.916V49.4993C45.5 50.788 44.4554 51.8327 43.1667 51.8327H12.8333C11.5447 51.8327 10.5 50.788 10.5 49.4993V7.49935Z" fill="#1D976C"/>
<path id="Vector_2" d="M36.75 5.16602L45.5 13.916H39.0833C37.7946 13.916 36.75 12.8713 36.75 11.5827V5.16602Z" fill="#DFDFDF"/>
<path id="Vector_3" d="M20.595 33.75V27.5293H22.5987C23.1485 27.5293 23.6427 27.6546 24.0813 27.9052C24.5199 28.153 24.8617 28.5049 25.1067 28.9606C25.3545 29.4135 25.4798 29.9219 25.4827 30.4859V30.7722C25.4827 31.3417 25.3616 31.853 25.1195 32.3059C24.8802 32.756 24.5413 33.109 24.1026 33.3654C23.6669 33.6188 23.1798 33.7472 22.6415 33.75H20.595ZM22.0946 28.6871V32.5964H22.6158C23.0459 32.5964 23.3763 32.444 23.607 32.1393C23.8378 31.8317 23.9531 31.3758 23.9531 30.7722V30.5029C23.9531 29.9018 23.8378 29.4489 23.607 29.1442C23.3763 28.8395 23.0402 28.6871 22.5987 28.6871H22.0946ZM31.5196 30.7677C31.5196 31.3744 31.4071 31.9113 31.1822 32.3784C30.957 32.8456 30.6367 33.2058 30.2209 33.4595C29.8079 33.7101 29.3365 33.8354 28.8066 33.8354C28.2768 33.8354 27.8069 33.7143 27.3967 33.4723C26.9866 33.2273 26.6661 32.8785 26.4354 32.4256C26.2075 31.9727 26.0879 31.4528 26.0765 30.866V30.5157C26.0765 29.9063 26.1876 29.3694 26.4098 28.905C26.6348 28.4379 26.9552 28.0776 27.3711 27.824C27.7898 27.5706 28.2655 27.4439 28.798 27.4439C29.3251 27.4439 29.795 27.5692 30.208 27.8198C30.621 28.0704 30.9414 28.4279 31.1694 28.8922C31.4001 29.3535 31.5168 29.8834 31.5196 30.4814V30.7677ZM29.9943 30.5071C29.9943 29.889 29.8905 29.4205 29.6826 29.1015C29.4775 28.7797 29.1825 28.6187 28.798 28.6187C28.0461 28.6187 27.6488 29.1827 27.6061 30.3106L27.6018 30.7677C27.6018 31.3774 27.7029 31.846 27.9051 32.1733C28.1074 32.5009 28.4079 32.6647 28.8066 32.6647C29.1856 32.6647 29.4775 32.5037 29.6826 32.182C29.8877 31.8602 29.9915 31.3973 29.9943 30.7934V30.5071ZM37.3259 31.6437C37.306 32.0765 37.1891 32.4596 36.9756 32.7928C36.7619 33.1232 36.4614 33.3797 36.074 33.5619C35.6895 33.7444 35.2494 33.8354 34.7538 33.8354C33.9365 33.8354 33.2927 33.5691 32.8228 33.0364C32.3528 32.5037 32.1179 31.7519 32.1179 30.7806V30.473C32.1179 29.8636 32.2231 29.3309 32.434 28.8752C32.6475 28.4164 32.9537 28.0634 33.3524 27.8156C33.7512 27.5648 34.2127 27.4395 34.7368 27.4395C35.4916 27.4395 36.0983 27.639 36.5568 28.0377C37.0155 28.4337 37.2762 28.9804 37.3387 29.6783H35.8435C35.8321 29.2996 35.7366 29.0275 35.5572 28.8623C35.3778 28.6971 35.1043 28.6145 34.7368 28.6145C34.3637 28.6145 34.0902 28.7541 33.9164 29.0331C33.7428 29.3122 33.6516 29.7581 33.6432 30.3704V30.8104C33.6432 31.4743 33.7258 31.9484 33.891 32.2333C34.059 32.518 34.3467 32.6605 34.7538 32.6605C35.0985 32.6605 35.3621 32.5793 35.5444 32.4169C35.7266 32.2545 35.8234 31.9969 35.8349 31.6437H37.3259Z" fill="white"/>
</g>
</svg>
