<svg width="24" height="24" viewBox="0 0 24 24" fill="none" xmlns="http://www.w3.org/2000/svg">
<path d="M20.9998 1.5H13.4998C12.6725 1.5 11.9998 2.172 11.9998 3V7.5C11.9998 8.32725 12.6718 9 13.4998 9H15.317L16.6153 11.25L17.915 10.5L16.1825 7.5H13.4998V3H20.9998V7.5H18.7498V9H20.9998C21.827 9 22.4998 8.328 22.4998 7.5V3C22.4998 2.17275 21.827 1.5 20.9998 1.5ZM11.0173 23.25L9.71826 22.5L12.317 18H16.4998C16.8976 18 17.2791 17.842 17.5604 17.5607C17.8417 17.2794 17.9998 16.8978 17.9998 16.5V12.75H19.4998V16.5C19.4998 17.2956 19.1837 18.0587 18.6211 18.6213C18.0585 19.1839 17.2954 19.5 16.4998 19.5H13.1825L11.0173 23.25Z" fill="#FF5C40"/>
<path d="M7.5 13.5C7.91421 13.5 8.25 13.1642 8.25 12.75C8.25 12.3358 7.91421 12 7.5 12C7.08579 12 6.75 12.3358 6.75 12.75C6.75 13.1642 7.08579 13.5 7.5 13.5Z" fill="#FF5C40"/>
<path d="M10.5 13.5C10.9142 13.5 11.25 13.1642 11.25 12.75C11.25 12.3358 10.9142 12 10.5 12C10.0858 12 9.75 12.3358 9.75 12.75C9.75 13.1642 10.0858 13.5 10.5 13.5Z" fill="#FF5C40"/>
<path d="M13.5 13.5C13.9142 13.5 14.25 13.1642 14.25 12.75C14.25 12.3358 13.9142 12 13.5 12C13.0858 12 12.75 12.3358 12.75 12.75C12.75 13.1642 13.0858 13.5 13.5 13.5Z" fill="#FF5C40"/>
<path d="M9 19.5H4.5C3.70435 19.5 2.94129 19.1839 2.37868 18.6213C1.81607 18.0587 1.5 17.2956 1.5 16.5V9C1.5 8.20435 1.81607 7.44129 2.37868 6.87868C2.94129 6.31607 3.70435 6 4.5 6H10.5V7.5H4.5C4.10218 7.5 3.72064 7.65804 3.43934 7.93934C3.15804 8.22064 3 8.60218 3 9V16.5C3 16.8978 3.15804 17.2794 3.43934 17.5607C3.72064 17.842 4.10218 18 4.5 18H9V19.5Z" fill="#FF5C40"/>
</svg>
