<svg width="36" height="36" viewBox="0 0 36 36" fill="none" xmlns="http://www.w3.org/2000/svg">
<rect x="0.5" y="0.5" width="35" height="35" rx="17.5" stroke="#DFDFDF"/>
<path d="M25.4999 9.25H19.2499C18.5605 9.25 17.9999 9.81 17.9999 10.5V14.25C17.9999 14.9394 18.5599 15.5 19.2499 15.5H20.7643L21.8461 17.375L22.9293 16.75L21.4855 14.25H19.2499V10.5H25.4999V14.25H23.6249V15.5H25.4999C26.1893 15.5 26.7499 14.94 26.7499 14.25V10.5C26.7499 9.81062 26.1893 9.25 25.4999 9.25ZM17.1811 27.375L16.0986 26.75L18.2643 23H21.7499C22.0814 23 22.3993 22.8683 22.6338 22.6339C22.8682 22.3995 22.9999 22.0815 22.9999 21.75V18.625H24.2499V21.75C24.2499 22.413 23.9865 23.0489 23.5176 23.5178C23.0488 23.9866 22.4129 24.25 21.7499 24.25H18.9855L17.1811 27.375Z" fill="#707070"/>
<path d="M14.25 19.25C14.5952 19.25 14.875 18.9702 14.875 18.625C14.875 18.2798 14.5952 18 14.25 18C13.9048 18 13.625 18.2798 13.625 18.625C13.625 18.9702 13.9048 19.25 14.25 19.25Z" fill="#707070"/>
<path d="M16.75 19.25C17.0952 19.25 17.375 18.9702 17.375 18.625C17.375 18.2798 17.0952 18 16.75 18C16.4048 18 16.125 18.2798 16.125 18.625C16.125 18.9702 16.4048 19.25 16.75 19.25Z" fill="#707070"/>
<path d="M19.25 19.25C19.5952 19.25 19.875 18.9702 19.875 18.625C19.875 18.2798 19.5952 18 19.25 18C18.9048 18 18.625 18.2798 18.625 18.625C18.625 18.9702 18.9048 19.25 19.25 19.25Z" fill="#707070"/>
<path d="M15.5 24.25H11.75C11.087 24.25 10.4511 23.9866 9.98223 23.5178C9.51339 23.0489 9.25 22.413 9.25 21.75V15.5C9.25 14.837 9.51339 14.2011 9.98223 13.7322C10.4511 13.2634 11.087 13 11.75 13H16.75V14.25H11.75C11.4185 14.25 11.1005 14.3817 10.8661 14.6161C10.6317 14.8505 10.5 15.1685 10.5 15.5V21.75C10.5 22.0815 10.6317 22.3995 10.8661 22.6339C11.1005 22.8683 11.4185 23 11.75 23H15.5V24.25Z" fill="#707070"/>
</svg>
