<svg width="36" height="36" viewBox="0 0 36 36" fill="none" xmlns="http://www.w3.org/2000/svg">
<rect x="0.5" y="0.5" width="35" height="35" rx="17.5" stroke="#FF5C40"/>
<path d="M24.2502 21.125V20.5C24.2502 20.3342 24.316 20.1753 24.4332 20.0581C24.5504 19.9408 24.7094 19.875 24.8752 19.875C25.0409 19.875 25.1999 19.9408 25.3171 20.0581C25.4343 20.1753 25.5002 20.3342 25.5002 20.5V26.75H26.7502V20.5C26.7497 20.0029 26.552 19.5262 26.2004 19.1747C25.8489 18.8232 25.3723 18.6255 24.8752 18.625C24.5523 18.6271 24.2356 18.7134 23.9564 18.8756C23.7034 18.4661 23.3005 18.1716 22.8335 18.0548C22.3665 17.9381 21.8724 18.0083 21.4564 18.2506C21.2883 17.983 21.0551 17.7623 20.7786 17.6092C20.502 17.456 20.1912 17.3755 19.8752 17.375C19.6617 17.3772 19.4503 17.4163 19.2502 17.4906V14.25C19.2502 13.7527 19.0526 13.2758 18.701 12.9242C18.3494 12.5725 17.8724 12.375 17.3752 12.375C16.8779 12.375 16.401 12.5725 16.0493 12.9242C15.6977 13.2758 15.5002 13.7527 15.5002 14.25V21.1906L14.1033 20.2344C13.7216 19.9555 13.2487 19.8317 12.7792 19.8868C12.3097 19.9418 11.8783 20.1722 11.5715 20.5318C11.2647 20.8914 11.1051 21.3537 11.1247 21.826C11.1442 22.2983 11.3415 22.7458 11.677 23.0787L15.702 26.75L16.5439 25.8263L12.5577 22.19C12.4997 22.1324 12.4537 22.0638 12.4224 21.9883C12.391 21.9127 12.375 21.8318 12.3752 21.75C12.3752 21.6339 12.4075 21.5202 12.4685 21.4214C12.5295 21.3227 12.6168 21.2429 12.7207 21.191C12.8245 21.1391 12.9407 21.1171 13.0563 21.1275C13.1719 21.1379 13.2823 21.1804 13.3752 21.25L16.7502 23.5594V14.25C16.7502 14.0842 16.816 13.9253 16.9332 13.8081C17.0504 13.6908 17.2094 13.625 17.3752 13.625C17.5409 13.625 17.6999 13.6908 17.8171 13.8081C17.9343 13.9253 18.0002 14.0842 18.0002 14.25V21.125H19.2502V19.25C19.2502 19.0842 19.316 18.9253 19.4332 18.8081C19.5504 18.6908 19.7094 18.625 19.8752 18.625C20.0409 18.625 20.1999 18.6908 20.3171 18.8081C20.4343 18.9253 20.5002 19.0842 20.5002 19.25V21.125H21.7502V19.875C21.7502 19.7092 21.816 19.5503 21.9332 19.4331C22.0504 19.3158 22.2094 19.25 22.3752 19.25C22.5409 19.25 22.6999 19.3158 22.8171 19.4331C22.9343 19.5503 23.0002 19.7092 23.0002 19.875V21.125H24.2502Z" fill="#FF5C40"/>
<path d="M25.5 15.5H21.75V14.25H25.5V10.5H10.5V14.25H13V15.5H10.5C10.1686 15.4997 9.85083 15.3679 9.61648 15.1335C9.38213 14.8992 9.25033 14.5814 9.25 14.25V10.5C9.25033 10.1686 9.38213 9.85083 9.61648 9.61648C9.85083 9.38213 10.1686 9.25033 10.5 9.25H25.5C25.8314 9.25033 26.1492 9.38213 26.3835 9.61648C26.6179 9.85083 26.7497 10.1686 26.75 10.5V14.25C26.7497 14.5814 26.6179 14.8992 26.3835 15.1335C26.1492 15.3679 25.8314 15.4997 25.5 15.5Z" fill="#FF5C40"/>
</svg>
