<svg width="32" height="32" viewBox="0 0 32 32" fill="none" xmlns="http://www.w3.org/2000/svg">
<path d="M8.42969 25.0029C8.29708 25.0029 8.1699 25.0556 8.07613 25.1494C7.98237 25.2432 7.92969 25.3703 7.92969 25.5029C7.92969 25.6355 7.98237 25.7627 8.07613 25.8564C8.1699 25.9502 8.29708 26.0029 8.42969 26.0029C9.32169 26.0029 10.0077 26.6729 10.0077 27.5029C10.0077 28.3329 9.32169 29.0029 8.42969 29.0029C8.29708 29.0029 8.1699 29.0556 8.07613 29.1494C7.98237 29.2432 7.92969 29.3703 7.92969 29.5029C7.92969 29.6355 7.98237 29.7627 8.07613 29.8564C8.1699 29.9502 8.29708 30.0029 8.42969 30.0029C9.83869 30.0029 11.0077 28.8899 11.0077 27.5029C11.0077 26.1159 9.83769 25.0029 8.42969 25.0029Z" fill="#E9EDED"/>
<path fill-rule="evenodd" clip-rule="evenodd" d="M26.4961 7.50403V29.004C26.4961 29.834 25.8271 30.504 24.9961 30.504H6.99609C6.16609 30.504 5.49609 29.834 5.49609 29.004V3.00403C5.49609 2.17303 6.16609 1.50403 6.99609 1.50403H20.4961L26.4961 7.50403Z" fill="#E9EDED" stroke="#0153F3" stroke-linecap="round" stroke-linejoin="round"/>
<path d="M5 24.004V29.004C5 30.112 5.892 31.004 7 31.004H25C26.108 31.004 27 30.112 27 29.004V24.004H5Z" fill="#0153F3"/>
<path d="M26.4961 7.50403H21.9961C21.1661 7.50403 20.4961 6.83403 20.4961 6.00403V1.50403" fill="#0153F3"/>
<path d="M26.4961 7.50403H21.9961C21.1661 7.50403 20.4961 6.83403 20.4961 6.00403V1.50403" stroke="#0153F3" stroke-linecap="round" stroke-linejoin="round"/>
<path fill-rule="evenodd" clip-rule="evenodd" d="M7.45707 4.00004C7.39141 4.00332 7.32704 4.01951 7.26763 4.04767C7.20823 4.07583 7.15495 4.11541 7.11084 4.16416C7.02176 4.26262 6.97544 4.39243 6.98207 4.52504C6.9887 4.65765 7.04774 4.78219 7.1462 4.87127C7.24465 4.96035 7.37446 5.00667 7.50707 5.00004H12.5001C12.6327 5.00004 12.7599 4.94736 12.8536 4.85359C12.9474 4.75983 13.0001 4.63265 13.0001 4.50004C13.0001 4.36743 12.9474 4.24026 12.8536 4.14649C12.7599 4.05272 12.6327 4.00004 12.5001 4.00004H7.50807C7.49108 3.99917 7.47406 3.99917 7.45707 4.00004ZM7.45707 6.00004C7.32446 6.00667 7.19992 6.06571 7.11084 6.16416C7.02176 6.26262 6.97544 6.39243 6.98207 6.52504C6.9887 6.65765 7.04774 6.78219 7.1462 6.87127C7.24465 6.96035 7.37446 7.00667 7.50707 7.00004H16.5071C16.6397 7.00004 16.7669 6.94736 16.8606 6.85359C16.9544 6.75983 17.0071 6.63265 17.0071 6.50004C17.0071 6.36743 16.9544 6.24026 16.8606 6.14649C16.7669 6.05272 16.6397 6.00004 16.5071 6.00004H7.50707C7.49041 5.99921 7.47373 5.99921 7.45707 6.00004ZM7.45707 9.00004C7.32446 9.00667 7.19992 9.06571 7.11084 9.16417C7.02176 9.26262 6.97544 9.39243 6.98207 9.52504C6.9887 9.65765 7.04774 9.78219 7.1462 9.87127C7.24465 9.96035 7.37446 10.0067 7.50707 10H11.5071C11.6397 10 11.7669 9.94736 11.8606 9.85359C11.9544 9.75983 12.0071 9.63265 12.0071 9.50004C12.0071 9.36743 11.9544 9.24025 11.8606 9.14649C11.7669 9.05272 11.6397 9.00004 11.5071 9.00004H7.50707C7.49041 8.99921 7.47373 8.99921 7.45707 9.00004ZM13.4571 9.00004C13.3245 9.00667 13.1999 9.06571 13.1108 9.16417C13.0218 9.26262 12.9754 9.39243 12.9821 9.52504C12.9887 9.65765 13.0477 9.78219 13.1462 9.87127C13.2447 9.96035 13.3745 10.0067 13.5071 10H14.5071C14.6397 10 14.7669 9.94736 14.8606 9.85359C14.9544 9.75983 15.0071 9.63265 15.0071 9.50004C15.0071 9.36743 14.9544 9.24025 14.8606 9.14649C14.7669 9.05272 14.6397 9.00004 14.5071 9.00004H13.5071C13.4904 8.99921 13.4737 8.99921 13.4571 9.00004ZM16.4571 9.00004C16.3245 9.00667 16.1999 9.06571 16.1108 9.16417C16.0218 9.26262 15.9754 9.39243 15.9821 9.52504C15.9887 9.65765 16.0477 9.78219 16.1462 9.87127C16.2447 9.96035 16.3745 10.0067 16.5071 10H24.5001C24.6327 10 24.7599 9.94736 24.8536 9.85359C24.9474 9.75983 25.0001 9.63265 25.0001 9.50004C25.0001 9.36743 24.9474 9.24025 24.8536 9.14649C24.7599 9.05272 24.6327 9.00004 24.5001 9.00004H16.5081C16.4911 8.99917 16.4741 8.99917 16.4571 9.00004ZM7.45707 11C7.32446 11.0067 7.19992 11.0657 7.11084 11.1642C7.02176 11.2626 6.97544 11.3924 6.98207 11.525C6.9887 11.6576 7.04774 11.7822 7.1462 11.8713C7.24465 11.9604 7.37446 12.0067 7.50707 12H13.5071C13.6397 12 13.7669 11.9474 13.8606 11.8536C13.9544 11.7598 14.0071 11.6326 14.0071 11.5C14.0071 11.3674 13.9544 11.2403 13.8606 11.1465C13.7669 11.0527 13.6397 11 13.5071 11H7.50707C7.49041 10.9992 7.47373 10.9992 7.45707 11ZM15.4571 11C15.3245 11.0067 15.1999 11.0657 15.1108 11.1642C15.0218 11.2626 14.9754 11.3924 14.9821 11.525C14.9887 11.6576 15.0477 11.7822 15.1462 11.8713C15.2447 11.9604 15.3745 12.0067 15.5071 12H16.5071C16.6397 12 16.7669 11.9474 16.8606 11.8536C16.9544 11.7598 17.0071 11.6326 17.0071 11.5C17.0071 11.3674 16.9544 11.2403 16.8606 11.1465C16.7669 11.0527 16.6397 11 16.5071 11H15.5071C15.4904 10.9992 15.4737 10.9992 15.4571 11ZM18.4571 11C18.3245 11.0067 18.1999 11.0657 18.1108 11.1642C18.0218 11.2626 17.9754 11.3924 17.9821 11.525C17.9887 11.6576 18.0477 11.7822 18.1462 11.8713C18.2447 11.9604 18.3745 12.0067 18.5071 12H24.5001C24.6327 12 24.7599 11.9474 24.8536 11.8536C24.9474 11.7598 25.0001 11.6326 25.0001 11.5C25.0001 11.3674 24.9474 11.2403 24.8536 11.1465C24.7599 11.0527 24.6327 11 24.5001 11H18.5081C18.4911 10.9992 18.4741 10.9992 18.4571 11ZM7.45707 13C7.32446 13.0067 7.19992 13.0657 7.11084 13.1642C7.02176 13.2626 6.97544 13.3924 6.98207 13.525C6.9887 13.6576 7.04774 13.7822 7.1462 13.8713C7.24465 13.9604 7.37446 14.0067 7.50707 14H15.5071C15.6397 14 15.7669 13.9474 15.8606 13.8536C15.9544 13.7598 16.0071 13.6326 16.0071 13.5C16.0071 13.3674 15.9544 13.2403 15.8606 13.1465C15.7669 13.0527 15.6397 13 15.5071 13H7.50707C7.49041 12.9992 7.47373 12.9992 7.45707 13ZM17.4571 13C17.3245 13.0067 17.1999 13.0657 17.1108 13.1642C17.0218 13.2626 16.9754 13.3924 16.9821 13.525C16.9887 13.6576 17.0477 13.7822 17.1462 13.8713C17.2447 13.9604 17.3745 14.0067 17.5071 14H18.5071C18.6397 14 18.7669 13.9474 18.8606 13.8536C18.9544 13.7598 19.0071 13.6326 19.0071 13.5C19.0071 13.3674 18.9544 13.2403 18.8606 13.1465C18.7669 13.0527 18.6397 13 18.5071 13H17.5071C17.4904 12.9992 17.4737 12.9992 17.4571 13ZM20.4571 13C20.3245 13.0067 20.1999 13.0657 20.1108 13.1642C20.0218 13.2626 19.9754 13.3924 19.9821 13.525C19.9887 13.6576 20.0477 13.7822 20.1462 13.8713C20.2447 13.9604 20.3745 14.0067 20.5071 14H24.5001C24.6327 14 24.7599 13.9474 24.8536 13.8536C24.9474 13.7598 25.0001 13.6326 25.0001 13.5C25.0001 13.3674 24.9474 13.2403 24.8536 13.1465C24.7599 13.0527 24.6327 13 24.5001 13H20.5081C20.4911 12.9992 20.4741 12.9992 20.4571 13ZM7.45707 15C7.32446 15.0067 7.19992 15.0657 7.11084 15.1642C7.02176 15.2626 6.97544 15.3924 6.98207 15.525C6.9887 15.6576 7.04774 15.7822 7.1462 15.8713C7.24465 15.9604 7.37446 16.0067 7.50707 16H11.5071C11.6397 16 11.7669 15.9474 11.8606 15.8536C11.9544 15.7598 12.0071 15.6326 12.0071 15.5C12.0071 15.3674 11.9544 15.2403 11.8606 15.1465C11.7669 15.0527 11.6397 15 11.5071 15H7.50707C7.49041 14.9992 7.47373 14.9992 7.45707 15ZM13.4571 15C13.3245 15.0067 13.1999 15.0657 13.1108 15.1642C13.0218 15.2626 12.9754 15.3924 12.9821 15.525C12.9887 15.6576 13.0477 15.7822 13.1462 15.8713C13.2447 15.9604 13.3745 16.0067 13.5071 16H14.5071C14.6397 16 14.7669 15.9474 14.8606 15.8536C14.9544 15.7598 15.0071 15.6326 15.0071 15.5C15.0071 15.3674 14.9544 15.2403 14.8606 15.1465C14.7669 15.0527 14.6397 15 14.5071 15H13.5071C13.4904 14.9992 13.4737 14.9992 13.4571 15ZM16.4571 15C16.3245 15.0067 16.1999 15.0657 16.1108 15.1642C16.0218 15.2626 15.9754 15.3924 15.9821 15.525C15.9887 15.6576 16.0477 15.7822 16.1462 15.8713C16.2447 15.9604 16.3745 16.0067 16.5071 16H24.5001C24.6327 16 24.7599 15.9474 24.8536 15.8536C24.9474 15.7598 25.0001 15.6326 25.0001 15.5C25.0001 15.3674 24.9474 15.2403 24.8536 15.1465C24.7599 15.0527 24.6327 15 24.5001 15H16.5081C16.4911 14.9992 16.4741 14.9992 16.4571 15Z" fill="#0153F3"/>
<path fill-rule="evenodd" clip-rule="evenodd" d="M21.5078 25.0029C21.3752 25.0029 21.248 25.0556 21.1543 25.1494C21.0605 25.2432 21.0078 25.3703 21.0078 25.5029C21.0078 25.6355 21.0605 25.7627 21.1543 25.8564C21.248 25.9502 21.3752 26.0029 21.5078 26.0029H22.5078C22.6404 26.0029 22.7676 25.9502 22.8614 25.8564C22.9551 25.7627 23.0078 25.6355 23.0078 25.5029C23.0078 25.3703 22.9551 25.2432 22.8614 25.1494C22.7676 25.0556 22.6404 25.0029 22.5078 25.0029H21.5078ZM21.5158 29.0029C21.3832 29.0029 21.256 29.0556 21.1623 29.1494C21.0685 29.2432 21.0158 29.3703 21.0158 29.5029C21.0158 29.6355 21.0685 29.7627 21.1623 29.8564C21.256 29.9502 21.3832 30.0029 21.5158 30.0029H22.5158C22.6484 30.0029 22.7756 29.9502 22.8694 29.8564C22.9631 29.7627 23.0158 29.6355 23.0158 29.5029C23.0158 29.3703 22.9631 29.2432 22.8694 29.1494C22.7756 29.0556 22.6484 29.0029 22.5158 29.0029H21.5158Z" fill="#E9EDED"/>
<path d="M21.5838 25.0031C20.1738 25.0031 19.0078 26.1161 19.0078 27.5031C19.0078 28.8901 20.1748 30.0031 21.5838 30.0031C21.7164 30.0031 21.8436 29.9503 21.9374 29.8566C22.0311 29.7628 22.0838 29.6357 22.0838 29.5031C22.0838 29.3704 22.0311 29.2433 21.9374 29.1495C21.8436 29.0558 21.7164 29.0031 21.5838 29.0031C20.6918 29.0031 20.0078 28.3331 20.0078 27.5031C20.0078 26.6731 20.6918 26.0031 21.5838 26.0031C21.7164 26.0031 21.8436 25.9503 21.9374 25.8566C22.0311 25.7628 22.0838 25.6357 22.0838 25.5031C22.0838 25.3704 22.0311 25.2433 21.9374 25.1495C21.8436 25.0558 21.7164 25.0031 21.5838 25.0031ZM15.5078 24.999C16.8828 24.999 18.0078 26.124 18.0078 27.499C18.0078 28.874 16.8828 29.999 15.5078 29.999C14.8454 29.9969 14.2108 29.7329 13.7424 29.2645C13.274 28.7961 13.0099 28.1614 13.0078 27.499C13.0078 26.124 14.1328 24.999 15.5078 24.999ZM15.5078 25.999C14.6728 25.999 14.0078 26.665 14.0078 27.499C14.0078 28.334 14.6728 28.999 15.5078 28.999C16.3418 28.999 17.0078 28.334 17.0078 27.499C17.0078 26.665 16.3418 25.999 15.5078 25.999Z" fill="#E9EDED"/>
<path fill-rule="evenodd" clip-rule="evenodd" d="M8.51381 25.0029C8.3812 25.0029 8.25403 25.0556 8.16026 25.1494C8.06649 25.2432 8.01381 25.3703 8.01381 25.5029C8.01381 25.6355 8.06649 25.7627 8.16026 25.8564C8.25403 25.9502 8.3812 26.0029 8.51381 26.0029H9.51381C9.64642 26.0029 9.7736 25.9502 9.86737 25.8564C9.96113 25.7627 10.0138 25.6355 10.0138 25.5029C10.0138 25.3703 9.96113 25.2432 9.86737 25.1494C9.7736 25.0556 9.64642 25.0029 9.51381 25.0029H8.51381ZM8.50781 29.0029C8.3752 29.0029 8.24803 29.0556 8.15426 29.1494C8.06049 29.2432 8.00781 29.3703 8.00781 29.5029C8.00781 29.6355 8.06049 29.7627 8.15426 29.8564C8.24803 29.9502 8.3752 30.0029 8.50781 30.0029H9.50781C9.64042 30.0029 9.7676 29.9502 9.86137 29.8564C9.95513 29.7627 10.0078 29.6355 10.0078 29.5029C10.0078 29.3703 9.95513 29.2432 9.86137 29.1494C9.7676 29.0556 9.64042 29.0029 9.50781 29.0029H8.50781Z" fill="#E9EDED"/>
<path d="M9.43752 25.0029C9.30491 25.0029 9.17774 25.0556 9.08397 25.1494C8.9902 25.2432 8.93752 25.3703 8.93752 25.5029C8.93752 25.6355 8.9902 25.7627 9.08397 25.8564C9.17774 25.9502 9.30491 26.0029 9.43752 26.0029C10.3295 26.0029 11.0155 26.6729 11.0155 27.5029C11.0155 28.3329 10.3295 29.0029 9.43652 29.0029C9.30392 29.0029 9.17674 29.0556 9.08297 29.1494C8.9892 29.2432 8.93652 29.3703 8.93652 29.5029C8.93652 29.6355 8.9892 29.7627 9.08297 29.8564C9.17674 29.9502 9.30392 30.0029 9.43652 30.0029C10.8465 30.0029 12.0155 28.8899 12.0155 27.5029C12.0155 26.1159 10.8465 25.0029 9.43752 25.0029Z" fill="#E9EDED"/>
<path fill-rule="evenodd" clip-rule="evenodd" d="M8.49205 24.9901C8.35961 24.9922 8.23342 25.0467 8.14118 25.1418C8.04894 25.2368 7.99818 25.3646 8.00005 25.497V29.497C8.00005 29.6296 8.05273 29.7568 8.1465 29.8505C8.24026 29.9443 8.36744 29.997 8.50005 29.997C8.63266 29.997 8.75984 29.9443 8.8536 29.8505C8.94737 29.7568 9.00005 29.6296 9.00005 29.497V25.497C9.001 25.4301 8.98849 25.3636 8.96329 25.3016C8.93808 25.2396 8.90068 25.1833 8.85331 25.1361C8.80593 25.0888 8.74954 25.0515 8.68749 25.0264C8.62543 25.0013 8.55897 24.989 8.49205 24.9901Z" fill="#E9EDED"/>
</svg>
