<svg width="56" height="56" viewBox="0 0 56 56" fill="none" xmlns="http://www.w3.org/2000/svg">
<path d="M10.5 6.99935C10.5 5.7107 11.5447 4.66602 12.8333 4.66602H36.75L45.5 13.416V48.9993C45.5 50.288 44.4554 51.3327 43.1667 51.3327H12.8333C11.5447 51.3327 10.5 50.288 10.5 48.9993V6.99935Z" fill="#F3A23A"/>
<path d="M36.75 4.66602L45.5 13.416H39.0833C37.7946 13.416 36.75 12.3713 36.75 11.0827V4.66602Z" fill="#DFDFDF"/>
<path d="M20.595 33.25V27.0293H22.5987C23.1485 27.0293 23.6427 27.1546 24.0813 27.4052C24.5199 27.653 24.8617 28.0049 25.1067 28.4606C25.3545 28.9135 25.4798 29.4219 25.4827 29.9859V30.2722C25.4827 30.8417 25.3616 31.353 25.1195 31.8059C24.8802 32.256 24.5413 32.609 24.1026 32.8654C23.6669 33.1188 23.1798 33.2472 22.6415 33.25H20.595ZM22.0946 28.1871V32.0964H22.6158C23.0459 32.0964 23.3763 31.944 23.607 31.6393C23.8378 31.3317 23.9531 30.8758 23.9531 30.2722V30.0029C23.9531 29.4018 23.8378 28.9489 23.607 28.6442C23.3763 28.3395 23.0402 28.1871 22.5987 28.1871H22.0946ZM31.5196 30.2677C31.5196 30.8744 31.4071 31.4113 31.1822 31.8784C30.957 32.3456 30.6367 32.7058 30.2209 32.9595C29.8079 33.2101 29.3365 33.3354 28.8066 33.3354C28.2768 33.3354 27.8069 33.2143 27.3967 32.9723C26.9866 32.7273 26.6661 32.3785 26.4354 31.9256C26.2075 31.4727 26.0879 30.9528 26.0765 30.366V30.0157C26.0765 29.4063 26.1876 28.8694 26.4098 28.405C26.6348 27.9379 26.9552 27.5776 27.3711 27.324C27.7898 27.0706 28.2655 26.9439 28.798 26.9439C29.3251 26.9439 29.795 27.0692 30.208 27.3198C30.621 27.5704 30.9414 27.9279 31.1694 28.3922C31.4001 28.8535 31.5168 29.3834 31.5196 29.9814V30.2677ZM29.9943 30.0071C29.9943 29.389 29.8905 28.9205 29.6826 28.6015C29.4775 28.2797 29.1825 28.1187 28.798 28.1187C28.0461 28.1187 27.6488 28.6827 27.6061 29.8106L27.6018 30.2677C27.6018 30.8774 27.7029 31.346 27.9051 31.6733C28.1074 32.0009 28.4079 32.1647 28.8066 32.1647C29.1856 32.1647 29.4775 32.0037 29.6826 31.682C29.8877 31.3602 29.9915 30.8973 29.9943 30.2934V30.0071ZM37.3259 31.1437C37.306 31.5765 37.1891 31.9596 36.9756 32.2928C36.7619 32.6232 36.4614 32.8797 36.074 33.0619C35.6895 33.2444 35.2494 33.3354 34.7538 33.3354C33.9365 33.3354 33.2927 33.0691 32.8228 32.5364C32.3528 32.0037 32.1179 31.2519 32.1179 30.2806V29.973C32.1179 29.3636 32.2231 28.8309 32.434 28.3752C32.6475 27.9164 32.9537 27.5634 33.3524 27.3156C33.7512 27.0648 34.2127 26.9395 34.7368 26.9395C35.4916 26.9395 36.0983 27.139 36.5568 27.5377C37.0155 27.9337 37.2762 28.4804 37.3387 29.1783H35.8435C35.8321 28.7996 35.7366 28.5275 35.5572 28.3623C35.3778 28.1971 35.1043 28.1145 34.7368 28.1145C34.3637 28.1145 34.0902 28.2541 33.9164 28.5331C33.7428 28.8122 33.6516 29.2581 33.6432 29.8704V30.3104C33.6432 30.9743 33.7258 31.4484 33.891 31.7333C34.059 32.018 34.3467 32.1605 34.7538 32.1605C35.0985 32.1605 35.3621 32.0793 35.5444 31.9169C35.7266 31.7545 35.8234 31.4969 35.8349 31.1437H37.3259Z" fill="white"/>
</svg>
