<svg width="25" height="24" viewBox="0 0 25 24" fill="none" xmlns="http://www.w3.org/2000/svg">
<path d="M8.05325 16.4558L9.81425 15.9478L20.4173 5.21785C20.5009 5.13214 20.5475 5.01698 20.5469 4.89723C20.5463 4.77748 20.4987 4.66276 20.4143 4.57785L19.7793 3.93585C19.7382 3.89368 19.6892 3.86012 19.635 3.8371C19.5809 3.81409 19.5227 3.8021 19.4639 3.80182C19.405 3.80154 19.3467 3.81298 19.2924 3.83548C19.238 3.85797 19.1887 3.89107 19.1473 3.93285L8.57225 14.6348L8.05225 16.4548L8.05325 16.4558ZM21.0363 2.66385L21.6713 3.30685C22.5473 4.19385 22.5553 5.62485 21.6873 6.50285L10.7613 17.5608L6.99725 18.6448C6.76745 18.7092 6.52151 18.6797 6.31341 18.5629C6.10531 18.4461 5.95205 18.2515 5.88725 18.0218C5.83903 17.8567 5.83834 17.6813 5.88525 17.5158L6.98025 13.6758L17.8773 2.64685C18.0845 2.4382 18.3311 2.27291 18.6029 2.1606C18.8747 2.04829 19.1661 1.99121 19.4601 1.9927C19.7542 1.99419 20.045 2.05422 20.3156 2.16927C20.5862 2.28433 20.8312 2.45312 21.0363 2.66385ZM9.51725 3.81685C10.0133 3.81685 10.4153 4.22385 10.4153 4.72585C10.416 4.84451 10.3934 4.96217 10.3487 5.0721C10.304 5.18202 10.2381 5.28206 10.1547 5.36648C10.0713 5.4509 9.97204 5.51806 9.86267 5.5641C9.7533 5.61015 9.63592 5.63419 9.51725 5.63485H5.92525C4.93325 5.63485 4.12925 6.44885 4.12925 7.45185V18.3578C4.12925 19.3618 4.93325 20.1758 5.92525 20.1758H16.7013C17.6933 20.1758 18.4983 19.3618 18.4983 18.3578V14.7228C18.4983 14.2208 18.9003 13.8138 19.3963 13.8138C19.8923 13.8138 20.2943 14.2208 20.2943 14.7238V18.3578C20.2943 20.3658 18.6853 21.9938 16.7013 21.9938H5.92525C3.94125 21.9938 2.33325 20.3658 2.33325 18.3578V7.45185C2.33325 5.44485 3.94125 3.81685 5.92525 3.81685H9.51725Z" fill="#8F8F8F"/>
</svg>
