<svg width="24" height="24" viewBox="0 0 24 24" fill="none" xmlns="http://www.w3.org/2000/svg">
<mask id="path-1-inside-1_8799_13022" fill="white">
<path d="M19.59 12L15 7.41V9.87L14.14 10C9.83 10.61 6.91 12.87 5.24 16.33C7.56 14.69 10.44 13.9 14 13.9H15V16.59M13 14.92C8.53 15.13 5.33 16.74 3 20C4 15 7 10 14 9V5L21 12L14 19V14.9C13.67 14.9 13.34 14.91 13 14.92Z"/>
</mask>
<path d="M19.59 12L15 7.41V9.87L14.14 10C9.83 10.61 6.91 12.87 5.24 16.33C7.56 14.69 10.44 13.9 14 13.9H15V16.59M13 14.92C8.53 15.13 5.33 16.74 3 20C4 15 7 10 14 9V5L21 12L14 19V14.9C13.67 14.9 13.34 14.91 13 14.92Z" fill="#707070"/>
<path d="M12.5 14.9V14.92H13.5V14.9H12.5ZM15 7.41L15.7071 6.70289L14 4.99579V7.41H15ZM15 9.87L15.1495 10.8588L16 10.7302V9.87H15ZM14.14 10L14.2801 10.9902L14.2895 10.9888L14.14 10ZM5.24 16.33L4.33941 15.8953L2.65737 19.3803L5.81724 17.1466L5.24 16.33ZM15 13.9H16V12.9H15V13.9ZM13 14.92L12.9706 13.9204L12.9618 13.9207L12.9531 13.9211L13 14.92ZM3 20L2.01942 19.8039L3.81356 20.5815L3 20ZM14 9L14.1414 9.98995L15 9.8673V9H14ZM14 5L14.7071 4.29289L13 2.58579V5H14ZM21 12L21.7071 12.7071L22.4142 12L21.7071 11.2929L21 12ZM14 19H13V21.4142L14.7071 19.7071L14 19ZM14 14.9H15V13.9H14V14.9ZM20.2971 11.2929L15.7071 6.70289L14.2929 8.11711L18.8829 12.7071L20.2971 11.2929ZM14 7.41V9.87H16V7.41H14ZM14.8505 8.88123L13.9905 9.01123L14.2895 10.9888L15.1495 10.8588L14.8505 8.88123ZM13.9999 9.00987C9.36323 9.6661 6.15598 12.1317 4.33941 15.8953L6.14059 16.7647C7.66402 13.6083 10.2968 11.5539 14.2801 10.9901L13.9999 9.00987ZM5.81724 17.1466C7.92782 15.6546 10.5908 14.9 14 14.9V12.9C10.2892 12.9 7.19218 13.7254 4.66276 15.5134L5.81724 17.1466ZM14 14.9H15V12.9H14V14.9ZM14 13.9V16.59H16V13.9H14ZM12.9531 13.9211C8.22209 14.1434 4.71921 15.8748 2.18644 19.4185L3.81356 20.5815C5.94079 17.6052 8.83791 16.1166 13.0469 15.9189L12.9531 13.9211ZM3.98058 20.1961C4.45714 17.8133 5.39932 15.4908 7.00258 13.6585C8.59092 11.8433 10.8719 10.457 14.1414 9.98995L13.8586 8.01005C10.1281 8.54298 7.40908 10.1567 5.49742 12.3415C3.60068 14.5092 2.54286 17.1867 2.01942 19.8039L3.98058 20.1961ZM15 9V5H13V9H15ZM13.2929 5.70711L20.2929 12.7071L21.7071 11.2929L14.7071 4.29289L13.2929 5.70711ZM20.2929 11.2929L13.2929 18.2929L14.7071 19.7071L21.7071 12.7071L20.2929 11.2929ZM15 19V14.9H13V19H15ZM14 13.9C13.6525 13.9 13.3071 13.9105 12.9706 13.9204L13.0294 15.9196C13.3729 15.9095 13.6875 15.9 14 15.9V13.9Z" fill="#707070" mask="url(#path-1-inside-1_8799_13022)"/>
</svg>
