<svg width="36" height="36" viewBox="0 0 36 36" fill="none" xmlns="http://www.w3.org/2000/svg">
<rect x="0.5" y="0.5" width="35" height="35" rx="17.5" stroke="#DFDFDF"/>
<path d="M21.75 24.25C22.4404 24.25 23 23.6904 23 23C23 22.3096 22.4404 21.75 21.75 21.75C21.0596 21.75 20.5 22.3096 20.5 23C20.5 23.6904 21.0596 24.25 21.75 24.25Z" fill="#707070"/>
<path d="M26.6106 22.6744C26.2245 21.6906 25.5581 20.8417 24.6941 20.233C23.83 19.6243 22.8064 19.2825 21.75 19.25C20.6936 19.2825 19.67 19.6243 18.8059 20.233C17.9419 20.8417 17.2755 21.6906 16.8894 22.6744L16.75 23L16.8894 23.3256C17.2755 24.3094 17.9419 25.1583 18.8059 25.767C19.67 26.3757 20.6936 26.7175 21.75 26.75C22.8064 26.7175 23.83 26.3757 24.6941 25.767C25.5581 25.1583 26.2245 24.3094 26.6106 23.3256L26.75 23L26.6106 22.6744ZM21.75 25.5C21.2555 25.5 20.7722 25.3534 20.3611 25.0787C19.95 24.804 19.6295 24.4135 19.4403 23.9567C19.2511 23.4999 19.2016 22.9972 19.298 22.5123C19.3945 22.0273 19.6326 21.5819 19.9822 21.2322C20.3319 20.8826 20.7773 20.6445 21.2623 20.548C21.7472 20.4516 22.2499 20.5011 22.7067 20.6903C23.1635 20.8795 23.554 21.2 23.8287 21.6111C24.1034 22.0222 24.25 22.5055 24.25 23C24.2492 23.6628 23.9855 24.2982 23.5169 24.7669C23.0482 25.2355 22.4128 25.4992 21.75 25.5Z" fill="#707070"/>
<path d="M15.5 25.5002H13V10.5002H18V14.2502C18.001 14.5814 18.133 14.8988 18.3672 15.133C18.6014 15.3672 18.9188 15.4992 19.25 15.5002H23V18.0002H24.25V14.2502C24.2522 14.1681 24.2366 14.0864 24.2042 14.0109C24.1719 13.9354 24.1235 13.8678 24.0625 13.8127L19.6875 9.43771C19.6325 9.37668 19.5649 9.32831 19.4893 9.29594C19.4138 9.26356 19.3321 9.24797 19.25 9.25021H13C12.6688 9.2512 12.3514 9.38322 12.1172 9.61742C11.883 9.85163 11.751 10.169 11.75 10.5002V25.5002C11.751 25.8314 11.883 26.1488 12.1172 26.383C12.3514 26.6172 12.6688 26.7492 13 26.7502H15.5V25.5002ZM19.25 10.7502L22.75 14.2502H19.25V10.7502Z" fill="#707070"/>
</svg>
