<svg width="14" height="18" viewBox="0 0 14 18" fill="none" xmlns="http://www.w3.org/2000/svg">
<path d="M12.625 0.25H1.375C1.04358 0.250331 0.725831 0.382133 0.491482 0.616482C0.257133 0.850831 0.125331 1.16858 0.125 1.5V17.125C0.125 17.2908 0.190848 17.4497 0.308058 17.5669C0.425269 17.6842 0.58424 17.75 0.75 17.75H1.375C1.47204 17.75 1.56775 17.7275 1.65454 17.6841C1.74133 17.6407 1.81682 17.5777 1.875 17.5L3.25 15.6669L4.625 17.5C4.68568 17.5739 4.762 17.6335 4.84845 17.6744C4.93491 17.7152 5.02936 17.7365 5.125 17.7365C5.22064 17.7365 5.31509 17.7152 5.40155 17.6744C5.488 17.6335 5.56432 17.5739 5.625 17.5L7 15.6669L8.375 17.5C8.43568 17.5739 8.512 17.6335 8.59845 17.6744C8.68491 17.7152 8.77936 17.7365 8.875 17.7365C8.97064 17.7365 9.06509 17.7152 9.15155 17.6744C9.238 17.6335 9.31432 17.5739 9.375 17.5L10.75 15.6669L12.125 17.5C12.1832 17.5776 12.2587 17.6406 12.3455 17.684C12.4323 17.7274 12.528 17.75 12.625 17.75H13.25C13.4158 17.75 13.5747 17.6842 13.6919 17.5669C13.8092 17.4497 13.875 17.2908 13.875 17.125V1.5C13.8747 1.16858 13.7429 0.850831 13.5085 0.616482C13.2742 0.382133 12.9564 0.250331 12.625 0.25ZM12.625 16.0831L11.25 14.25C11.1893 14.1761 11.113 14.1165 11.0265 14.0756C10.9401 14.0348 10.8456 14.0135 10.75 14.0135C10.6544 14.0135 10.5599 14.0348 10.4735 14.0756C10.387 14.1165 10.3107 14.1761 10.25 14.25L8.875 16.0831L7.5 14.25C7.43932 14.1761 7.363 14.1165 7.27655 14.0756C7.19009 14.0348 7.09564 14.0135 7 14.0135C6.90436 14.0135 6.80991 14.0348 6.72345 14.0756C6.637 14.1165 6.56068 14.1761 6.5 14.25L5.125 16.0831L3.75 14.25C3.68932 14.1761 3.613 14.1165 3.52655 14.0756C3.44009 14.0348 3.34564 14.0135 3.25 14.0135C3.15436 14.0135 3.05991 14.0348 2.97345 14.0756C2.887 14.1165 2.81068 14.1761 2.75 14.25L1.375 16.0831V1.5H12.625V16.0831Z" fill="#404040"/>
</svg>
