<svg width="32" height="32" viewBox="0 0 32 32" fill="none" xmlns="http://www.w3.org/2000/svg">
<path fill-rule="evenodd" clip-rule="evenodd" d="M26.4961 7.50403V29.004C26.4961 29.834 25.8271 30.504 24.9961 30.504H6.99609C6.16609 30.504 5.49609 29.834 5.49609 29.004V3.00403C5.49609 2.17303 6.16609 1.50403 6.99609 1.50403H20.4961L26.4961 7.50403Z" fill="#E9EDED" stroke="#25B39E" stroke-linecap="round" stroke-linejoin="round"/>
<path d="M26.4961 7.50403H21.9961C21.1661 7.50403 20.4961 6.83403 20.4961 6.00403V1.50403" fill="#25B39E"/>
<path d="M26.4961 7.50403H21.9961C21.1661 7.50403 20.4961 6.83403 20.4961 6.00403V1.50403" stroke="#25B39E" stroke-linecap="round" stroke-linejoin="round"/>
<path d="M6 24.004H26V30.004H6V24.004Z" fill="#25B39E"/>
<path d="M10.492 25.002V25.004C10.4264 25.0051 10.3616 25.019 10.3013 25.0451C10.241 25.0712 10.1865 25.1089 10.1408 25.1561C10.0951 25.2033 10.0592 25.259 10.035 25.3201C10.0109 25.3811 9.99898 25.4464 10 25.512V28.504C10 28.79 9.78604 29.004 9.50004 29.004C9.43393 29.0057 9.36817 28.9939 9.30676 28.9693C9.24536 28.9448 9.18958 28.908 9.14282 28.8612C9.09606 28.8145 9.05929 28.7587 9.03474 28.6973C9.0102 28.6359 8.99839 28.5701 9.00004 28.504C9.00085 28.4372 8.98825 28.3708 8.96298 28.309C8.93771 28.2471 8.90029 28.1909 8.85293 28.1437C8.80557 28.0965 8.74923 28.0593 8.68724 28.0343C8.62525 28.0093 8.55888 27.9969 8.49204 27.998C8.35977 28.0001 8.23374 28.0546 8.14152 28.1494C8.04931 28.2442 7.99843 28.3717 8.00004 28.504C8.00004 29.326 8.67804 30.004 9.50004 30.004C10.274 30.004 10.911 29.401 10.984 28.644C10.9952 28.6009 11.0006 28.5565 11 28.512V25.51C11.0011 25.443 10.9887 25.3765 10.9636 25.3143C10.9384 25.2522 10.901 25.1958 10.8537 25.1484C10.8063 25.101 10.7498 25.0636 10.6877 25.0385C10.6256 25.0133 10.559 25.0009 10.492 25.002ZM13.5 25.004C12.726 25.004 12.089 25.607 12.016 26.364L12.014 26.373C12.0041 26.4139 11.9994 26.4559 12 26.498V29.502C12 29.6346 12.0527 29.7618 12.1465 29.8556C12.2403 29.9493 12.3674 30.002 12.5 30.002C12.6326 30.002 12.7598 29.9493 12.8536 29.8556C12.9474 29.7618 13 29.6346 13 29.502V27.914C13.157 27.971 13.324 28.008 13.5 28.008C14.323 28.008 15 27.33 15 26.508C15 25.685 14.323 25.008 13.5 25.008V25.004ZM17.574 25.004C16.711 25.004 16 25.714 16 26.578V28.43C16 29.293 16.71 30.004 17.574 30.004H18.426C19.212 30.004 19.866 29.412 19.976 28.654C19.9922 28.6036 20.0003 28.551 20 28.498V27.512C20.0014 27.4063 19.9692 27.303 19.9081 27.2167C19.847 27.1305 19.7602 27.0658 19.66 27.032C19.6446 27.0266 19.6289 27.0219 19.613 27.018C19.5966 27.0138 19.5799 27.0105 19.563 27.008C19.5464 27.0058 19.5298 27.0045 19.513 27.004C19.5067 27.0039 19.5004 27.0039 19.494 27.004C19.4934 27.004 19.4927 27.004 19.492 27.004H18.508C18.3754 27.004 18.2483 27.0567 18.1545 27.1505C18.0607 27.2442 18.008 27.3714 18.008 27.504C18.008 27.6366 18.0607 27.7638 18.1545 27.8576C18.2483 27.9513 18.3754 28.004 18.508 28.004H19V28.43C19.0015 28.5058 18.9877 28.5811 18.9594 28.6514C18.9311 28.7218 18.8889 28.7856 18.8352 28.8392C18.7816 28.8928 18.7178 28.9351 18.6475 28.9634C18.5771 28.9917 18.5018 29.0055 18.426 29.004H17.574C17.4982 29.0055 17.4229 28.9917 17.3526 28.9634C17.2823 28.9351 17.2184 28.8928 17.1648 28.8392C17.1112 28.7856 17.069 28.7218 17.0407 28.6514C17.0124 28.5811 16.9985 28.5058 17 28.43V26.578C17 26.252 17.248 26.004 17.574 26.004H19.5C19.6326 26.004 19.7598 25.9513 19.8536 25.8576C19.9474 25.7638 20 25.6366 20 25.504C20 25.3714 19.9474 25.2442 19.8536 25.1505C19.7598 25.0567 19.6326 25.004 19.5 25.004H17.574ZM13.5 26V26.004C13.782 26.004 14 26.222 14 26.504C14 26.786 13.782 27.004 13.5 27.004C13.4341 27.005 13.3687 26.9927 13.3076 26.9679C13.2465 26.9431 13.191 26.9063 13.1444 26.8597C13.0978 26.8131 13.061 26.7576 13.0362 26.6965C13.0114 26.6354 12.9991 26.5699 13 26.504V26.494C12.9999 26.4286 13.0128 26.3638 13.0379 26.3034C13.0631 26.243 13.1 26.1882 13.1465 26.1423C13.1931 26.0963 13.2483 26.06 13.309 26.0356C13.3697 26.0112 13.4346 25.9991 13.5 26Z" fill="#E9EDED"/>
<path fill-rule="evenodd" clip-rule="evenodd" d="M7 22.004L12 15.004L17 22.004H7Z" fill="#25B39E"/>
<path fill-rule="evenodd" clip-rule="evenodd" d="M11 22.004L18 12.004L25 22.004H11Z" fill="#25B39E"/>
<path d="M13 11.004C13 11.5345 12.7893 12.0432 12.4142 12.4182C12.0391 12.7933 11.5304 13.004 11 13.004C10.4696 13.004 9.96086 12.7933 9.58579 12.4182C9.21071 12.0432 9 11.5345 9 11.004C9 10.4736 9.21071 9.96489 9.58579 9.58982C9.96086 9.21474 10.4696 9.00403 11 9.00403C11.5304 9.00403 12.0391 9.21474 12.4142 9.58982C12.7893 9.96489 13 10.4736 13 11.004Z" fill="#F8B84E"/>
</svg>
