<svg width="18" height="19" viewBox="0 0 18 19" fill="none" xmlns="http://www.w3.org/2000/svg">
<mask id="path-1-inside-1_8996_9005" fill="white">
<path d="M9 17.5H7.125C4.6875 17.5 2.75 15.5625 2.75 13.125V10.625H4V13.125C4 14.875 5.375 16.25 7.125 16.25H9V17.5ZM16.5 18.75H17.875L15 11.875H13.625L10.75 18.75H12.125L12.625 17.5H15.9375L16.5 18.75ZM13.1875 16.25L14.3125 13.5L15.4375 16.25H13.1875ZM16.5 9.375H15.25V6.875C15.25 5.125 13.875 3.75 12.125 3.75H9.625V2.5H12.125C14.5625 2.5 16.5 4.4375 16.5 6.875V9.375ZM7.75 3.125V1.875H4.625V0.625H3.375V1.875H0.25V3.125H5.375C5.25 3.6875 4.875 4.6875 4 5.625C3.625 5.1875 3.3125 4.75 3.125 4.375H1.6875C1.9375 5 2.375 5.75 3 6.4375C2.5 6.875 1.75 7.25 0.875 7.5625L1.3125 8.75C2.4375 8.3125 3.3125 7.8125 4 7.3125C4.6875 7.875 5.5625 8.375 6.6875 8.75L7.125 7.5625C6.25 7.25 5.5 6.8125 4.9375 6.4375C6.125 5.1875 6.5 3.875 6.625 3.125H7.75Z"/>
</mask>
<path d="M9 17.5H7.125C4.6875 17.5 2.75 15.5625 2.75 13.125V10.625H4V13.125C4 14.875 5.375 16.25 7.125 16.25H9V17.5ZM16.5 18.75H17.875L15 11.875H13.625L10.75 18.75H12.125L12.625 17.5H15.9375L16.5 18.75ZM13.1875 16.25L14.3125 13.5L15.4375 16.25H13.1875ZM16.5 9.375H15.25V6.875C15.25 5.125 13.875 3.75 12.125 3.75H9.625V2.5H12.125C14.5625 2.5 16.5 4.4375 16.5 6.875V9.375ZM7.75 3.125V1.875H4.625V0.625H3.375V1.875H0.25V3.125H5.375C5.25 3.6875 4.875 4.6875 4 5.625C3.625 5.1875 3.3125 4.75 3.125 4.375H1.6875C1.9375 5 2.375 5.75 3 6.4375C2.5 6.875 1.75 7.25 0.875 7.5625L1.3125 8.75C2.4375 8.3125 3.3125 7.8125 4 7.3125C4.6875 7.875 5.5625 8.375 6.6875 8.75L7.125 7.5625C6.25 7.25 5.5 6.8125 4.9375 6.4375C6.125 5.1875 6.5 3.875 6.625 3.125H7.75Z" fill="#404040"/>
<path d="M9 17.5V19H10.5V17.5H9ZM2.75 10.625V9.125H1.25V10.625H2.75ZM4 10.625H5.5V9.125H4V10.625ZM9 16.25H10.5V14.75H9V16.25ZM16.5 18.75L15.1321 19.3655L15.5301 20.25H16.5V18.75ZM17.875 18.75V20.25H20.1282L19.2589 18.1713L17.875 18.75ZM15 11.875L16.3839 11.2963L15.9986 10.375H15V11.875ZM13.625 11.875V10.375H12.6264L12.2411 11.2963L13.625 11.875ZM10.75 18.75L9.36613 18.1713L8.49685 20.25H10.75V18.75ZM12.125 18.75V20.25H13.1406L13.5177 19.3071L12.125 18.75ZM12.625 17.5V16H11.6095L11.2323 16.9429L12.625 17.5ZM15.9375 17.5L17.3054 16.8845L16.9074 16H15.9375V17.5ZM13.1875 16.25L11.7992 15.6821L10.9532 17.75H13.1875V16.25ZM14.3125 13.5L15.7008 12.9321L14.3125 9.53838L12.9242 12.9321L14.3125 13.5ZM15.4375 16.25V17.75H17.6718L16.8258 15.6821L15.4375 16.25ZM16.5 9.375V10.875H18V9.375H16.5ZM15.25 9.375H13.75V10.875H15.25V9.375ZM9.625 3.75H8.125V5.25H9.625V3.75ZM9.625 2.5V1H8.125V2.5H9.625ZM7.75 3.125V4.625H9.25V3.125H7.75ZM7.75 1.875H9.25V0.375H7.75V1.875ZM4.625 1.875H3.125V3.375H4.625V1.875ZM4.625 0.625H6.125V-0.875H4.625V0.625ZM3.375 0.625V-0.875H1.875V0.625H3.375ZM3.375 1.875V3.375H4.875V1.875H3.375ZM0.25 1.875V0.375H-1.25V1.875H0.25ZM0.25 3.125H-1.25V4.625H0.25V3.125ZM5.375 3.125L6.83928 3.4504L7.24492 1.625H5.375V3.125ZM4 5.625L2.86112 6.60119L3.95242 7.87437L5.09658 6.64848L4 5.625ZM3.125 4.375L4.46664 3.70418L4.05205 2.875H3.125V4.375ZM1.6875 4.375V2.875H-0.528049L0.294785 4.93209L1.6875 4.375ZM3 6.4375L3.98776 7.56637L5.13826 6.55968L4.10991 5.42849L3 6.4375ZM0.875 7.5625L0.370495 6.14989L-1.05627 6.65945L-0.532515 8.08106L0.875 7.5625ZM1.3125 8.75L-0.0950145 9.26856L0.43291 10.7015L1.85617 10.148L1.3125 8.75ZM4 7.3125L4.94986 6.15156L4.05393 5.41853L3.11774 6.0994L4 7.3125ZM6.6875 8.75L6.21316 10.173L7.59241 10.6328L8.09502 9.26856L6.6875 8.75ZM7.125 7.5625L8.53252 8.08106L9.05627 6.65945L7.62951 6.14989L7.125 7.5625ZM4.9375 6.4375L3.85 5.40438L2.62223 6.69676L4.10545 7.68558L4.9375 6.4375ZM6.625 3.125V1.625H5.35431L5.14541 2.8784L6.625 3.125ZM9 16H7.125V19H9V16ZM7.125 16C5.51593 16 4.25 14.7341 4.25 13.125H1.25C1.25 16.3909 3.85907 19 7.125 19V16ZM4.25 13.125V10.625H1.25V13.125H4.25ZM2.75 12.125H4V9.125H2.75V12.125ZM2.5 10.625V13.125H5.5V10.625H2.5ZM2.5 13.125C2.5 15.7034 4.54657 17.75 7.125 17.75V14.75C6.20343 14.75 5.5 14.0466 5.5 13.125H2.5ZM7.125 17.75H9V14.75H7.125V17.75ZM7.5 16.25V17.5H10.5V16.25H7.5ZM16.5 20.25H17.875V17.25H16.5V20.25ZM19.2589 18.1713L16.3839 11.2963L13.6161 12.4537L16.4911 19.3287L19.2589 18.1713ZM15 10.375H13.625V13.375H15V10.375ZM12.2411 11.2963L9.36613 18.1713L12.1339 19.3287L15.0089 12.4537L12.2411 11.2963ZM10.75 20.25H12.125V17.25H10.75V20.25ZM13.5177 19.3071L14.0177 18.0571L11.2323 16.9429L10.7323 18.1929L13.5177 19.3071ZM12.625 19H15.9375V16H12.625V19ZM14.5696 18.1155L15.1321 19.3655L17.8679 18.1345L17.3054 16.8845L14.5696 18.1155ZM14.5758 16.8179L15.7008 14.0679L12.9242 12.9321L11.7992 15.6821L14.5758 16.8179ZM12.9242 14.0679L14.0492 16.8179L16.8258 15.6821L15.7008 12.9321L12.9242 14.0679ZM15.4375 14.75H13.1875V17.75H15.4375V14.75ZM16.5 7.875H15.25V10.875H16.5V7.875ZM16.75 9.375V6.875H13.75V9.375H16.75ZM16.75 6.875C16.75 4.29657 14.7034 2.25 12.125 2.25V5.25C13.0466 5.25 13.75 5.95343 13.75 6.875H16.75ZM12.125 2.25H9.625V5.25H12.125V2.25ZM11.125 3.75V2.5H8.125V3.75H11.125ZM9.625 4H12.125V1H9.625V4ZM12.125 4C13.7341 4 15 5.26593 15 6.875H18C18 3.60907 15.3909 1 12.125 1V4ZM15 6.875V9.375H18V6.875H15ZM9.25 3.125V1.875H6.25V3.125H9.25ZM7.75 0.375H4.625V3.375H7.75V0.375ZM6.125 1.875V0.625H3.125V1.875H6.125ZM4.625 -0.875H3.375V2.125H4.625V-0.875ZM1.875 0.625V1.875H4.875V0.625H1.875ZM3.375 0.375H0.25V3.375H3.375V0.375ZM-1.25 1.875V3.125H1.75V1.875H-1.25ZM0.25 4.625H5.375V1.625H0.25V4.625ZM3.91072 2.7996C3.83391 3.14523 3.567 3.89054 2.90342 4.60152L5.09658 6.64848C6.183 5.48446 6.66609 4.22977 6.83928 3.4504L3.91072 2.7996ZM5.13889 4.64881C4.8043 4.25846 4.57758 3.92606 4.46664 3.70418L1.78336 5.04582C2.04742 5.57394 2.4457 6.11654 2.86112 6.60119L5.13889 4.64881ZM3.125 2.875H1.6875V5.875H3.125V2.875ZM0.294785 4.93209C0.609366 5.71854 1.14112 6.62264 1.89009 7.44651L4.10991 5.42849C3.60888 4.87736 3.26563 4.28146 3.08022 3.81791L0.294785 4.93209ZM2.01224 5.30864C1.72062 5.5638 1.17654 5.86202 0.370495 6.14989L1.3795 8.97511C2.32346 8.63798 3.27938 8.1862 3.98776 7.56637L2.01224 5.30864ZM-0.532515 8.08106L-0.0950145 9.26856L2.72001 8.23144L2.28251 7.04394L-0.532515 8.08106ZM1.85617 10.148C3.09825 9.66497 4.08753 9.10359 4.88226 8.5256L3.11774 6.0994C2.53747 6.52141 1.77675 6.96003 0.768831 7.35199L1.85617 10.148ZM3.05014 8.47344C3.8876 9.15863 4.92604 9.74399 6.21316 10.173L7.16184 7.32697C6.19896 7.00601 5.4874 6.59137 4.94986 6.15156L3.05014 8.47344ZM8.09502 9.26856L8.53252 8.08106L5.71749 7.04394L5.27999 8.23144L8.09502 9.26856ZM7.62951 6.14989C6.91009 5.89295 6.27284 5.52495 5.76955 5.18942L4.10545 7.68558C4.72716 8.10005 5.58991 8.60705 6.6205 8.97511L7.62951 6.14989ZM6.025 7.47062C7.47635 5.94289 7.94616 4.32217 8.10459 3.3716L5.14541 2.8784C5.05384 3.42783 4.77365 4.43211 3.85 5.40438L6.025 7.47062ZM6.625 4.625H7.75V1.625H6.625V4.625Z" fill="#404040" mask="url(#path-1-inside-1_8996_9005)"/>
</svg>
