<svg width="32" height="32" viewBox="0 0 32 32" fill="none" xmlns="http://www.w3.org/2000/svg">
<path d="M20 20L21.4 21.4L18.8 24H28V26H18.8L21.4 28.6L20 30L15 25L20 20ZM14 15H22V17H14V15ZM14 8H22V10H14V8Z" fill="url(#paint0_linear_4429_41143)"/>
<path d="M13 28H8V24H10V22H8V17H10V15H8V10H10V8H8V4H26V20H28V4C28 2.9 27.1 2 26 2H8C6.9 2 6 2.9 6 4V8H4V10H6V15H4V17H6V22H4V24H6V28C6 29.1 6.9 30 8 30H13V28Z" fill="url(#paint1_linear_4429_41143)"/>
<defs>
<linearGradient id="paint0_linear_4429_41143" x1="14" y1="19" x2="28" y2="19" gradientUnits="userSpaceOnUse">
<stop stop-color="#F12711"/>
<stop offset="1" stop-color="#F5AF19"/>
</linearGradient>
<linearGradient id="paint1_linear_4429_41143" x1="4" y1="16" x2="28" y2="16" gradientUnits="userSpaceOnUse">
<stop stop-color="#F12711"/>
<stop offset="1" stop-color="#F5AF19"/>
</linearGradient>
</defs>
</svg>
