<svg width="300" height="201" viewBox="0 0 300 201" fill="none" xmlns="http://www.w3.org/2000/svg">
<path d="M197.177 148.841C203.858 143.813 268.242 91.0192 199.309 40.9527C130.376 -9.11378 121.476 64.0271 87.0589 80.966C52.6416 97.905 83.767 165.426 122.762 171.802C157.519 177.485 183.015 159.501 197.177 148.841Z" fill="#FF5C40"/>
<path d="M182.046 163.852C181.772 162.77 122.595 200.499 86.9215 154.111M84.5896 151.1C84.5896 151.1 51.6853 101.742 80.3523 82.1914" stroke="black" stroke-width="0.384" stroke-miterlimit="10" stroke-linecap="round"/>
<path d="M166.197 125.443C166.197 125.443 192.644 128.749 199.541 120.769C206.438 112.789 175.715 106.177 172.296 105.835C168.876 105.493 152.264 117.919 152.264 117.919L166.197 125.443Z" fill="#FEF7EF" stroke="black" stroke-width="0.384" stroke-miterlimit="10"/>
<path d="M168.534 114.214C168.534 114.214 178.623 110.668 188.483 111.928C188.483 111.928 190.877 111.45 180.105 110.709C169.332 109.968 169.56 108.885 169.56 108.885L168.534 114.214ZM158.844 117.891C158.844 117.891 162.349 117.078 166.239 118.575C170.13 120.071 171.84 121.866 171.241 124.517C170.643 127.167 164.529 126.612 155.21 125.158L158.844 117.891Z" fill="black"/>
<path d="M138.666 79.7104C138.666 79.7104 141.174 79.8814 142.865 79.1784C144.556 78.4755 142.225 87.9944 139.524 88.7163C136.823 89.4383 128.852 90.7652 126.772 89.1343C126.772 89.1343 128.874 87.2818 128.64 86.3983C128.406 85.5149 138.666 79.7104 138.666 79.7104Z" fill="white" stroke="black" stroke-width="0.384" stroke-miterlimit="10"/>
<path d="M137.012 85.1864C137.012 85.1864 135.129 88.5099 133.344 89.3921C133.344 89.3921 129.328 89.7232 128.321 88.3932C127.314 87.0632 132.966 82.3228 132.966 82.3228" fill="black"/>
<path d="M123.504 80.1286C123.504 80.1286 126.026 85.7572 129.646 86.8117C133.265 87.8662 140.024 86.2034 138.493 78.7748C136.932 71.1978 130.971 71.3221 130.971 71.3221L122.307 76.6516C122.307 76.6516 121.652 78.447 123.504 80.1286Z" fill="white" stroke="black" stroke-width="0.384" stroke-miterlimit="10"/>
<path d="M127.191 77.9098C128.673 79.7908 131.456 75.2551 132.795 75.6255C134.135 75.996 135.189 76.224 136.072 74.7421C136.956 73.2601 137.807 76.4822 137.807 76.4822C137.807 76.4822 138.979 74.742 137.954 73.3171C136.928 71.8921 138.238 72.49 137.925 71.3218C137.612 70.1536 136.144 71.1083 135.845 70.1251C135.545 69.1419 135.075 68.1871 133.821 68.4009C132.567 68.6146 131.855 70.3959 130.757 69.2844C129.66 68.1729 128.435 69.1277 127.679 70.1536C126.924 71.1796 125.385 68.6289 124.046 69.8259C122.706 71.0229 123.267 74.7611 122.089 74.8656C120.911 74.9701 119.543 76.6516 120.911 78.162C120.911 78.162 121.637 78.5753 121.224 79.245C120.811 79.9148 121.082 80.6272 121.523 80.9835C121.965 81.3398 122.264 81.3683 122.022 82.1662C121.78 82.9643 121.951 84.3892 124.658 84.5744C124.658 84.5744 125.713 84.7597 126.369 84.527C126.369 84.527 125.534 83.9857 125.879 83.3205C126.658 81.8195 124.853 81.798 125.195 80.3731C125.537 78.9481 124.758 79.1471 124.435 78.2932C124.112 77.438 125.709 76.0288 127.191 77.9098Z" fill="black"/>
<path d="M122.595 90.2319C122.595 90.2319 121.053 91.1294 118.659 95.2333C116.265 99.3373 112.161 109.811 119.856 114.898L128.15 118.575L168.42 109.512C168.42 109.512 167.736 97.1999 166.795 92.8394C166.795 92.8394 174.547 92.3834 176.77 91.6139C176.77 91.6139 178.252 103.997 182.655 103.484C182.655 103.484 183.372 105.987 183.638 106.671C183.638 106.671 187.324 106.804 188.236 105.569C188.236 105.569 187.761 102.358 187.837 102.111C187.837 102.111 190.179 101.133 188.555 94.5494C186.93 87.9659 186.716 80.784 173.977 78.0053C161.238 75.2265 149.695 75.7823 141.701 78.8175C141.701 78.8175 144.223 83.861 138.11 87.6876C131.997 91.5142 127.191 87.8804 127.191 87.8804L122.595 90.2319Z" fill="#FEF7EF" stroke="black" stroke-width="0.384" stroke-miterlimit="10"/>
<path d="M129.111 103.039C129.111 103.039 146.857 104.483 166.488 92.1204M129.111 106.476C129.111 106.476 150.11 110.803 167.093 95.821" stroke="#FF5C40" stroke-width="0.384" stroke-miterlimit="10" stroke-linecap="round"/>
<path d="M142.086 111.928C142.086 111.928 135.673 110.922 126.012 112.59C126.012 112.59 123.118 116.183 119.293 114.5C119.293 114.5 111.42 119.686 118.545 124.645C125.67 129.604 159.015 125.728 159.015 125.728C159.015 125.728 162.549 119.059 159.015 115.525C155.481 111.991 142.086 111.928 142.086 111.928Z" fill="#FEF7EF" stroke="black" stroke-width="0.384" stroke-miterlimit="10"/>
<path d="M145.249 114.898C131.427 114.128 125.114 115.525 125.114 115.525C125.114 115.525 122.982 114.955 127.171 113.587C130.456 112.514 139.083 113.508 142.627 113.843C143.603 113.936 145.249 114.898 145.249 114.898Z" fill="black"/>
<path d="M218.188 141.969H97.7897C96.8496 141.969 96.0874 141.207 96.0874 140.267V127.711C96.0874 126.771 96.8496 126.009 97.7897 126.009H218.188C219.128 126.009 219.89 126.771 219.89 127.711V140.267C219.89 141.207 219.128 141.969 218.188 141.969Z" fill="white" stroke="black" stroke-width="0.384" stroke-miterlimit="10"/>
<path opacity="0.26" d="M99.3933 129.034H217.496V138.724H99.3933V129.034Z" fill="#FF5C40"/>
<path d="M99.3933 129.034H100.875V138.724H99.3933V129.034Z" fill="#FF5C40"/>
<path d="M158.341 133.563C158.341 134.955 157.824 135.723 156.917 135.723C156.117 135.723 155.575 134.974 155.562 133.619C155.562 132.246 156.154 131.489 156.986 131.489C157.849 131.489 158.341 132.258 158.341 133.563ZM156.117 133.625C156.117 134.69 156.444 135.295 156.948 135.295C157.515 135.295 157.786 134.633 157.786 133.588C157.786 132.58 157.528 131.918 156.955 131.918C156.469 131.918 156.117 132.51 156.117 133.625ZM159.754 131.489C160.321 131.489 160.699 131.931 160.699 132.712C160.699 133.575 160.245 134.003 159.716 134.003C159.206 134.003 158.764 133.588 158.758 132.768C158.758 131.95 159.206 131.489 159.747 131.489H159.754ZM159.722 131.823C159.382 131.823 159.199 132.233 159.199 132.749C159.187 133.266 159.382 133.669 159.729 133.669C160.094 133.669 160.258 133.279 160.258 132.737C160.258 132.239 160.113 131.823 159.729 131.823L159.722 131.823ZM159.678 135.73L162.085 131.483H162.438L160.025 135.73H159.678ZM162.425 133.184C162.992 133.184 163.364 133.625 163.364 134.406C163.364 135.27 162.911 135.698 162.388 135.698C161.877 135.698 161.436 135.289 161.43 134.47C161.43 133.644 161.877 133.184 162.419 133.184H162.425ZM162.394 133.518C162.054 133.518 161.864 133.928 161.864 134.444C161.858 134.967 162.06 135.364 162.4 135.364C162.766 135.364 162.929 134.974 162.929 134.432C162.929 133.934 162.784 133.518 162.4 133.518H162.394ZM158.797 144.653C159.772 144.652 160.561 145.441 160.56 146.416C160.559 147.399 159.772 148.187 158.792 148.188C157.821 148.188 157.028 147.395 157.026 146.422C157.024 145.443 157.814 144.654 158.797 144.653Z" fill="black"/>
<path opacity="0.96" d="M155.395 146.173C156.272 146.182 156.966 146.884 156.959 147.756C156.952 148.628 156.239 149.331 155.373 149.318C154.501 149.306 153.807 148.595 153.817 147.724C153.827 146.866 154.54 146.165 155.395 146.173Z" fill="black"/>
<path opacity="0.86" d="M153.952 149.668C154.742 149.665 155.401 150.304 155.404 151.076C155.407 151.916 154.775 152.564 153.953 152.564C153.161 152.565 152.514 151.918 152.51 151.122C152.507 150.321 153.15 149.672 153.952 149.668Z" fill="black"/>
<path opacity="0.77" d="M155.095 155.433C154.355 155.423 153.777 154.829 153.787 154.088C153.797 153.362 154.397 152.775 155.118 152.786C155.857 152.797 156.447 153.398 156.434 154.127C156.42 154.862 155.826 155.442 155.095 155.433Z" fill="black"/>
<path opacity="0.68" d="M158.322 156.935C157.651 156.933 157.111 156.388 157.111 155.713C157.111 155.044 157.66 154.5 158.332 154.501C159.01 154.502 159.55 155.048 159.546 155.729C159.542 156.403 159 156.937 158.322 156.935Z" fill="black"/>
<path opacity="0.52" d="M162.863 154.616C162.865 155.223 162.377 155.714 161.771 155.714C161.17 155.713 160.676 155.224 160.675 154.628C160.674 154.019 161.159 153.529 161.764 153.526C162.375 153.524 162.861 154.007 162.863 154.616Z" fill="black"/>
<path opacity="0.45" d="M163.348 152.372C162.781 152.369 162.325 151.908 162.326 151.341C162.327 150.78 162.799 150.317 163.362 150.323C163.93 150.33 164.379 150.787 164.379 151.359C164.379 151.912 163.907 152.375 163.348 152.372Z" fill="black"/>
<path opacity="0.32" d="M161.218 147.92C161.222 147.419 161.622 147.024 162.121 147.027C162.624 147.03 163.019 147.435 163.013 147.942C163.008 148.434 162.605 148.827 162.109 148.824C161.991 148.824 161.874 148.8 161.766 148.755C161.657 148.709 161.558 148.642 161.475 148.558C161.392 148.474 161.326 148.374 161.282 148.265C161.238 148.155 161.216 148.038 161.218 147.92Z" fill="black"/>
<path d="M184.032 106.675C184.032 106.675 184.209 107.83 183.981 108.723C183.753 109.616 186.451 112.276 189.281 113.34C189.281 113.34 190.326 113.511 190.079 112.827C189.832 112.143 188.484 111.668 188.141 110.87C187.799 110.072 191.441 111.079 191.441 111.079L193.256 111.857C193.256 111.857 193.21 110.69 192.559 109.977C191.532 108.854 189.738 107.792 188.841 107.298C188.091 106.885 187.931 105.868 187.931 105.868C186.681 106.319 185.374 106.59 184.048 106.674L184.032 106.675Z" fill="white" stroke="black" stroke-width="0.384" stroke-miterlimit="10"/>
<path d="M187.989 110.975C187.989 110.975 187.258 109.93 187.59 109.73C187.923 109.531 190.732 110.728 190.732 110.728C190.732 110.728 188.103 110.205 187.989 110.975ZM171.856 115.525H143.324C142.546 115.525 141.915 114.894 141.915 114.116V98.3522C141.915 97.5741 142.546 96.9434 143.324 96.9434H171.856C172.634 96.9434 173.264 97.5741 173.264 98.3522V114.116C173.264 114.894 172.634 115.525 171.856 115.525Z" fill="black"/>
<path d="M158.12 107.75C158.825 107.458 159.16 106.65 158.868 105.944C158.575 105.239 157.767 104.904 157.062 105.196C156.356 105.489 156.021 106.297 156.314 107.002C156.606 107.708 157.414 108.043 158.12 107.75Z" fill="white"/>
<path d="M126.012 112.59C128.149 109.383 129.09 105.792 129.416 101.517C129.742 97.2425 126.283 96.8008 126.283 96.8008C126.283 96.8008 126.454 92.7824 126.169 92.9961C125.884 93.2098 122.62 93.1955 122.136 92.7823C121.652 92.3691 121.481 92.7823 121.481 92.7823V96.9433C120.326 96.8578 119.215 97.0715 117.932 102.714C116.65 108.357 120.07 111.928 120.07 111.928" stroke="black" stroke-width="0.384" stroke-miterlimit="10" stroke-linecap="round"/>
<path d="M165.741 87.7236L166.61 92.8393C166.61 92.8393 172.787 92.3409 173.731 92.2052C174.674 92.0695 169.303 91.591 168.02 89.8754C166.866 88.3312 165.484 86.0422 165.741 87.7236ZM182.536 103.327C182.536 103.327 183.705 103.185 184.365 103.042C184.814 102.945 183.41 105.393 183.51 106.419L182.536 103.327Z" fill="black"/>
<path d="M187.838 102.111C187.838 102.111 187.272 102.605 186.147 102.776M176.286 89.4194C176.286 89.4194 176.77 90.5309 176.77 91.6139" stroke="black" stroke-width="0.384" stroke-miterlimit="10" stroke-linecap="round"/>
<path d="M129.416 101.304C129.416 101.304 130.373 103.27 129.731 106.776C129.09 110.281 132.211 111.928 132.211 111.928L126.012 112.59C126.012 112.59 129.233 107.759 129.416 101.304Z" fill="black"/>
<path d="M122.373 92.8991C122.373 92.8991 122.507 86.2845 123.675 85.7145C124.843 85.1446 127.633 86.2329 128.29 86.9427C128.947 87.6525 128.776 88.8495 126.924 89.5335C126.924 89.5335 126.775 92.7647 125.176 93.0959C123.295 93.4854 122.373 92.8991 122.373 92.8991Z" fill="white" stroke="black" stroke-width="0.384" stroke-miterlimit="10"/>
<path d="M126.772 89.4193C126.974 88.2778 126.772 87.5574 126.772 87.5574C126.772 87.5574 127.373 87.7949 127.572 87.7308C127.772 87.6666 127.116 88.0585 127.123 88.2794C127.131 88.5002 127.012 89.5 127.012 89.5L126.772 89.4193Z" fill="black"/>
<path d="M121.481 96.9434C121.481 96.9434 123.096 97.2189 123.599 97.0669" stroke="black" stroke-width="0.384" stroke-miterlimit="10" stroke-linecap="round"/>
<path d="M126.279 96.9817C126.279 96.9817 125.234 97.0874 124.93 96.983C124.626 96.8785 126.333 94.3306 126.333 94.3306L126.279 96.9817Z" fill="black"/>
<path d="M129.147 81.7279C129.298 81.939 129.27 82.2178 129.085 82.3508C128.899 82.4838 128.626 82.4204 128.475 82.2093C128.324 81.9981 128.351 81.7193 128.537 81.5863C128.722 81.4533 128.996 81.5167 129.147 81.7279ZM134.633 78.6784C134.784 78.8895 134.756 79.1684 134.571 79.3013C134.385 79.4342 134.112 79.3709 133.961 79.1597C133.81 78.9486 133.838 78.6697 134.023 78.5368C134.209 78.4039 134.482 78.4672 134.633 78.6784Z" fill="black"/>
<path d="M128.989 77.9098C128.989 77.9098 129.125 79.4468 127.301 80.3731M134.723 77.438C134.723 77.438 133.571 78.4653 131.739 77.555M131.18 80.6415C131.18 80.6415 131.672 81.5475 131.648 81.9687C131.593 82.9448 131.959 83.6933 133.194 82.5154M133.68 84.5938C133.68 84.5938 134.003 83.3778 134.915 83.2258" stroke="black" stroke-width="0.384" stroke-miterlimit="10" stroke-linecap="round"/>
</svg>
