<svg width="293" height="196" viewBox="0 0 293 196" fill="none" xmlns="http://www.w3.org/2000/svg">
<path d="M132.503 165.878C132.503 165.878 51.0695 179.742 55.0833 96.9127C59.0971 14.0832 137.986 27.1163 156.3 39.7685C178.561 55.1472 185.193 51.9988 204.352 67.9842C234.273 92.9486 224.899 149.834 132.503 165.878Z" fill="#FF5C40"/>
<path d="M241.869 146.68C241.869 149.126 231.363 151.279 215.445 152.531C206.964 153.199 196.948 153.61 186.166 153.674C185.185 153.68 184.199 153.683 183.206 153.683C181.518 153.683 179.845 153.674 178.193 153.658C170.552 153.581 163.329 153.328 156.804 152.935C137.668 151.782 124.544 149.413 124.544 146.68C124.544 143.866 138.449 141.439 158.504 140.326C161.817 140.142 165.298 139.994 168.911 139.886C170.741 139.832 172.606 139.787 174.499 139.753H174.5C177.402 139.702 180.304 139.676 183.206 139.677C193.982 139.677 204.08 140.023 212.758 140.629C230.171 141.843 241.869 144.099 241.869 146.68Z" fill="black"/>
<path d="M215.719 152.249C215.719 152.249 215.624 152.278 215.445 152.332C206.964 153 196.948 153.411 186.166 153.475C182.718 148.093 178.621 144.586 178.621 144.586L178.193 153.459C170.552 153.382 163.329 153.129 156.804 152.736L156.1 143.083C156.1 143.083 156.981 141.957 158.504 140.128C166.38 130.663 191.422 102.394 200.453 114.062C200.453 114.062 200.468 114.082 200.496 114.12C201.188 115.015 201.853 115.954 202.492 116.925C202.493 116.927 202.495 116.929 202.496 116.932C203.091 117.836 203.664 118.768 204.215 119.722V119.723C208.084 126.421 210.888 134.174 212.758 140.431C214.788 147.222 215.719 152.249 215.719 152.249Z" fill="#FF7F66" stroke="black" stroke-width="0.375" stroke-miterlimit="10"/>
<path d="M200.39 117.932C200.39 117.932 212.708 139.721 211.127 152.401L215.495 152.148C215.495 152.148 210.58 128.318 201.853 116.429L200.39 117.932Z" fill="white"/>
<path d="M195.251 129.153C195.251 129.153 200.677 133.372 209.141 130.2" stroke="black" stroke-width="0.375" stroke-miterlimit="10" stroke-linecap="round"/>
<path d="M197.174 121.551C197.174 121.551 191.878 137.949 156.363 146.68L156.1 139.677L197.174 121.551Z" fill="black"/>
<path d="M93.2802 140.49C93.2802 140.49 92.8927 141.422 89.1666 142.685C84.8941 144.133 82.1201 144.143 82.2999 144.58C82.4797 145.016 83.2586 145.344 83.2586 145.344C83.2586 145.344 82.0238 145.751 81.5676 145.78C81.1114 145.809 81.8422 147.292 83.2015 146.9C83.2015 146.9 81.8146 147.465 81.5603 147.498C81.3061 147.531 80.7281 148.036 81.334 148.448C81.9398 148.859 82.7643 148.598 82.7643 148.598C82.7643 148.598 81.7642 149.158 82.3543 149.449C82.9444 149.74 83.9709 149.851 90.8106 147.514C90.8106 147.514 92.5669 146.64 92.63 147.123C92.6931 147.605 91.8807 148.662 90.7497 149.393C89.6186 150.124 90.3465 150.764 92.1318 150.347C93.9172 149.929 97.0703 147.309 97.7077 144.68C98.3451 142.051 93.2802 140.49 93.2802 140.49Z" fill="white" stroke="black" stroke-width="0.375" stroke-miterlimit="10"/>
<path d="M93.8947 142.513C93.8947 142.513 94.6236 144.547 95.4727 145.294C96.3219 146.042 95.6262 148.071 95.6262 148.071C95.6262 148.071 97.6404 145.915 97.7515 144.015C97.8627 142.114 93.8947 142.513 93.8947 142.513Z" fill="black"/>
<path d="M82.7643 148.598C82.7643 148.598 86.9338 146.948 88.1776 146.141M83.2014 146.9C83.2014 146.9 85.608 145.956 87.5084 144.895M83.2585 145.344C83.2585 145.344 85.5695 144.842 86.7668 144.149" stroke="black" stroke-width="0.375" stroke-miterlimit="10" stroke-linecap="round"/>
<path d="M94.2989 137.613L92.3245 140.57C92.3245 140.57 96.4997 146.463 99.1121 145.569L102.513 142.027L94.2989 137.613Z" fill="#FF7F66" stroke="black" stroke-width="0.375" stroke-miterlimit="10"/>
<path d="M111.527 68.7335C111.527 68.7335 113.122 73.7635 115.18 75.783C115.18 75.783 114.531 77.8854 115.879 78.1778C116.676 78.3507 117.9 77.5882 117.9 77.5882C117.9 77.5882 120.638 80.54 124.227 78.8212C125.597 78.165 126.151 77.6097 126.336 77.3848C126.373 77.3399 126.444 77.3515 126.465 77.4055L129.319 84.6094C129.319 84.6094 131.493 90.1337 133.274 88.6047C135.475 86.7145 140.082 76.815 141.453 74.2488L129.615 66.6324C129.615 66.6324 132.124 63.2596 130.29 60.7699C128.457 58.2802 125.797 58.8002 125.282 60.1007C124.767 61.4011 123.489 56.8749 119.31 58.903C115.13 60.9311 111.527 68.7335 111.527 68.7335ZM120.061 75.3183C120.061 75.3183 119.077 76.8403 117.9 77.5882L120.061 75.3183Z" fill="white"/>
<path d="M117.9 77.5882C117.9 77.5882 116.676 78.3507 115.879 78.1778C114.531 77.8854 115.18 75.783 115.18 75.783C113.122 73.7635 111.527 68.7335 111.527 68.7335C111.527 68.7335 115.13 60.9311 119.31 58.903C123.489 56.8749 124.767 61.4011 125.282 60.1007C125.797 58.8002 128.457 58.2802 130.29 60.7699C132.124 63.2596 129.615 66.6324 129.615 66.6324L141.453 74.2488C140.082 76.815 135.475 86.7145 133.274 88.6047C131.493 90.1337 129.319 84.6094 129.319 84.6094L126.465 77.4055C126.444 77.3515 126.373 77.3399 126.336 77.3848C126.151 77.6097 125.597 78.165 124.227 78.8212C120.638 80.54 117.9 77.5882 117.9 77.5882ZM117.9 77.5882C119.077 76.8403 120.061 75.3183 120.061 75.3183" stroke="black" stroke-width="0.375" stroke-miterlimit="10"/>
<path d="M119.104 61.4121C119.104 61.4121 116.275 70.3499 106.954 69.0447C102.066 68.3603 105.612 56.9261 112.131 54.0033C113.712 53.2946 115.534 53.5366 116.955 54.5271C117.732 55.0683 118.956 55.1787 120.543 52.9573C122.247 50.5734 124.393 52.5238 125.943 55.4238C127.481 58.3018 127.638 59.0409 127.638 59.0409C127.638 59.0409 124.438 58.7301 125.459 63.2648C126.201 66.5583 125.169 67.3109 124.222 66.6925C123.275 66.0741 120.114 59.2411 119.104 61.4121Z" fill="black"/>
<path d="M115.18 75.7828C115.18 75.7828 115.771 74.3018 115.055 72.6685L115.18 75.7828Z" fill="white"/>
<path d="M115.18 75.7828C115.18 75.7828 115.771 74.3018 115.055 72.6685" stroke="black" stroke-width="0.375" stroke-miterlimit="10"/>
<path d="M127.79 63.2134C127.79 63.2134 128.165 61.879 127.991 61.0942M126.854 60.8095C126.857 60.7298 128.404 60.5845 129.146 62.2111" stroke="black" stroke-width="0.375" stroke-miterlimit="10" stroke-linecap="round"/>
<path d="M126.205 77.218C126.205 77.218 127.19 76.3733 128.262 75.0318C128.476 74.7633 128.909 74.942 128.874 75.284C128.703 76.9129 128.435 79.8247 128.398 82.2827L126.205 77.218Z" fill="black"/>
<path d="M114.594 75.6775C115.561 74.8894 115.669 73.4217 114.836 72.3994C114.003 71.377 112.544 71.1872 111.576 71.9753C110.609 72.7634 110.501 74.2311 111.334 75.2535C112.167 76.2758 113.626 76.4657 114.594 75.6775Z" stroke="black" stroke-width="0.375" stroke-miterlimit="10"/>
<path d="M120.526 72.3138C121.493 71.5256 121.602 70.0579 120.768 69.0356C119.935 68.0133 118.476 67.8234 117.509 68.6115C116.542 69.3997 116.433 70.8674 117.266 71.8897C118.099 72.912 119.559 73.1019 120.526 72.3138Z" stroke="black" stroke-width="0.375" stroke-miterlimit="10"/>
<path d="M119.548 70.7442C119.45 70.3689 119.152 70.1215 118.882 70.1916C118.612 70.2616 118.471 70.6226 118.568 70.9979C118.666 71.3731 118.964 71.6206 119.234 71.5505C119.505 71.4804 119.645 71.1194 119.548 70.7442Z" fill="#191919"/>
<path d="M111.082 70.6479C111.082 70.6479 112.211 70.6705 112.724 69.3326M124.084 75.2061C124.084 75.2061 121.73 75.3356 120.657 78.3999M116.208 66.6928C116.208 66.6928 117.09 67.3981 118.312 66.6487" stroke="black" stroke-width="0.375" stroke-miterlimit="10" stroke-linecap="round"/>
<path d="M140.726 72.4404C140.726 72.4404 160.194 70.754 180.174 87.521C200.155 104.288 202.661 115 202.661 115C202.661 115 183.81 142.491 151.906 143.353L141.38 125.717C141.38 125.717 134.038 123.826 127.752 117.932C127.752 117.932 112.206 136.895 102.165 143.821C102.165 143.821 98.2946 143.775 93.4271 137.512C93.4271 137.512 110.304 113.131 115.774 101.192C121.244 89.2519 123.567 83.796 125.714 83.331C127.861 82.8661 132.722 85.3274 132.722 85.3274L140.726 72.4404Z" fill="#FEF7EF" stroke="black" stroke-width="0.375" stroke-miterlimit="10"/>
<path d="M125.824 105.734C125.824 105.734 123.533 103.458 122.969 101.262C122.406 99.0665 120.068 93.1471 115.881 95.8415C115.881 95.8415 115.531 95.8976 115.869 96.3747C116.208 96.8517 117.4 97.2887 117.162 97.6572C116.924 98.0257 115.768 99.0355 114.989 98.2379C114.21 97.4403 114.174 96.9339 113.703 97.1591C113.231 97.3844 111.984 98.0893 112.256 98.9942C112.528 99.899 114.241 103.458 115.341 104.366C116.441 105.275 121.623 108.553 122.172 109.463C122.72 110.372 125.824 105.734 125.824 105.734Z" fill="white" stroke="black" stroke-width="0.375" stroke-miterlimit="10"/>
<path d="M125.861 109.532L128.319 112.614L125.237 109.92L122.951 111.971L120.65 109.202C120.65 109.202 125.325 105.676 125.744 104.303L129.37 106.185C128.451 107.606 125.861 109.532 125.861 109.532Z" fill="#FF7F66" stroke="black" stroke-width="0.375" stroke-miterlimit="10"/>
<path d="M129.37 106.185C129.498 105.989 129.592 105.803 129.644 105.633C129.644 105.633 139.167 108.803 145.856 109.538C145.856 109.538 135.699 91.4758 141.666 72.4915M122.951 111.971L122.876 112.039C124.596 114.635 127.752 117.932 127.752 117.932" stroke="black" stroke-width="0.375" stroke-miterlimit="10" stroke-linecap="round"/>
<path d="M145.856 109.537C145.856 109.537 149.924 109.45 154.075 112.587C154.075 112.587 156.082 113.858 152.585 109.163C149.088 104.469 145.474 107.743 142.298 100.839C142.298 100.839 143.92 105.758 145.856 109.537Z" fill="black"/>
<path d="M141.38 125.717C141.38 125.717 155.049 131.749 160.165 120.223C165.281 108.698 165.468 93.9533 165.468 93.9533C165.468 93.9533 165.695 92.1756 165.906 97.3C166.116 102.424 165.777 110.581 166.32 112.886C167.575 118.211 161.59 132.518 141.38 125.717Z" fill="black"/>
<path d="M125.604 97.6055L131.212 106.132M165.424 141.333L154.549 126.201M132.722 85.3274C132.722 85.3274 138.257 99.4231 144.739 109.396" stroke="black" stroke-width="0.375" stroke-miterlimit="10" stroke-linecap="round"/>
<path d="M173.075 114.823C173.075 114.823 182.999 118.247 188.719 113.451C188.719 113.451 188.96 112.586 187.774 112.743C186.588 112.901 184.9 114.817 181.388 114.042C177.876 113.266 175.799 114.191 173.075 114.823ZM116.657 96.7167L113.803 93.3094C113.737 93.2304 113.644 93.1794 113.541 93.1664C113.439 93.1534 113.336 93.1794 113.252 93.2392L112.138 94.0354C112.092 94.0677 112.054 94.1091 112.025 94.1568C111.996 94.2044 111.978 94.2575 111.97 94.3127C111.963 94.3679 111.966 94.4241 111.981 94.4777C111.996 94.5314 112.022 94.5814 112.057 94.6247L115.265 98.5959C115.265 98.5959 117.632 98.3882 116.657 96.7167Z" fill="black"/>
<path d="M112.138 91.6726L113.817 93.9932L112.687 94.7804L111.025 92.6202L112.138 91.6726Z" fill="black"/>
<path d="M111.979 91.7794C113.35 90.6612 112.982 87.9407 111.156 85.703C109.331 83.4652 106.74 82.5576 105.369 83.6758C103.998 84.794 104.367 87.5145 106.192 89.7522C108.018 91.99 110.609 92.8976 111.979 91.7794Z" stroke="black" stroke-width="0.375" stroke-miterlimit="10"/>
<path d="M111.66 91.3885C112.815 90.4465 112.414 88.0439 110.765 86.0222C109.116 84.0005 106.843 83.1251 105.688 84.0671C104.534 85.0091 104.934 87.4117 106.583 89.4334C108.233 91.4551 110.506 92.3304 111.66 91.3885Z" stroke="black" stroke-width="0.375" stroke-miterlimit="10"/>
<path d="M105.517 84.2295C105.517 84.2295 110.277 84.3816 111.478 89.7992C111.561 90.1729 111.575 90.5602 111.502 90.9358C111.456 91.171 111.374 91.4233 111.228 91.639" stroke="black" stroke-width="0.375" stroke-miterlimit="10"/>
<path d="M105.888 83.3313C105.888 83.3313 103.684 83.8727 103.934 86.5777C104.183 89.2828 106.483 91.7329 108.496 92.4819C108.496 92.4819 111.025 93.3163 112.298 91.4503" stroke="black" stroke-width="0.375" stroke-miterlimit="10"/>
<path d="M120.505 68.7582L125.332 64.4102" stroke="black" stroke-width="0.375" stroke-miterlimit="10" stroke-linecap="round"/>
<path d="M138.671 71.7301L132.722 85.3273C132.722 85.3273 136.326 82.4023 139.903 83.9583L141.791 71.6738L138.671 71.7301ZM126.703 81.0241L132.722 85.3273C132.722 85.3273 129.506 86.139 128.83 89.3746L124.021 83.5216L126.703 81.0241Z" fill="black"/>
<path d="M141.38 125.717C141.38 125.717 156.752 133.396 161.685 116.313C166.619 99.2306 165.468 93.9531 165.468 93.9531" stroke="black" stroke-width="0.375" stroke-miterlimit="10" stroke-linecap="round"/>
<path d="M140.407 47.0598L140.504 46.7213C140.678 46.0231 141.188 45.3487 142.098 44.8377C142.921 44.366 143.421 43.9902 143.633 43.4211C143.873 42.7758 143.628 42.1952 142.836 41.8864C142.38 41.717 141.818 41.6801 141.412 41.8029L141.405 40.8934C141.948 40.7495 142.732 40.8106 143.402 41.0601C144.857 41.6014 145.181 42.7442 144.823 43.7057C144.503 44.5658 143.787 45.0195 142.916 45.5022C142.115 45.9528 141.701 46.4466 141.499 47.1061L141.394 47.4269L140.407 47.0598ZM139.907 49.7972C139.477 49.6371 139.3 49.1827 139.465 48.7398C139.639 48.2722 140.078 48.0607 140.521 48.2255C140.963 48.3901 141.145 48.8322 140.971 49.2999C140.806 49.7428 140.388 49.976 139.92 49.8018L139.907 49.7972ZM119.699 43.7021L119.703 43.3499C119.683 42.6307 119.994 41.8445 120.735 41.1088C121.402 40.4342 121.783 39.9385 121.835 39.3336C121.894 38.6476 121.503 38.1534 120.657 38.0677C120.173 38.0262 119.621 38.1409 119.263 38.3678L119.013 37.4932C119.498 37.2094 120.269 37.0588 120.982 37.1199C122.529 37.2526 123.146 38.2674 123.059 39.2896C122.98 40.2039 122.412 40.8324 121.701 41.5304C121.05 42.1788 120.783 42.7654 120.764 43.4549L120.749 43.7922L119.699 43.7021ZM119.95 46.4734C119.492 46.4342 119.201 46.0435 119.241 45.5727C119.284 45.0756 119.65 44.7546 120.121 44.7949C120.591 44.8353 120.884 45.2128 120.842 45.71C120.801 46.1809 120.461 46.5173 119.963 46.4746L119.95 46.4734ZM98.277 53.8647L98.0063 53.6393C97.4373 53.1991 97.0256 52.4604 96.9247 51.4216C96.8248 50.478 96.6823 49.8692 96.2468 49.4461C95.753 48.9662 95.1229 48.9563 94.5211 49.5569C94.1826 49.9052 93.9221 50.4053 93.871 50.8261L93.0358 50.4659C93.123 49.9109 93.4946 49.2184 93.9931 48.7053C95.0749 47.5919 96.2512 47.7564 96.987 48.4713C97.6452 49.1107 97.772 49.9487 97.8628 50.9402C97.9522 51.8553 98.2372 52.4333 98.7594 52.8839L99.0106 53.1096L98.277 53.8647ZM100.581 55.4251C100.261 55.7546 99.774 55.7328 99.4351 55.4035C99.0772 55.0558 99.0605 54.5691 99.3898 54.2302C99.7187 53.8916 100.196 53.9037 100.554 54.2514C100.893 54.5807 100.938 55.0573 100.59 55.4156L100.581 55.4251Z" fill="black"/>
<path d="M99.7529 153.848H112.941M51.1311 148.071H54.6488M62.1856 153.508H73.7909M70.5616 148.598H74.0792M99.7529 148.843H103.271M54.6488 123.392C54.6488 123.392 36.5251 39.2237 103.08 29.25" stroke="black" stroke-width="0.375" stroke-miterlimit="10" stroke-linecap="round"/>
</svg>
