<svg width="20" height="20" viewBox="0 0 20 20" fill="none" xmlns="http://www.w3.org/2000/svg">
<mask id="path-1-inside-1_8996_2115" fill="white">
<path d="M17.9419 12.0581L16.25 10.3662V8.125C16.2481 6.57615 15.6719 5.08303 14.6329 3.93436C13.5939 2.7857 12.1659 2.06308 10.625 1.90625V0.625H9.375V1.90625C7.83411 2.06308 6.4061 2.7857 5.36711 3.93436C4.32811 5.08303 3.75194 6.57615 3.75 8.125V10.3662L2.05812 12.0581C1.94091 12.1753 1.87504 12.3343 1.875 12.5V14.375C1.875 14.5408 1.94085 14.6997 2.05806 14.8169C2.17527 14.9342 2.33424 15 2.5 15H6.875V15.4856C6.8614 16.2785 7.14088 17.0485 7.65986 17.6482C8.17885 18.2478 8.90085 18.6348 9.6875 18.735C10.122 18.7781 10.5607 18.7298 10.9754 18.5931C11.3901 18.4565 11.7716 18.2346 12.0953 17.9416C12.4191 17.6487 12.678 17.2913 12.8553 16.8923C13.0326 16.4933 13.1245 16.0616 13.125 15.625V15H17.5C17.6658 15 17.8247 14.9342 17.9419 14.8169C18.0592 14.6997 18.125 14.5408 18.125 14.375V12.5C18.125 12.3343 18.0591 12.1753 17.9419 12.0581ZM11.875 15.625C11.875 16.1223 11.6775 16.5992 11.3258 16.9508C10.9742 17.3025 10.4973 17.5 10 17.5C9.50272 17.5 9.02581 17.3025 8.67417 16.9508C8.32254 16.5992 8.125 16.1223 8.125 15.625V15H11.875V15.625ZM16.875 13.75H3.125V12.7587L4.81687 11.0669C4.93409 10.9497 4.99996 10.7907 5 10.625V8.125C5 6.79892 5.52678 5.52715 6.46447 4.58947C7.40215 3.65178 8.67392 3.125 10 3.125C11.3261 3.125 12.5979 3.65178 13.5355 4.58947C14.4732 5.52715 15 6.79892 15 8.125V10.625C15 10.7907 15.0659 10.9497 15.1831 11.0669L16.875 12.7587V13.75Z"/>
</mask>
<path d="M17.9419 12.0581L16.25 10.3662V8.125C16.2481 6.57615 15.6719 5.08303 14.6329 3.93436C13.5939 2.7857 12.1659 2.06308 10.625 1.90625V0.625H9.375V1.90625C7.83411 2.06308 6.4061 2.7857 5.36711 3.93436C4.32811 5.08303 3.75194 6.57615 3.75 8.125V10.3662L2.05812 12.0581C1.94091 12.1753 1.87504 12.3343 1.875 12.5V14.375C1.875 14.5408 1.94085 14.6997 2.05806 14.8169C2.17527 14.9342 2.33424 15 2.5 15H6.875V15.4856C6.8614 16.2785 7.14088 17.0485 7.65986 17.6482C8.17885 18.2478 8.90085 18.6348 9.6875 18.735C10.122 18.7781 10.5607 18.7298 10.9754 18.5931C11.3901 18.4565 11.7716 18.2346 12.0953 17.9416C12.4191 17.6487 12.678 17.2913 12.8553 16.8923C13.0326 16.4933 13.1245 16.0616 13.125 15.625V15H17.5C17.6658 15 17.8247 14.9342 17.9419 14.8169C18.0592 14.6997 18.125 14.5408 18.125 14.375V12.5C18.125 12.3343 18.0591 12.1753 17.9419 12.0581ZM11.875 15.625C11.875 16.1223 11.6775 16.5992 11.3258 16.9508C10.9742 17.3025 10.4973 17.5 10 17.5C9.50272 17.5 9.02581 17.3025 8.67417 16.9508C8.32254 16.5992 8.125 16.1223 8.125 15.625V15H11.875V15.625ZM16.875 13.75H3.125V12.7587L4.81687 11.0669C4.93409 10.9497 4.99996 10.7907 5 10.625V8.125C5 6.79892 5.52678 5.52715 6.46447 4.58947C7.40215 3.65178 8.67392 3.125 10 3.125C11.3261 3.125 12.5979 3.65178 13.5355 4.58947C14.4732 5.52715 15 6.79892 15 8.125V10.625C15 10.7907 15.0659 10.9497 15.1831 11.0669L16.875 12.7587V13.75Z" fill="#404040"/>
<path d="M17.9419 12.0581L16.8812 13.1188L16.8814 13.1189L17.9419 12.0581ZM16.25 10.3662H14.75V10.9876L15.1893 11.4269L16.25 10.3662ZM16.25 8.125H17.75L17.75 8.12312L16.25 8.125ZM10.625 1.90625H9.125V3.26133L10.4731 3.39854L10.625 1.90625ZM10.625 0.625H12.125V-0.875H10.625V0.625ZM9.375 0.625V-0.875H7.875V0.625H9.375ZM9.375 1.90625L9.52689 3.39854L10.875 3.26133V1.90625H9.375ZM3.75 8.125L2.25 8.12312V8.125H3.75ZM3.75 10.3662L4.81066 11.4269L5.25 10.9876V10.3662H3.75ZM2.05812 12.0581L3.11862 13.1189L3.11878 13.1188L2.05812 12.0581ZM1.875 12.5L0.375 12.4997V12.5H1.875ZM1.875 14.375H0.375H1.875ZM6.875 15H8.375V13.5H6.875V15ZM6.875 15.4856L8.37478 15.5113L8.375 15.4985V15.4856H6.875ZM9.6875 18.735L9.49789 20.223L9.51865 20.2256L9.53948 20.2277L9.6875 18.735ZM13.125 15.625L14.625 15.6267V15.625H13.125ZM13.125 15V13.5H11.625V15H13.125ZM18.125 12.5H19.625V12.4997L18.125 12.5ZM11.875 15.625H13.375H11.875ZM8.125 15V13.5H6.625V15H8.125ZM11.875 15H13.375V13.5H11.875V15ZM16.875 13.75V15.25H18.375V13.75H16.875ZM3.125 13.75H1.625V15.25H3.125V13.75ZM3.125 12.7587L2.06434 11.6981L1.625 12.1374V12.7587H3.125ZM4.81687 11.0669L3.75637 10.0061L3.75621 10.0062L4.81687 11.0669ZM5 10.625L6.5 10.6253V10.625H5ZM10 3.125V1.625V3.125ZM15 8.125H16.5H15ZM15 10.625H13.5V10.6253L15 10.625ZM15.1831 11.0669L16.2438 10.0062L16.2436 10.0061L15.1831 11.0669ZM16.875 12.7587H18.375V12.1374L17.9357 11.6981L16.875 12.7587ZM19.0025 10.9975L17.3107 9.30559L15.1893 11.4269L16.8812 13.1188L19.0025 10.9975ZM17.75 10.3662V8.125H14.75V10.3662H17.75ZM17.75 8.12312C17.7476 6.20307 17.0333 4.3521 15.7453 2.92814L13.5205 4.94059C14.3104 5.81396 14.7485 6.94923 14.75 8.12688L17.75 8.12312ZM15.7453 2.92814C14.4573 1.50418 12.6871 0.60838 10.7769 0.413959L10.4731 3.39854C11.6447 3.51779 12.7305 4.06722 13.5205 4.94059L15.7453 2.92814ZM12.125 1.90625V0.625H9.125V1.90625H12.125ZM10.625 -0.875H9.375V2.125H10.625V-0.875ZM7.875 0.625V1.90625H10.875V0.625H7.875ZM9.22311 0.413959C7.31293 0.60838 5.54267 1.50418 4.25467 2.92814L6.47954 4.94059C7.26953 4.06722 8.35529 3.51779 9.52689 3.39854L9.22311 0.413959ZM4.25467 2.92814C2.96666 4.3521 2.2524 6.20307 2.25 8.12312L5.25 8.12688C5.25147 6.94923 5.68956 5.81396 6.47954 4.94059L4.25467 2.92814ZM2.25 8.125V10.3662H5.25V8.125H2.25ZM2.68934 9.30559L0.997465 10.9975L3.11878 13.1188L4.81066 11.4269L2.68934 9.30559ZM0.997625 10.9973C0.599082 11.3957 0.37512 11.9361 0.375 12.4997L3.375 12.5003C3.37495 12.7324 3.28273 12.9549 3.11862 13.1189L0.997625 10.9973ZM0.375 12.5V14.375H3.375V12.5H0.375ZM0.375 14.375C0.375 14.9386 0.598882 15.4791 0.997398 15.8776L3.11872 13.7563C3.28281 13.9204 3.375 14.1429 3.375 14.375H0.375ZM0.997398 15.8776C1.39592 16.2761 1.93642 16.5 2.5 16.5V13.5C2.73206 13.5 2.95462 13.5922 3.11872 13.7563L0.997398 15.8776ZM2.5 16.5H6.875V13.5H2.5V16.5ZM5.375 15V15.4856H8.375V15H5.375ZM5.37522 15.4599C5.35529 16.6222 5.76495 17.7509 6.5257 18.6298L8.79402 16.6665C8.5168 16.3462 8.36752 15.9349 8.37478 15.5113L5.37522 15.4599ZM6.5257 18.6298C7.28646 19.5087 8.34479 20.076 9.49789 20.223L9.87711 17.247C9.45691 17.1935 9.07125 16.9868 8.79402 16.6665L6.5257 18.6298ZM9.53948 20.2277C10.1823 20.2914 10.8313 20.2199 11.4448 20.0178L10.506 17.1685C10.2901 17.2396 10.0617 17.2647 9.83552 17.2423L9.53948 20.2277ZM11.4448 20.0178C12.0583 19.8156 12.6227 19.4873 13.1017 19.054L11.089 16.8293C10.9204 16.9818 10.7218 17.0973 10.506 17.1685L11.4448 20.0178ZM13.1017 19.054C13.5807 18.6206 13.9637 18.0918 14.226 17.5015L11.4846 16.283C11.3923 16.4907 11.2575 16.6768 11.089 16.8293L13.1017 19.054ZM14.226 17.5015C14.4884 16.9113 14.6243 16.2726 14.625 15.6267L11.625 15.6233C11.6247 15.8506 11.5769 16.0753 11.4846 16.283L14.226 17.5015ZM14.625 15.625V15H11.625V15.625H14.625ZM13.125 16.5H17.5V13.5H13.125V16.5ZM17.5 16.5C18.0636 16.5 18.6041 16.2761 19.0026 15.8776L16.8813 13.7563C17.0454 13.5922 17.2679 13.5 17.5 13.5V16.5ZM19.0026 15.8776C19.4011 15.4791 19.625 14.9386 19.625 14.375H16.625C16.625 14.1429 16.7172 13.9204 16.8813 13.7563L19.0026 15.8776ZM19.625 14.375V12.5H16.625V14.375H19.625ZM19.625 12.4997C19.6249 11.9361 19.4009 11.3957 19.0024 10.9973L16.8814 13.1189C16.7173 12.9549 16.625 12.7324 16.625 12.5003L19.625 12.4997ZM10.375 15.625C10.375 15.7245 10.3355 15.8198 10.2652 15.8902L12.3865 18.0115C13.0194 17.3785 13.375 16.5201 13.375 15.625L10.375 15.625ZM10.2652 15.8902C10.1948 15.9605 10.0995 16 10 16V19C10.8951 19 11.7535 18.6444 12.3865 18.0115L10.2652 15.8902ZM10 16C9.90054 16 9.80516 15.9605 9.73483 15.8902L7.61351 18.0115C8.24645 18.6444 9.1049 19 10 19V16ZM9.73483 15.8902C9.66451 15.8198 9.625 15.7245 9.625 15.625H6.625C6.625 16.5201 6.98058 17.3785 7.61351 18.0115L9.73483 15.8902ZM9.625 15.625V15H6.625V15.625H9.625ZM8.125 16.5H11.875V13.5H8.125V16.5ZM10.375 15V15.625H13.375V15H10.375ZM16.875 12.25H3.125V15.25H16.875V12.25ZM4.625 13.75V12.7587H1.625V13.75H4.625ZM4.18566 13.8194L5.87753 12.1275L3.75621 10.0062L2.06434 11.6981L4.18566 13.8194ZM5.87737 12.1277C6.27592 11.7293 6.49988 11.1889 6.5 10.6253L3.5 10.6247C3.50005 10.3926 3.59227 10.1701 3.75637 10.0061L5.87737 12.1277ZM6.5 10.625V8.125H3.5V10.625H6.5ZM6.5 8.125C6.5 7.19674 6.86875 6.3065 7.52513 5.65013L5.40381 3.52881C4.18482 4.74779 3.5 6.40109 3.5 8.125L6.5 8.125ZM7.52513 5.65013C8.1815 4.99375 9.07174 4.625 10 4.625V1.625C8.27609 1.625 6.62279 2.30982 5.40381 3.52881L7.52513 5.65013ZM10 4.625C10.9283 4.625 11.8185 4.99375 12.4749 5.65013L14.5962 3.52881C13.3772 2.30982 11.7239 1.625 10 1.625V4.625ZM12.4749 5.65013C13.1313 6.3065 13.5 7.19674 13.5 8.125L16.5 8.125C16.5 6.40109 15.8152 4.74779 14.5962 3.52881L12.4749 5.65013ZM13.5 8.125V10.625H16.5V8.125H13.5ZM13.5 10.6253C13.5001 11.1889 13.7241 11.7293 14.1226 12.1277L16.2436 10.0061C16.4077 10.1701 16.5 10.3926 16.5 10.6247L13.5 10.6253ZM14.1225 12.1275L15.8143 13.8194L17.9357 11.6981L16.2438 10.0062L14.1225 12.1275ZM15.375 12.7587V13.75H18.375V12.7587H15.375Z" fill="#404040" mask="url(#path-1-inside-1_8996_2115)"/>
</svg>
