<svg width="32" height="32" viewBox="0 0 32 32" fill="none" xmlns="http://www.w3.org/2000/svg">
<path fill-rule="evenodd" clip-rule="evenodd" d="M26.4961 7.50403V29.004C26.4961 29.834 25.8271 30.504 24.9961 30.504H6.99609C6.16609 30.504 5.49609 29.834 5.49609 29.004V3.00403C5.49609 2.17303 6.16609 1.50403 6.99609 1.50403H20.4961L26.4961 7.50403Z" fill="#E9EDED" stroke="#F05542" stroke-linecap="round" stroke-linejoin="round"/>
<path d="M5 24.004V29.004C5 30.112 5.892 31.004 7 31.004H25C26.108 31.004 27 30.112 27 29.004V24.004H5Z" fill="#F05542"/>
<path d="M26.4961 7.50403H21.9961C21.1661 7.50403 20.4961 6.83403 20.4961 6.00403V1.50403" fill="#4BBFEB"/>
<path d="M26.4961 7.50403H21.9961C21.1661 7.50403 20.4961 6.83403 20.4961 6.00403V1.50403" stroke="#4BBFEB" stroke-linecap="round" stroke-linejoin="round"/>
<path fill-rule="evenodd" clip-rule="evenodd" d="M7.50007 3.00004C7.36746 3.00004 7.24029 3.05272 7.14652 3.14649C7.05275 3.24026 7.00007 3.36743 7.00007 3.50004V7.50004C7.00007 7.63265 7.05275 7.75983 7.14652 7.85359C7.24029 7.94736 7.36746 8.00004 7.50007 8.00004H12.5001C12.6327 8.00004 12.7599 7.94736 12.8536 7.85359C12.9474 7.75983 13.0001 7.63265 13.0001 7.50004V3.50004C13.0001 3.36743 12.9474 3.24026 12.8536 3.14649C12.7599 3.05272 12.6327 3.00004 12.5001 3.00004H7.50007ZM14.4571 3.00004C14.3245 3.00667 14.1999 3.06571 14.1108 3.16416C14.0218 3.26262 13.9754 3.39243 13.9821 3.52504C13.9887 3.65765 14.0477 3.78219 14.1462 3.87127C14.2447 3.96035 14.3745 4.00667 14.5071 4.00004H18.5001C18.6327 4.00004 18.7599 3.94736 18.8536 3.85359C18.9474 3.75983 19.0001 3.63265 19.0001 3.50004C19.0001 3.36743 18.9474 3.24026 18.8536 3.14649C18.7599 3.05272 18.6327 3.00004 18.5001 3.00004H14.5081C14.4911 2.99917 14.4741 2.99917 14.4571 3.00004ZM8.00007 4.00004H12.0001V7.00004H8.00007V4.00004ZM14.4571 5.00004C14.3245 5.00667 14.1999 5.06571 14.1108 5.16416C14.0218 5.26262 13.9754 5.39243 13.9821 5.52504C13.9887 5.65765 14.0477 5.78219 14.1462 5.87127C14.2447 5.96035 14.3745 6.00667 14.5071 6.00004H18.5001C18.6327 6.00004 18.7599 5.94736 18.8536 5.85359C18.9474 5.75983 19.0001 5.63265 19.0001 5.50004C19.0001 5.36743 18.9474 5.24026 18.8536 5.14649C18.7599 5.05272 18.6327 5.00004 18.5001 5.00004H14.5081C14.4911 4.99917 14.4741 4.99917 14.4571 5.00004ZM14.4571 7.00004C14.3245 7.00667 14.1999 7.06571 14.1108 7.16417C14.0218 7.26262 13.9754 7.39243 13.9821 7.52504C13.9887 7.65765 14.0477 7.78219 14.1462 7.87127C14.2447 7.96035 14.3745 8.00667 14.5071 8.00004H18.5001C18.6327 8.00004 18.7599 7.94736 18.8536 7.85359C18.9474 7.75983 19.0001 7.63265 19.0001 7.50004C19.0001 7.36743 18.9474 7.24026 18.8536 7.14649C18.7599 7.05272 18.6327 7.00004 18.5001 7.00004H14.5081C14.4911 6.99917 14.4741 6.99917 14.4571 7.00004ZM7.45707 9.00004C7.32446 9.00667 7.19992 9.06571 7.11084 9.16417C7.02176 9.26262 6.97544 9.39243 6.98207 9.52504C6.9887 9.65765 7.04774 9.78219 7.1462 9.87127C7.24465 9.96035 7.37446 10.0067 7.50707 10H11.5071C11.6397 10 11.7669 9.94736 11.8606 9.85359C11.9544 9.75983 12.0071 9.63265 12.0071 9.50004C12.0071 9.36743 11.9544 9.24025 11.8606 9.14649C11.7669 9.05272 11.6397 9.00004 11.5071 9.00004H7.50707C7.49041 8.99921 7.47373 8.99921 7.45707 9.00004ZM13.4571 9.00004C13.3245 9.00667 13.1999 9.06571 13.1108 9.16417C13.0218 9.26262 12.9754 9.39243 12.9821 9.52504C12.9887 9.65765 13.0477 9.78219 13.1462 9.87127C13.2447 9.96035 13.3745 10.0067 13.5071 10H14.5071C14.6397 10 14.7669 9.94736 14.8606 9.85359C14.9544 9.75983 15.0071 9.63265 15.0071 9.50004C15.0071 9.36743 14.9544 9.24025 14.8606 9.14649C14.7669 9.05272 14.6397 9.00004 14.5071 9.00004H13.5071C13.4904 8.99921 13.4737 8.99921 13.4571 9.00004ZM16.4571 9.00004C16.3245 9.00667 16.1999 9.06571 16.1108 9.16417C16.0218 9.26262 15.9754 9.39243 15.9821 9.52504C15.9887 9.65765 16.0477 9.78219 16.1462 9.87127C16.2447 9.96035 16.3745 10.0067 16.5071 10H24.5001C24.6327 10 24.7599 9.94736 24.8536 9.85359C24.9474 9.75983 25.0001 9.63265 25.0001 9.50004C25.0001 9.36743 24.9474 9.24025 24.8536 9.14649C24.7599 9.05272 24.6327 9.00004 24.5001 9.00004H16.5081C16.4911 8.99917 16.4741 8.99917 16.4571 9.00004ZM7.45707 11C7.32446 11.0067 7.19992 11.0657 7.11084 11.1642C7.02176 11.2626 6.97544 11.3924 6.98207 11.525C6.9887 11.6576 7.04774 11.7822 7.1462 11.8713C7.24465 11.9604 7.37446 12.0067 7.50707 12H13.5071C13.6397 12 13.7669 11.9474 13.8606 11.8536C13.9544 11.7598 14.0071 11.6326 14.0071 11.5C14.0071 11.3674 13.9544 11.2403 13.8606 11.1465C13.7669 11.0527 13.6397 11 13.5071 11H7.50707C7.49041 10.9992 7.47373 10.9992 7.45707 11ZM15.4571 11C15.3245 11.0067 15.1999 11.0657 15.1108 11.1642C15.0218 11.2626 14.9754 11.3924 14.9821 11.525C14.9887 11.6576 15.0477 11.7822 15.1462 11.8713C15.2447 11.9604 15.3745 12.0067 15.5071 12H16.5071C16.6397 12 16.7669 11.9474 16.8606 11.8536C16.9544 11.7598 17.0071 11.6326 17.0071 11.5C17.0071 11.3674 16.9544 11.2403 16.8606 11.1465C16.7669 11.0527 16.6397 11 16.5071 11H15.5071C15.4904 10.9992 15.4737 10.9992 15.4571 11ZM18.4571 11C18.3245 11.0067 18.1999 11.0657 18.1108 11.1642C18.0218 11.2626 17.9754 11.3924 17.9821 11.525C17.9887 11.6576 18.0477 11.7822 18.1462 11.8713C18.2447 11.9604 18.3745 12.0067 18.5071 12H24.5001C24.6327 12 24.7599 11.9474 24.8536 11.8536C24.9474 11.7598 25.0001 11.6326 25.0001 11.5C25.0001 11.3674 24.9474 11.2403 24.8536 11.1465C24.7599 11.0527 24.6327 11 24.5001 11H18.5081C18.4911 10.9992 18.4741 10.9992 18.4571 11ZM7.45707 13C7.32446 13.0067 7.19992 13.0657 7.11084 13.1642C7.02176 13.2626 6.97544 13.3924 6.98207 13.525C6.9887 13.6576 7.04774 13.7822 7.1462 13.8713C7.24465 13.9604 7.37446 14.0067 7.50707 14H15.5071C15.6397 14 15.7669 13.9474 15.8606 13.8536C15.9544 13.7598 16.0071 13.6326 16.0071 13.5C16.0071 13.3674 15.9544 13.2403 15.8606 13.1465C15.7669 13.0527 15.6397 13 15.5071 13H7.50707C7.49041 12.9992 7.47373 12.9992 7.45707 13ZM17.4571 13C17.3245 13.0067 17.1999 13.0657 17.1108 13.1642C17.0218 13.2626 16.9754 13.3924 16.9821 13.525C16.9887 13.6576 17.0477 13.7822 17.1462 13.8713C17.2447 13.9604 17.3745 14.0067 17.5071 14H18.5071C18.6397 14 18.7669 13.9474 18.8606 13.8536C18.9544 13.7598 19.0071 13.6326 19.0071 13.5C19.0071 13.3674 18.9544 13.2403 18.8606 13.1465C18.7669 13.0527 18.6397 13 18.5071 13H17.5071C17.4904 12.9992 17.4737 12.9992 17.4571 13ZM20.4571 13C20.3245 13.0067 20.1999 13.0657 20.1108 13.1642C20.0218 13.2626 19.9754 13.3924 19.9821 13.525C19.9887 13.6576 20.0477 13.7822 20.1462 13.8713C20.2447 13.9604 20.3745 14.0067 20.5071 14H24.5001C24.6327 14 24.7599 13.9474 24.8536 13.8536C24.9474 13.7598 25.0001 13.6326 25.0001 13.5C25.0001 13.3674 24.9474 13.2403 24.8536 13.1465C24.7599 13.0527 24.6327 13 24.5001 13H20.5081C20.4911 12.9992 20.4741 12.9992 20.4571 13ZM7.45707 15C7.32446 15.0067 7.19992 15.0657 7.11084 15.1642C7.02176 15.2626 6.97544 15.3924 6.98207 15.525C6.9887 15.6576 7.04774 15.7822 7.1462 15.8713C7.24465 15.9604 7.37446 16.0067 7.50707 16H11.5071C11.6397 16 11.7669 15.9474 11.8606 15.8536C11.9544 15.7598 12.0071 15.6326 12.0071 15.5C12.0071 15.3674 11.9544 15.2403 11.8606 15.1465C11.7669 15.0527 11.6397 15 11.5071 15H7.50707C7.49041 14.9992 7.47373 14.9992 7.45707 15ZM13.4571 15C13.3245 15.0067 13.1999 15.0657 13.1108 15.1642C13.0218 15.2626 12.9754 15.3924 12.9821 15.525C12.9887 15.6576 13.0477 15.7822 13.1462 15.8713C13.2447 15.9604 13.3745 16.0067 13.5071 16H14.5071C14.6397 16 14.7669 15.9474 14.8606 15.8536C14.9544 15.7598 15.0071 15.6326 15.0071 15.5C15.0071 15.3674 14.9544 15.2403 14.8606 15.1465C14.7669 15.0527 14.6397 15 14.5071 15H13.5071C13.4904 14.9992 13.4737 14.9992 13.4571 15ZM16.4571 15C16.3245 15.0067 16.1999 15.0657 16.1108 15.1642C16.0218 15.2626 15.9754 15.3924 15.9821 15.525C15.9887 15.6576 16.0477 15.7822 16.1462 15.8713C16.2447 15.9604 16.3745 16.0067 16.5071 16H24.5001C24.6327 16 24.7599 15.9474 24.8536 15.8536C24.9474 15.7598 25.0001 15.6326 25.0001 15.5C25.0001 15.3674 24.9474 15.2403 24.8536 15.1465C24.7599 15.0527 24.6327 15 24.5001 15H16.5081C16.4911 14.9992 16.4741 14.9992 16.4571 15Z" fill="#F05542"/>
<path d="M26.4961 7.50403H21.9961C21.1661 7.50403 20.4961 6.83403 20.4961 6.00403V1.50403" fill="#F05542"/>
<path d="M26.4961 7.50403H21.9961C21.1661 7.50403 20.4961 6.83403 20.4961 6.00403V1.50403" stroke="#F05542" stroke-linecap="round" stroke-linejoin="round"/>
<path fill-rule="evenodd" clip-rule="evenodd" d="M12.4751 24.99C12.4094 24.9909 12.3445 25.0048 12.2841 25.0308C12.2237 25.0569 12.1691 25.0946 12.1233 25.1418C12.0775 25.1889 12.0414 25.2447 12.0172 25.3058C11.993 25.367 11.9811 25.4323 11.9821 25.498V29.461C11.9775 29.5224 11.9843 29.5841 12.0021 29.643C12.0021 29.6437 12.0021 29.6444 12.0021 29.645C12.0034 29.6494 12.0047 29.6537 12.0061 29.658C12.0104 29.6699 12.015 29.6815 12.0201 29.693C12.0279 29.7126 12.0369 29.7316 12.0471 29.75C12.0534 29.7606 12.0601 29.7709 12.0671 29.781C12.0688 29.7844 12.0704 29.7877 12.0721 29.791C12.0797 29.8013 12.0878 29.8113 12.0961 29.821C12.1041 29.8303 12.1125 29.8393 12.1211 29.848C12.1251 29.8524 12.1291 29.8568 12.1331 29.861C12.1412 29.8686 12.1496 29.876 12.1581 29.883C12.1627 29.8871 12.1674 29.8911 12.1721 29.895C12.1761 29.8984 12.1801 29.9017 12.1841 29.905C12.1955 29.9132 12.2072 29.9208 12.2191 29.928C12.2433 29.9432 12.2687 29.9562 12.2951 29.967C12.304 29.9706 12.313 29.9739 12.3221 29.977C12.3762 29.9956 12.433 30.0047 12.4901 30.004H13.4881C13.5386 30.0043 13.5889 29.9968 13.6371 29.982C14.9451 29.874 15.9971 28.818 15.9971 27.504C15.9971 26.194 14.9501 25.139 13.6471 25.025C13.5985 25.0104 13.5479 25.0034 13.4971 25.004H12.5981C12.5579 24.9943 12.5166 24.9896 12.4751 24.99ZM9.49613 25C8.71813 25 8.07813 25.608 8.01013 26.37C8.00031 26.4106 7.9956 26.4523 7.99613 26.494V29.494C7.99613 29.5597 8.00907 29.6247 8.03419 29.6854C8.05932 29.746 8.09615 29.8011 8.14258 29.8476C8.18901 29.894 8.24413 29.9308 8.30479 29.956C8.36545 29.9811 8.43047 29.994 8.49613 29.994C8.5618 29.994 8.62681 29.9811 8.68748 29.956C8.74814 29.9308 8.80326 29.894 8.84969 29.8476C8.89612 29.8011 8.93295 29.746 8.95807 29.6854C8.9832 29.6247 8.99613 29.5597 8.99613 29.494V27.906C9.15313 27.963 9.32013 28 9.49613 28C10.3191 28 10.9961 27.323 10.9961 26.5C10.9961 25.677 10.3191 25 9.49613 25ZM18.5621 25C18.1455 25.0021 17.7466 25.1687 17.4522 25.4635C17.1578 25.7583 16.9917 26.1574 16.9901 26.574V27.457C16.9883 27.4817 16.9883 27.5064 16.9901 27.531V29.5C16.9901 29.6326 17.0428 29.7598 17.1366 29.8536C17.2303 29.9473 17.3575 30 17.4901 30C17.6227 30 17.7499 29.9473 17.8437 29.8536C17.9375 29.7598 17.9901 29.6326 17.9901 29.5V28H18.9901C19.1227 28 19.2499 27.9473 19.3437 27.8536C19.4375 27.7598 19.4901 27.6326 19.4901 27.5C19.4901 27.3674 19.4375 27.2402 19.3437 27.1465C19.2499 27.0527 19.1227 27 18.9901 27H17.9901V26.574C17.9901 26.248 18.2361 26 18.5631 26H19.4901C19.6227 26 19.7499 25.9473 19.8437 25.8536C19.9375 25.7598 19.9901 25.6326 19.9901 25.5C19.9901 25.3674 19.9375 25.2402 19.8437 25.1465C19.7499 25.0527 19.6227 25 19.4901 25H18.5621ZM9.49613 26C9.77813 26 9.99613 26.218 9.99613 26.5C9.99613 26.782 9.77813 27 9.49613 27C9.43021 27.001 9.36477 26.9887 9.30368 26.9639C9.24259 26.9391 9.1871 26.9023 9.14048 26.8557C9.09386 26.8091 9.05707 26.7536 9.03227 26.6925C9.00748 26.6314 8.99519 26.5659 8.99613 26.5V26.494C8.996 26.4286 9.00888 26.3638 9.03403 26.3034C9.05918 26.243 9.0961 26.1882 9.14264 26.1423C9.18918 26.0963 9.2444 26.06 9.30509 26.0356C9.36578 26.0112 9.43072 25.9991 9.49613 26ZM12.9821 26.004H13.4201C14.3121 26.004 14.9961 26.674 14.9961 27.504C14.9961 28.334 14.3121 29.004 13.4201 29.004H12.9821V26.004Z" fill="#E9EDED"/>
</svg>
