<svg width="32" height="32" viewBox="0 0 32 32" fill="none" xmlns="http://www.w3.org/2000/svg">
<path fill-rule="evenodd" clip-rule="evenodd" d="M26.4961 7.50403V29.004C26.4961 29.834 25.8271 30.504 24.9961 30.504H6.99609C6.16609 30.504 5.49609 29.834 5.49609 29.004V3.00403C5.49609 2.17303 6.16609 1.50403 6.99609 1.50403H20.4961L26.4961 7.50403Z" fill="#E9EDED" stroke="#4125B3" stroke-linecap="round" stroke-linejoin="round"/>
<path d="M26.4961 7.50403H21.9961C21.1661 7.50403 20.4961 6.83403 20.4961 6.00403V1.50403" fill="#4125B3"/>
<path d="M26.4961 7.50403H21.9961C21.1661 7.50403 20.4961 6.83403 20.4961 6.00403V1.50403" stroke="#4125B3" stroke-linecap="round" stroke-linejoin="round"/>
<path d="M6 24.004H26V30.004H6V24.004Z" fill="#4125B3"/>
<path d="M8.50005 25.004C7.72605 25.004 7.08905 25.607 7.01605 26.364L7.01405 26.373C7.00414 26.4139 6.99944 26.4559 7.00005 26.498V29.502C7.00005 29.6346 7.05273 29.7618 7.1465 29.8556C7.24027 29.9493 7.36744 30.002 7.50005 30.002C7.63266 30.002 7.75984 29.9493 7.85361 29.8556C7.94738 29.7618 8.00005 29.6346 8.00005 29.502V27.914C8.15705 27.971 8.32405 28.008 8.50005 28.008C9.32305 28.008 10.0001 27.33 10.0001 26.508C10.0001 25.685 9.32305 25.008 8.50005 25.008V25.004ZM17.5741 25.004C16.7111 25.004 16.0001 25.714 16.0001 26.578V28.43C16.0001 29.293 16.7101 30.004 17.5741 30.004H18.4261C19.2121 30.004 19.8661 29.412 19.9761 28.654C19.9923 28.6036 20.0004 28.551 20.0001 28.498V27.512C20.0014 27.4064 19.9692 27.303 19.9081 27.2167C19.847 27.1305 19.7602 27.0658 19.6601 27.032C19.6446 27.0266 19.6289 27.0219 19.6131 27.018C19.5966 27.0138 19.5799 27.0105 19.5631 27.008C19.5465 27.0059 19.5298 27.0045 19.5131 27.004C19.5067 27.0039 19.5004 27.0039 19.4941 27.004H19.4921H18.5081C18.3754 27.004 18.2483 27.0567 18.1545 27.1505C18.0607 27.2442 18.0081 27.3714 18.0081 27.504C18.0081 27.6366 18.0607 27.7638 18.1545 27.8576C18.2483 27.9514 18.3754 28.004 18.5081 28.004H19.0001V28.43C19.0015 28.5058 18.9877 28.5811 18.9594 28.6514C18.9311 28.7218 18.8889 28.7856 18.8353 28.8392C18.7817 28.8928 18.7178 28.9351 18.6475 28.9634C18.5772 28.9917 18.5018 29.0055 18.4261 29.004H17.5741C17.4983 29.0055 17.423 28.9917 17.3526 28.9634C17.2823 28.9351 17.2184 28.8928 17.1648 28.8392C17.1112 28.7856 17.069 28.7218 17.0407 28.6514C17.0124 28.5811 16.9986 28.5058 17.0001 28.43V26.578C17.0001 26.252 17.2481 26.004 17.5741 26.004H19.5001C19.6327 26.004 19.7598 25.9514 19.8536 25.8576C19.9474 25.7638 20.0001 25.6366 20.0001 25.504C20.0001 25.3714 19.9474 25.2442 19.8536 25.1505C19.7598 25.0567 19.6327 25.004 19.5001 25.004H17.5741ZM8.50005 26V26.004C8.78205 26.004 9.00005 26.222 9.00005 26.504C9.00005 26.786 8.78205 27.004 8.50005 27.004C8.43413 27.005 8.36869 26.9927 8.3076 26.9679C8.24651 26.9431 8.19102 26.9063 8.1444 26.8597C8.09778 26.8131 8.06099 26.7576 8.03619 26.6965C8.0114 26.6354 7.99911 26.5699 8.00005 26.504V26.494C7.99991 26.4286 8.0128 26.3638 8.03795 26.3034C8.0631 26.243 8.10002 26.1883 8.14656 26.1423C8.1931 26.0963 8.24832 26.06 8.30901 26.0356C8.3697 26.0112 8.43464 25.9991 8.50005 26Z" fill="#E9EDED"/>
<path fill-rule="evenodd" clip-rule="evenodd" d="M7 22.004L12 15.004L17 22.004H7Z" fill="#4125B3"/>
<path fill-rule="evenodd" clip-rule="evenodd" d="M11 22.004L18 12.004L25 22.004H11Z" fill="#4125B3"/>
<path d="M13 11.004C13 11.5345 12.7893 12.0432 12.4142 12.4182C12.0391 12.7933 11.5304 13.004 11 13.004C10.4696 13.004 9.96086 12.7933 9.58579 12.4182C9.21071 12.0432 9 11.5345 9 11.004C9 10.4736 9.21071 9.96489 9.58579 9.58982C9.96086 9.21474 10.4696 9.00403 11 9.00403C11.5304 9.00403 12.0391 9.21474 12.4142 9.58982C12.7893 9.96489 13 10.4736 13 11.004Z" fill="#F84EC8"/>
<path fill-rule="evenodd" clip-rule="evenodd" d="M11.5218 25C11.5047 24.9998 11.4877 25.0005 11.4708 25.002C11.4041 25.0059 11.339 25.0231 11.2791 25.0526C11.2193 25.0821 11.1659 25.1232 11.1222 25.1737C11.0785 25.2241 11.0453 25.2827 11.0246 25.3462C11.0039 25.4096 10.9962 25.4765 11.0018 25.543V29.506C11.0018 29.6386 11.0544 29.7658 11.1482 29.8596C11.242 29.9534 11.3691 30.006 11.5018 30.006C11.6344 30.006 11.7615 29.9534 11.8553 29.8596C11.9491 29.7658 12.0018 29.6386 12.0018 29.506V27.006L14.0838 29.786L14.0858 29.789L14.0998 29.807C14.1625 29.8918 14.2504 29.9546 14.3509 29.9864C14.4515 30.0182 14.5595 30.0175 14.6596 29.9842C14.7596 29.9509 14.8466 29.8868 14.9081 29.8011C14.9695 29.7154 15.0023 29.6125 15.0018 29.507V25.517C15.0027 25.4501 14.9902 25.3837 14.965 25.3217C14.9398 25.2597 14.9024 25.2033 14.855 25.1561C14.8076 25.1088 14.7512 25.0715 14.6892 25.0464C14.6271 25.0213 14.5607 25.009 14.4938 25.01C14.4281 25.0111 14.3633 25.025 14.303 25.0511C14.2427 25.0772 14.1882 25.1149 14.1425 25.1621C14.0968 25.2093 14.0609 25.265 14.0367 25.3261C14.0126 25.3871 14.0007 25.4524 14.0018 25.518V28.008L11.9038 25.208C11.8599 25.1468 11.8027 25.0963 11.7366 25.0603C11.6704 25.0243 11.597 25.0037 11.5218 25Z" fill="#E9EDED"/>
</svg>
