<svg width="37" height="36" viewBox="0 0 37 36" fill="none" xmlns="http://www.w3.org/2000/svg">
<rect x="0.833496" y="0.5" width="35" height="35" rx="17.5" stroke="#DFDFDF"/>
<g clip-path="url(#clip0_6713_1510)">
<path d="M13.9585 21.125H10.2085C9.51912 21.125 8.9585 20.5644 8.9585 19.875V16.125C8.9585 15.4356 9.51912 14.875 10.2085 14.875H13.9585C14.6479 14.875 15.2085 15.4356 15.2085 16.125V19.875C15.2085 20.5644 14.6479 21.125 13.9585 21.125ZM10.2085 16.125V19.875H13.9585V16.125H10.2085ZM18.3335 26.75C18.1072 26.75 17.8835 26.7413 17.661 26.725C14.941 26.5175 12.436 25.0175 10.9591 22.7125L12.0122 22.0375C12.6397 23.0149 13.4847 23.8339 14.481 24.4308C15.4774 25.0276 16.5982 25.3861 17.756 25.4781C17.9466 25.4925 18.1391 25.5 18.3335 25.5V26.75ZM25.8335 26.75H20.8335C20.1441 26.75 19.5835 26.1894 19.5835 25.5V20.5C19.5835 19.8106 20.1441 19.25 20.8335 19.25H25.8335C26.5229 19.25 27.0835 19.8106 27.0835 20.5V25.5C27.0835 26.1894 26.5229 26.75 25.8335 26.75ZM20.8335 20.5V25.5H25.8335V20.5H20.8335ZM25.3972 15.5C25.681 16.3013 25.8335 17.1381 25.8335 18H27.0835C27.0835 17.1438 26.9591 16.3075 26.7185 15.5H25.3972ZM25.2085 14.25H23.3335C22.6441 14.25 22.0835 13.6894 22.0835 13V11.125C22.0835 10.4356 22.6441 9.87502 23.3335 9.87502H25.2085C25.8979 9.87502 26.4585 10.4356 26.4585 11.125V13C26.4585 13.6894 25.8979 14.25 25.2085 14.25ZM23.3335 11.125V13H25.2085V11.125H23.3335ZM20.8335 9.61439C20.0223 9.37222 19.1801 9.24947 18.3335 9.25002C16.8637 9.24699 15.4171 9.61554 14.1279 10.3214C12.8387 11.0273 11.7489 12.0476 10.9597 13.2875L12.0122 13.9625C12.922 12.533 14.2904 11.455 15.8931 10.9052C17.4958 10.3554 19.2378 10.3663 20.8335 10.9363V9.61439Z" fill="#707070"/>
</g>
<defs>
<clipPath id="clip0_6713_1510">
<rect width="20" height="20" fill="white" transform="translate(8.3335 8)"/>
</clipPath>
</defs>
</svg>
