<svg width="24" height="24" viewBox="0 0 24 24" fill="none" xmlns="http://www.w3.org/2000/svg">
<path d="M5.25 12.75H9V14.25H5.25V12.75ZM5.25 9H14.25V10.5H5.25V9ZM5.25 5.25H14.25V6.75H5.25V5.25Z" fill="url(#paint0_linear_9397_5145)"/>
<path d="M16.5 1.5H3C2.60254 1.50119 2.2217 1.6596 1.94065 1.94065C1.6596 2.2217 1.50119 2.60254 1.5 3V21C1.50119 21.3975 1.6596 21.7783 1.94065 22.0593C2.2217 22.3404 2.60254 22.4988 3 22.5H9V21H3V3H16.5V11.25H18V3C17.9988 2.60254 17.8404 2.2217 17.5593 1.94065C17.2783 1.6596 16.8975 1.50119 16.5 1.5Z" fill="url(#paint1_linear_9397_5145)"/>
<path d="M11.9511 23.748C11.865 23.7117 11.7934 23.6477 11.7477 23.5662C11.702 23.4847 11.6847 23.3902 11.6986 23.2978L12.4644 18.3117H10.4321C10.3677 18.3134 10.3037 18.3003 10.2451 18.2734C10.1866 18.2465 10.1349 18.2065 10.0943 18.1565C10.0536 18.1065 10.025 18.0478 10.0106 17.985C9.99623 17.9222 9.99647 17.8569 10.0113 17.7941L11.2736 12.3241C11.2958 12.23 11.3498 12.1464 11.4264 12.0874C11.5031 12.0284 11.5977 11.9976 11.6944 12.0002H15.9021C15.9649 11.9999 16.0271 12.0138 16.0838 12.0408C16.1406 12.0677 16.1907 12.107 16.2303 12.1558C16.2704 12.2052 16.2989 12.263 16.3135 12.325C16.328 12.3869 16.3284 12.4514 16.3144 12.5135L15.5865 15.7871H17.5852C17.664 15.7869 17.7413 15.8089 17.8083 15.8506C17.8753 15.8922 17.9292 15.9519 17.9639 16.0227C17.994 16.0907 18.0056 16.1654 17.9975 16.2393C17.9893 16.3132 17.9618 16.3837 17.9176 16.4435L12.4476 23.5965C12.4106 23.6514 12.3612 23.6967 12.3035 23.7288C12.2457 23.761 12.1812 23.7791 12.1152 23.7817C12.0589 23.7806 12.0032 23.7692 11.9511 23.748ZM14.5346 16.6286L15.3761 12.8417H12.031L10.9623 17.4701H13.449L12.78 21.7957L16.7436 16.6286H14.5346Z" fill="url(#paint2_linear_9397_5145)"/>
<defs>
<linearGradient id="paint0_linear_9397_5145" x1="1.5" y1="12.6408" x2="18" y2="12.6408" gradientUnits="userSpaceOnUse">
<stop stop-color="#F12711"/>
<stop offset="1" stop-color="#F5AF19"/>
</linearGradient>
<linearGradient id="paint1_linear_9397_5145" x1="1.5" y1="12.6408" x2="18" y2="12.6408" gradientUnits="userSpaceOnUse">
<stop stop-color="#F12711"/>
<stop offset="1" stop-color="#F5AF19"/>
</linearGradient>
<linearGradient id="paint2_linear_9397_5145" x1="1.5" y1="12.6408" x2="18" y2="12.6408" gradientUnits="userSpaceOnUse">
<stop stop-color="#F12711"/>
<stop offset="1" stop-color="#F5AF19"/>
</linearGradient>
</defs>
</svg>
