<svg width="20" height="20" viewBox="0 0 20 20" fill="none" xmlns="http://www.w3.org/2000/svg">
<path d="M13.125 10H14.375V11.25H13.125V10ZM5.625 10H10.625V11.25H5.625V10ZM13.125 7.5H14.375V8.75H13.125V7.5ZM5.625 7.5H10.625V8.75H5.625V7.5ZM5.625 5H14.375V6.25H5.625V5Z" fill="#404040"/>
<path d="M15.625 1.25H4.375C4.04358 1.25033 3.72583 1.38213 3.49148 1.61648C3.25713 1.85083 3.12533 2.16858 3.125 2.5V18.125C3.125 18.2908 3.19085 18.4497 3.30806 18.5669C3.42527 18.6842 3.58424 18.75 3.75 18.75H4.375C4.47204 18.75 4.56775 18.7275 4.65454 18.6841C4.74133 18.6407 4.81682 18.5777 4.875 18.5L6.25 16.6669L7.625 18.5C7.68568 18.5739 7.762 18.6335 7.84845 18.6744C7.93491 18.7152 8.02936 18.7365 8.125 18.7365C8.22064 18.7365 8.31509 18.7152 8.40155 18.6744C8.488 18.6335 8.56432 18.5739 8.625 18.5L10 16.6669L11.375 18.5C11.4357 18.5739 11.512 18.6335 11.5985 18.6744C11.6849 18.7152 11.7794 18.7365 11.875 18.7365C11.9706 18.7365 12.0651 18.7152 12.1515 18.6744C12.238 18.6335 12.3143 18.5739 12.375 18.5L13.75 16.6669L15.125 18.5C15.1832 18.5776 15.2587 18.6406 15.3455 18.684C15.4323 18.7274 15.528 18.75 15.625 18.75H16.25C16.4158 18.75 16.5747 18.6842 16.6919 18.5669C16.8092 18.4497 16.875 18.2908 16.875 18.125V2.5C16.8747 2.16858 16.7429 1.85083 16.5085 1.61648C16.2742 1.38213 15.9564 1.25033 15.625 1.25ZM15.625 17.0831L14.25 15.25C14.1893 15.1761 14.113 15.1165 14.0265 15.0756C13.9401 15.0348 13.8456 15.0135 13.75 15.0135C13.6544 15.0135 13.5599 15.0348 13.4735 15.0756C13.387 15.1165 13.3107 15.1761 13.25 15.25L11.875 17.0831L10.5 15.25C10.4393 15.1761 10.363 15.1165 10.2765 15.0756C10.1901 15.0348 10.0956 15.0135 10 15.0135C9.90436 15.0135 9.80991 15.0348 9.72345 15.0756C9.637 15.1165 9.56068 15.1761 9.5 15.25L8.125 17.0831L6.75 15.25C6.68932 15.1761 6.613 15.1165 6.52655 15.0756C6.44009 15.0348 6.34564 15.0135 6.25 15.0135C6.15436 15.0135 6.05991 15.0348 5.97345 15.0756C5.887 15.1165 5.81068 15.1761 5.75 15.25L4.375 17.0831V2.5H15.625V17.0831Z" fill="#404040"/>
</svg>
