<svg width="39" height="56" viewBox="0 0 39 56" fill="none" xmlns="http://www.w3.org/2000/svg">
<rect x="1.5" y="0.5" width="35" height="35" rx="17.5" stroke="#DFDFDF"/>
<path d="M22.75 24.25C23.4404 24.25 24 23.6904 24 23C24 22.3096 23.4404 21.75 22.75 21.75C22.0596 21.75 21.5 22.3096 21.5 23C21.5 23.6904 22.0596 24.25 22.75 24.25Z" fill="#707070"/>
<path d="M27.6106 22.6744C27.2245 21.6906 26.5581 20.8417 25.6941 20.233C24.83 19.6243 23.8064 19.2825 22.75 19.25C21.6936 19.2825 20.67 19.6243 19.8059 20.233C18.9419 20.8417 18.2755 21.6906 17.8894 22.6744L17.75 23L17.8894 23.3256C18.2755 24.3094 18.9419 25.1583 19.8059 25.767C20.67 26.3757 21.6936 26.7175 22.75 26.75C23.8064 26.7175 24.83 26.3757 25.6941 25.767C26.5581 25.1583 27.2245 24.3094 27.6106 23.3256L27.75 23L27.6106 22.6744ZM22.75 25.5C22.2555 25.5 21.7722 25.3534 21.3611 25.0787C20.95 24.804 20.6295 24.4135 20.4403 23.9567C20.2511 23.4999 20.2016 22.9972 20.298 22.5123C20.3945 22.0273 20.6326 21.5819 20.9822 21.2322C21.3319 20.8826 21.7773 20.6445 22.2623 20.548C22.7472 20.4516 23.2499 20.5011 23.7067 20.6903C24.1635 20.8795 24.554 21.2 24.8287 21.6111C25.1034 22.0222 25.25 22.5055 25.25 23C25.2492 23.6628 24.9855 24.2982 24.5169 24.7669C24.0482 25.2355 23.4128 25.4992 22.75 25.5Z" fill="#707070"/>
<path d="M16.5 25.5002H14V10.5002H19V14.2502C19.001 14.5814 19.133 14.8988 19.3672 15.133C19.6014 15.3672 19.9188 15.4992 20.25 15.5002H24V18.0002H25.25V14.2502C25.2522 14.1681 25.2366 14.0864 25.2042 14.0109C25.1719 13.9354 25.1235 13.8678 25.0625 13.8127L20.6875 9.43771C20.6325 9.37668 20.5649 9.32831 20.4893 9.29594C20.4138 9.26356 20.3321 9.24797 20.25 9.25021H14C13.6688 9.2512 13.3514 9.38322 13.1172 9.61742C12.883 9.85163 12.751 10.169 12.75 10.5002V25.5002C12.751 25.8314 12.883 26.1488 13.1172 26.383C13.3514 26.6172 13.6688 26.7492 14 26.7502H16.5V25.5002ZM20.25 10.7502L23.75 14.2502H20.25V10.7502Z" fill="#707070"/>
<path d="M0.723515 55V46.6H3.67552C4.12352 46.6 4.52752 46.71 4.88752 46.93C5.25152 47.15 5.53952 47.448 5.75152 47.824C5.96752 48.196 6.07552 48.612 6.07552 49.072C6.07552 49.476 5.99552 49.844 5.83552 50.176C5.67552 50.508 5.45552 50.786 5.17552 51.01C4.89952 51.23 4.58552 51.382 4.23352 51.466L6.27352 55H5.10952L3.10552 51.55H1.73152V55H0.723515ZM1.73152 50.542H3.57352C3.84552 50.542 4.09552 50.476 4.32352 50.344C4.55152 50.208 4.73152 50.026 4.86352 49.798C4.99952 49.566 5.06752 49.306 5.06752 49.018C5.06752 48.726 4.99952 48.466 4.86352 48.238C4.73152 48.006 4.55152 47.824 4.32352 47.692C4.09552 47.556 3.84552 47.488 3.57352 47.488H1.73152V50.542ZM10.1426 55.156C9.59058 55.156 9.08658 55.014 8.63058 54.73C8.17858 54.446 7.81658 54.066 7.54458 53.59C7.27658 53.11 7.14258 52.58 7.14258 52C7.14258 51.56 7.22058 51.15 7.37658 50.77C7.53258 50.386 7.74658 50.05 8.01858 49.762C8.29458 49.47 8.61458 49.242 8.97858 49.078C9.34258 48.914 9.73058 48.832 10.1426 48.832C10.5946 48.832 11.0086 48.924 11.3846 49.108C11.7646 49.288 12.0886 49.54 12.3566 49.864C12.6286 50.188 12.8306 50.564 12.9626 50.992C13.0986 51.42 13.1486 51.878 13.1126 52.366H8.21658C8.26458 52.706 8.37658 53.01 8.55258 53.278C8.72858 53.542 8.95258 53.752 9.22458 53.908C9.50058 54.064 9.80658 54.144 10.1426 54.148C10.5026 54.148 10.8286 54.056 11.1206 53.872C11.4126 53.684 11.6486 53.428 11.8286 53.104L12.8546 53.344C12.6146 53.876 12.2526 54.312 11.7686 54.652C11.2846 54.988 10.7426 55.156 10.1426 55.156ZM8.18658 51.574H12.0986C12.0666 51.238 11.9586 50.932 11.7746 50.656C11.5906 50.376 11.3566 50.152 11.0726 49.984C10.7886 49.816 10.4786 49.732 10.1426 49.732C9.80658 49.732 9.49858 49.814 9.21858 49.978C8.93858 50.142 8.70658 50.364 8.52258 50.644C8.34258 50.92 8.23058 51.23 8.18658 51.574ZM17.2259 55H15.9359L13.7459 48.988H14.8199L16.5779 53.83L18.3359 48.988H19.4099L17.2259 55ZM20.6271 49H21.6351V55H20.6271V49ZM21.1431 48.022C20.9831 48.022 20.8491 47.97 20.7411 47.866C20.6331 47.762 20.5791 47.632 20.5791 47.476C20.5791 47.32 20.6331 47.19 20.7411 47.086C20.8491 46.982 20.9811 46.93 21.1371 46.93C21.2931 46.93 21.4251 46.982 21.5331 47.086C21.6411 47.19 21.6951 47.32 21.6951 47.476C21.6951 47.632 21.6411 47.762 21.5331 47.866C21.4291 47.97 21.2991 48.022 21.1431 48.022ZM25.8743 55.156C25.3223 55.156 24.8183 55.014 24.3623 54.73C23.9103 54.446 23.5483 54.066 23.2763 53.59C23.0083 53.11 22.8743 52.58 22.8743 52C22.8743 51.56 22.9523 51.15 23.1083 50.77C23.2643 50.386 23.4783 50.05 23.7503 49.762C24.0263 49.47 24.3463 49.242 24.7103 49.078C25.0743 48.914 25.4623 48.832 25.8743 48.832C26.3263 48.832 26.7403 48.924 27.1163 49.108C27.4963 49.288 27.8203 49.54 28.0883 49.864C28.3603 50.188 28.5623 50.564 28.6943 50.992C28.8303 51.42 28.8803 51.878 28.8443 52.366H23.9483C23.9963 52.706 24.1083 53.01 24.2843 53.278C24.4603 53.542 24.6843 53.752 24.9563 53.908C25.2323 54.064 25.5383 54.144 25.8743 54.148C26.2343 54.148 26.5603 54.056 26.8523 53.872C27.1443 53.684 27.3803 53.428 27.5603 53.104L28.5863 53.344C28.3463 53.876 27.9843 54.312 27.5003 54.652C27.0163 54.988 26.4743 55.156 25.8743 55.156ZM23.9183 51.574H27.8303C27.7983 51.238 27.6903 50.932 27.5063 50.656C27.3223 50.376 27.0883 50.152 26.8043 49.984C26.5203 49.816 26.2103 49.732 25.8743 49.732C25.5383 49.732 25.2303 49.814 24.9503 49.978C24.6703 50.142 24.4383 50.364 24.2543 50.644C24.0743 50.92 23.9623 51.23 23.9183 51.574ZM32.5076 55H31.4876L29.4776 49H30.4616L32.0096 53.578L33.5396 49H34.5776L36.1136 53.578L37.6436 49H38.6396L36.6296 55H35.6036L34.0496 50.38L32.5076 55Z" fill="#707070"/>
</svg>
