<svg width="24" height="24" viewBox="0 0 24 24" fill="none" xmlns="http://www.w3.org/2000/svg">
<g id="Icons/ibm-watson-discovery">
<path id="Vector" d="M4.5 12.75H10.5V14.25H4.5V12.75Z" fill="#FF5C40"/>
<path id="Vector_2" d="M2.25 14.25C2.66421 14.25 3 13.9142 3 13.5C3 13.0858 2.66421 12.75 2.25 12.75C1.83579 12.75 1.5 13.0858 1.5 13.5C1.5 13.9142 1.83579 14.25 2.25 14.25Z" fill="#FF5C40"/>
<path id="Vector_3" d="M9.75 11.25C10.1642 11.25 10.5 10.9142 10.5 10.5C10.5 10.0858 10.1642 9.75 9.75 9.75C9.33579 9.75 9 10.0858 9 10.5C9 10.9142 9.33579 11.25 9.75 11.25Z" fill="#FF5C40"/>
<path id="Vector_4" d="M1.5 9.75H7.5V11.25H1.5V9.75ZM4.5 6.75H10.5V8.25H4.5V6.75Z" fill="#FF5C40"/>
<path id="Vector_5" d="M2.25 8.25C2.66421 8.25 3 7.91421 3 7.5C3 7.08579 2.66421 6.75 2.25 6.75C1.83579 6.75 1.5 7.08579 1.5 7.5C1.5 7.91421 1.83579 8.25 2.25 8.25Z" fill="#FF5C40"/>
<path id="Vector_6" d="M22.5001 21.45L16.9501 15.9C18.0751 14.4 18.7501 12.525 18.7501 10.5C18.7501 5.55 14.7001 1.5 9.7501 1.5C7.2751 1.5 4.9501 2.475 3.2251 4.35L4.3501 5.4C5.7001 3.825 7.6501 3 9.7501 3C13.8751 3 17.2501 6.375 17.2501 10.5C17.2501 14.625 13.8751 18 9.7501 18C7.5001 18 5.4001 17.025 3.9751 15.3L2.8501 16.275C4.5001 18.3 7.0501 19.5 9.7501 19.5C12.1501 19.5 14.3251 18.525 15.9751 17.025L21.4501 22.5L22.5001 21.45Z" fill="#FF5C40"/>
</g>
</svg>
