<svg width="42" height="56" viewBox="0 0 42 56" fill="none" xmlns="http://www.w3.org/2000/svg">
<rect x="3.1665" y="0.5" width="35" height="35" rx="17.5" stroke="#DFDFDF"/>
<path d="M22.3832 15.5167L23.1498 16.2833L15.5998 23.8333H14.8332V23.0667L22.3832 15.5167ZM25.3832 10.5C25.1748 10.5 24.9582 10.5833 24.7998 10.7417L23.2748 12.2667L26.3998 15.3917L27.9248 13.8667C28.0021 13.7896 28.0634 13.698 28.1052 13.5972C28.147 13.4964 28.1685 13.3883 28.1685 13.2792C28.1685 13.17 28.147 13.062 28.1052 12.9611C28.0634 12.8603 28.0021 12.7688 27.9248 12.6917L25.9748 10.7417C25.8082 10.575 25.5998 10.5 25.3832 10.5ZM22.3832 13.1583L13.1665 22.375V25.5H16.2915L25.5082 16.2833L22.3832 13.1583Z" fill="#707070"/>
<path d="M3.50285 46.6H4.72085L7.77485 55H6.70685L6.08285 53.284H2.14085L1.52285 55H0.448847L3.50285 46.6ZM2.51285 52.276H5.71085L4.10885 47.89L2.51285 52.276ZM14.3539 51.268V55H13.3459V51.49C13.3459 51.186 13.2719 50.91 13.1239 50.662C12.9759 50.414 12.7779 50.218 12.5299 50.074C12.2819 49.926 12.0059 49.852 11.7019 49.852C11.4019 49.852 11.1259 49.926 10.8739 50.074C10.6259 50.218 10.4279 50.414 10.2799 50.662C10.1319 50.91 10.0579 51.186 10.0579 51.49V55H9.04994V49H10.0579V49.75C10.2699 49.47 10.5379 49.248 10.8619 49.084C11.1859 48.916 11.5379 48.832 11.9179 48.832C12.3659 48.832 12.7739 48.942 13.1419 49.162C13.5139 49.378 13.8079 49.67 14.0239 50.038C14.2439 50.406 14.3539 50.816 14.3539 51.268ZM17.6238 55.114C17.2998 55.102 16.9838 55.042 16.6758 54.934C16.3718 54.822 16.1038 54.672 15.8718 54.484C15.6438 54.292 15.4778 54.072 15.3738 53.824L16.2378 53.452C16.2978 53.588 16.4058 53.716 16.5618 53.836C16.7178 53.956 16.8978 54.052 17.1018 54.124C17.3058 54.196 17.5118 54.232 17.7198 54.232C17.9398 54.232 18.1458 54.198 18.3378 54.13C18.5298 54.062 18.6858 53.962 18.8058 53.83C18.9298 53.694 18.9918 53.532 18.9918 53.344C18.9918 53.144 18.9238 52.988 18.7878 52.876C18.6558 52.76 18.4878 52.67 18.2838 52.606C18.0838 52.538 17.8798 52.474 17.6718 52.414C17.2598 52.31 16.8918 52.186 16.5678 52.042C16.2438 51.894 15.9878 51.708 15.7998 51.484C15.6158 51.256 15.5238 50.966 15.5238 50.614C15.5238 50.242 15.6258 49.92 15.8298 49.648C16.0378 49.376 16.3098 49.166 16.6458 49.018C16.9818 48.87 17.3418 48.796 17.7258 48.796C18.2098 48.796 18.6518 48.9 19.0518 49.108C19.4518 49.316 19.7498 49.598 19.9458 49.954L19.1358 50.428C19.0678 50.284 18.9638 50.158 18.8238 50.05C18.6838 49.938 18.5238 49.85 18.3438 49.786C18.1638 49.722 17.9798 49.688 17.7918 49.684C17.5598 49.676 17.3418 49.706 17.1378 49.774C16.9378 49.842 16.7758 49.946 16.6518 50.086C16.5318 50.222 16.4718 50.392 16.4718 50.596C16.4718 50.796 16.5358 50.948 16.6638 51.052C16.7958 51.156 16.9658 51.24 17.1738 51.304C17.3858 51.364 17.6158 51.434 17.8638 51.514C18.2278 51.63 18.5678 51.764 18.8838 51.916C19.1998 52.068 19.4538 52.258 19.6458 52.486C19.8418 52.714 19.9378 52.996 19.9338 53.332C19.9338 53.7 19.8238 54.022 19.6038 54.298C19.3838 54.57 19.0978 54.778 18.7458 54.922C18.3978 55.066 18.0238 55.13 17.6238 55.114ZM23.7312 55H22.7112L20.7012 49H21.6852L23.2332 53.578L24.7632 49H25.8012L27.3372 53.578L28.8672 49H29.8632L27.8532 55H26.8272L25.2732 50.38L23.7312 55ZM33.4803 55.156C32.9283 55.156 32.4243 55.014 31.9683 54.73C31.5163 54.446 31.1543 54.066 30.8823 53.59C30.6143 53.11 30.4803 52.58 30.4803 52C30.4803 51.56 30.5583 51.15 30.7143 50.77C30.8703 50.386 31.0843 50.05 31.3563 49.762C31.6323 49.47 31.9523 49.242 32.3163 49.078C32.6803 48.914 33.0683 48.832 33.4803 48.832C33.9323 48.832 34.3463 48.924 34.7223 49.108C35.1023 49.288 35.4263 49.54 35.6943 49.864C35.9663 50.188 36.1683 50.564 36.3003 50.992C36.4363 51.42 36.4863 51.878 36.4503 52.366H31.5543C31.6023 52.706 31.7143 53.01 31.8903 53.278C32.0663 53.542 32.2903 53.752 32.5623 53.908C32.8383 54.064 33.1443 54.144 33.4803 54.148C33.8403 54.148 34.1663 54.056 34.4583 53.872C34.7503 53.684 34.9863 53.428 35.1663 53.104L36.1923 53.344C35.9523 53.876 35.5903 54.312 35.1063 54.652C34.6223 54.988 34.0803 55.156 33.4803 55.156ZM31.5243 51.574H35.4363C35.4043 51.238 35.2963 50.932 35.1123 50.656C34.9283 50.376 34.6943 50.152 34.4103 49.984C34.1263 49.816 33.8163 49.732 33.4803 49.732C33.1443 49.732 32.8363 49.814 32.5563 49.978C32.2763 50.142 32.0443 50.364 31.8603 50.644C31.6803 50.92 31.5683 51.23 31.5243 51.574ZM37.7013 55V49H38.7093V49.75C38.9213 49.47 39.1893 49.248 39.5133 49.084C39.8373 48.916 40.1893 48.832 40.5693 48.832C40.8013 48.832 41.0253 48.862 41.2413 48.922L40.8333 49.93C40.6693 49.878 40.5093 49.852 40.3533 49.852C40.0533 49.852 39.7773 49.926 39.5253 50.074C39.2773 50.218 39.0793 50.414 38.9313 50.662C38.7833 50.91 38.7093 51.186 38.7093 51.49V55H37.7013Z" fill="#707070"/>
</svg>
