<svg width="18" height="18" viewBox="0 0 18 18" fill="none" xmlns="http://www.w3.org/2000/svg">
<path d="M14.8337 6.46877L15.5875 5.71502C15.689 5.61484 15.8173 5.54627 15.957 5.51764C16.0967 5.48902 16.2417 5.50157 16.3744 5.55377L17.2931 5.92002C17.4273 5.97468 17.5423 6.06783 17.6236 6.18773C17.7049 6.30763 17.7489 6.44891 17.75 6.59377V8.27627C17.7483 8.46977 17.6699 8.6547 17.532 8.79042C17.3941 8.92613 17.2079 9.00152 17.0144 9.00002L16.9831 8.9994C10.5487 8.59877 9.25 3.14752 9.00438 1.06065C8.99378 0.965355 9.00205 0.868907 9.02873 0.776814C9.05541 0.68472 9.09997 0.598785 9.15987 0.523915C9.21976 0.449045 9.29382 0.386708 9.37781 0.340463C9.4618 0.294219 9.55408 0.264973 9.64937 0.254397C9.6776 0.251261 9.70598 0.2498 9.73438 0.250022H11.3594C11.5043 0.250544 11.6458 0.294381 11.7656 0.375903C11.8854 0.457425 11.9782 0.572909 12.0319 0.707522L12.3988 1.62627C12.4526 1.75856 12.4663 1.90378 12.4382 2.04382C12.4101 2.18386 12.3414 2.31253 12.2406 2.41377L11.4869 3.16752C11.4869 3.16752 11.9206 6.10502 14.8337 6.46877ZM9 17.75H7.75V14.625C7.7495 14.1279 7.5518 13.6513 7.20028 13.2997C6.84875 12.9482 6.37213 12.7505 5.875 12.75H3.375C2.87787 12.7505 2.40125 12.9482 2.04972 13.2997C1.6982 13.6513 1.5005 14.1279 1.5 14.625V17.75H0.25V14.625C0.250992 13.7965 0.580551 13.0022 1.16639 12.4164C1.75222 11.8306 2.5465 11.501 3.375 11.5H5.875C6.7035 11.501 7.49778 11.8306 8.08361 12.4164C8.66945 13.0022 8.99901 13.7965 9 14.625V17.75ZM4.625 5.25002C4.99584 5.25002 5.35835 5.35999 5.66669 5.56602C5.97504 5.77204 6.21536 6.06488 6.35727 6.40749C6.49919 6.7501 6.53632 7.1271 6.46397 7.49082C6.39163 7.85453 6.21305 8.18862 5.95083 8.45085C5.6886 8.71307 5.35451 8.89165 4.99079 8.96399C4.62708 9.03634 4.25008 8.99921 3.90747 8.8573C3.56486 8.71538 3.27202 8.47506 3.06599 8.16672C2.85997 7.85838 2.75 7.49586 2.75 7.12502C2.75 6.62774 2.94754 6.15083 3.29917 5.7992C3.65081 5.44757 4.12772 5.25002 4.625 5.25002ZM4.625 4.00002C4.00693 4.00002 3.40275 4.1833 2.88884 4.52668C2.37494 4.87006 1.9744 5.35812 1.73788 5.92914C1.50135 6.50016 1.43947 7.12849 1.56005 7.73468C1.68062 8.34087 1.97825 8.89769 2.41529 9.33473C2.85233 9.77177 3.40915 10.0694 4.01534 10.19C4.62153 10.3106 5.24987 10.2487 5.82089 10.0121C6.3919 9.77562 6.87996 9.37508 7.22334 8.86118C7.56672 8.34728 7.75 7.74309 7.75 7.12502C7.75 6.71464 7.66917 6.30828 7.51212 5.92914C7.35508 5.54999 7.12489 5.2055 6.83471 4.91531C6.54453 4.62513 6.20003 4.39494 5.82089 4.2379C5.44174 4.08085 5.03538 4.00002 4.625 4.00002Z" fill="#404040"/>
</svg>
