<svg width="36" height="36" viewBox="0 0 36 36" fill="none" xmlns="http://www.w3.org/2000/svg">
<rect x="0.5" y="0.5" width="35" height="35" rx="17.5" stroke="#FF5C40"/>
<path d="M26.75 22.375L25.8663 23.2587L24.25 21.6425V26.75H23V21.6425L21.3837 23.2587L20.5 22.375L23.625 19.25L26.75 22.375Z" fill="#FF5C40"/>
<path d="M19.25 25.5002H13V10.5002H18V14.2502C18.001 14.5814 18.133 14.8988 18.3672 15.133C18.6014 15.3672 18.9188 15.4992 19.25 15.5002H23V17.3752H24.25V14.2502C24.2522 14.1681 24.2366 14.0864 24.2042 14.0109C24.1719 13.9354 24.1235 13.8678 24.0625 13.8127L19.6875 9.43771C19.6325 9.37668 19.5649 9.32831 19.4893 9.29594C19.4138 9.26356 19.3321 9.24797 19.25 9.25021H13C12.6688 9.2512 12.3514 9.38322 12.1172 9.61742C11.883 9.85163 11.751 10.169 11.75 10.5002V25.5002C11.751 25.8314 11.883 26.1488 12.1172 26.383C12.3514 26.6172 12.6688 26.7492 13 26.7502H19.25V25.5002ZM19.25 10.7502L22.75 14.2502H19.25V10.7502Z" fill="#FF5C40"/>
</svg>
