<svg width="20" height="20" viewBox="0 0 20 20" fill="none" xmlns="http://www.w3.org/2000/svg">
<g id="Icons/user-simulation">
<path id="Vector" d="M16.25 7.5L18.415 8.75L17.79 9.8325L15.625 8.5825L16.25 7.5ZM16.25 5H18.75V6.25H16.25V5ZM4.375 8.5825L2.21 9.8325L1.585 8.75L3.75 7.5L4.375 8.5825ZM16.25 18.75H15V15.625C14.999 14.7965 14.6694 14.0022 14.0836 13.4164C13.4978 12.8306 12.7035 12.501 11.875 12.5H8.125C7.2965 12.501 6.50222 12.8306 5.91639 13.4164C5.33055 14.0022 5.00099 14.7965 5 15.625V18.75H3.75V15.625C3.75132 14.4651 4.21268 13.3531 5.03287 12.5329C5.85305 11.7127 6.96508 11.2513 8.125 11.25H11.875C13.0349 11.2513 14.1469 11.7127 14.9671 12.5329C15.7873 13.3531 16.2487 14.4651 16.25 15.625V18.75ZM10 2.5C10.6181 2.5 11.2223 2.68328 11.7362 3.02666C12.2501 3.37004 12.6506 3.8581 12.8871 4.42911C13.1236 5.00013 13.1855 5.62847 13.065 6.23466C12.9444 6.84085 12.6467 7.39767 12.2097 7.83471C11.7727 8.27175 11.2158 8.56938 10.6097 8.68995C10.0035 8.81053 9.37513 8.74865 8.80411 8.51212C8.2331 8.2756 7.74504 7.87506 7.40166 7.36116C7.05828 6.84725 6.875 6.24307 6.875 5.625C6.875 4.7962 7.20424 4.00134 7.79029 3.41529C8.37634 2.82924 9.1712 2.5 10 2.5ZM10 1.25C9.13471 1.25 8.28885 1.50659 7.56938 1.98732C6.84992 2.46805 6.28916 3.15133 5.95803 3.95076C5.62689 4.75019 5.54025 5.62985 5.70906 6.47852C5.87787 7.32719 6.29455 8.10674 6.90641 8.71859C7.51826 9.33045 8.29781 9.74712 9.14648 9.91594C9.99515 10.0847 10.8748 9.99811 11.6742 9.66697C12.4737 9.33584 13.1569 8.77508 13.6377 8.05562C14.1184 7.33615 14.375 6.49029 14.375 5.625C14.375 4.46468 13.9141 3.35188 13.0936 2.53141C12.2731 1.71094 11.1603 1.25 10 1.25ZM15.625 2.6675L17.79 1.4175L18.415 2.5L16.25 3.75L15.625 2.6675ZM1.25 5H3.75V6.25H1.25V5ZM3.75 3.75L1.585 2.5L2.21 1.4175L4.375 2.6675L3.75 3.75Z" fill="#E70BD1"/>
</g>
</svg>
