<svg width="20" height="20" viewBox="0 0 20 20" fill="none" xmlns="http://www.w3.org/2000/svg">
<path d="M18.75 6.25V5H17.4369C17.3563 4.60876 17.2009 4.23676 16.9794 3.90438L17.9106 2.97312L17.0269 2.08937L16.0956 3.02063C15.7632 2.79907 15.3912 2.64373 15 2.56312V1.25H13.75V2.56312C13.3588 2.64373 12.9868 2.79907 12.6544 3.02063L11.7231 2.08937L10.8394 2.97312L11.7706 3.90438C11.5491 4.23676 11.3937 4.60876 11.3131 5H10V6.25H11.3131C11.3937 6.64124 11.5491 7.01325 11.7706 7.34562L10.8394 8.27688L11.7231 9.16062L12.6544 8.22937C12.9868 8.45093 13.3588 8.60627 13.75 8.68688V10H15V8.68688C15.3912 8.60627 15.7632 8.45093 16.0956 8.22937L17.0269 9.16062L17.9106 8.27688L16.9794 7.34562C17.2009 7.01325 17.3563 6.64124 17.4369 6.25H18.75ZM14.375 7.5C14.0042 7.5 13.6416 7.39003 13.3333 7.18401C13.025 6.97798 12.7846 6.68514 12.6427 6.34253C12.5008 5.99992 12.4637 5.62292 12.536 5.25921C12.6084 4.89549 12.787 4.5614 13.0492 4.29917C13.3114 4.03695 13.6455 3.85838 14.0092 3.78603C14.3729 3.71368 14.7499 3.75081 15.0925 3.89273C15.4351 4.03464 15.728 4.27496 15.934 4.58331C16.14 4.89165 16.25 5.25416 16.25 5.625C16.2495 6.12213 16.0518 6.59875 15.7003 6.95028C15.3488 7.3018 14.8721 7.4995 14.375 7.5ZM10 18.75H8.75V15.625C8.7495 15.1279 8.5518 14.6512 8.20028 14.2997C7.84875 13.9482 7.37213 13.7505 6.875 13.75H4.375C3.87787 13.7505 3.40125 13.9482 3.04972 14.2997C2.6982 14.6512 2.5005 15.1279 2.5 15.625V18.75H1.25V15.625C1.25099 14.7965 1.58055 14.0022 2.16639 13.4164C2.75222 12.8306 3.5465 12.501 4.375 12.5H6.875C7.7035 12.501 8.49778 12.8306 9.08361 13.4164C9.66945 14.0022 9.99901 14.7965 10 15.625V18.75ZM5.625 6.25C5.99584 6.25 6.35835 6.35997 6.66669 6.56599C6.97504 6.77202 7.21536 7.06486 7.35727 7.40747C7.49919 7.75008 7.53632 8.12708 7.46397 8.49079C7.39163 8.85451 7.21305 9.1886 6.95083 9.45083C6.6886 9.71305 6.35451 9.89163 5.99079 9.96397C5.62708 10.0363 5.25008 9.99919 4.90747 9.85727C4.56486 9.71536 4.27202 9.47504 4.06599 9.16669C3.85997 8.85835 3.75 8.49584 3.75 8.125C3.75 7.62772 3.94754 7.15081 4.29917 6.79917C4.65081 6.44754 5.12772 6.25 5.625 6.25ZM5.625 5C5.00693 5 4.40275 5.18328 3.88884 5.52666C3.37494 5.87004 2.9744 6.3581 2.73788 6.92911C2.50135 7.50013 2.43947 8.12847 2.56005 8.73466C2.68062 9.34085 2.97825 9.89767 3.41529 10.3347C3.85233 10.7717 4.40915 11.0694 5.01534 11.19C5.62153 11.3105 6.24987 11.2486 6.82089 11.0121C7.3919 10.7756 7.87996 10.3751 8.22334 9.86116C8.56672 9.34725 8.75 8.74307 8.75 8.125C8.75 7.71462 8.66917 7.30826 8.51212 6.92911C8.35508 6.54997 8.12489 6.20547 7.83471 5.91529C7.54453 5.62511 7.20003 5.39492 6.82089 5.23788C6.44174 5.08083 6.03538 5 5.625 5Z" fill="#FF5C40"/>
</svg>
