<svg width="12" height="14" viewBox="0 0 12 14" fill="none" xmlns="http://www.w3.org/2000/svg">
<mask id="path-1-inside-1_8897_12506" fill="white">
<path d="M11 11V13H1V11H0V13C0 13.2652 0.105357 13.5196 0.292893 13.7071C0.48043 13.8946 0.734784 14 1 14H11C11.2652 14 11.5196 13.8946 11.7071 13.7071C11.8946 13.5196 12 13.2652 12 13V11H11ZM11 6L10.295 5.295L6.5 9.085V0H5.5V9.085L1.705 5.295L1 6L6 11L11 6Z"/>
</mask>
<path d="M11 11V13H1V11H0V13C0 13.2652 0.105357 13.5196 0.292893 13.7071C0.48043 13.8946 0.734784 14 1 14H11C11.2652 14 11.5196 13.8946 11.7071 13.7071C11.8946 13.5196 12 13.2652 12 13V11H11ZM11 6L10.295 5.295L6.5 9.085V0H5.5V9.085L1.705 5.295L1 6L6 11L11 6Z" fill="#404040"/>
<path d="M11 11V9.5H9.5V11H11ZM11 13V14.5H12.5V13H11ZM1 13H-0.5V14.5H1V13ZM1 11H2.5V9.5H1V11ZM0 11V9.5H-1.5V11H0ZM0 13H-1.5H0ZM12 11H13.5V9.5H12V11ZM11 6L12.0607 7.06066L13.1213 6L12.0607 4.93934L11 6ZM10.295 5.295L11.3557 4.23434L10.2957 3.17438L9.23504 4.23364L10.295 5.295ZM6.5 9.085H5V12.7029L7.55996 10.1464L6.5 9.085ZM6.5 0H8V-1.5H6.5V0ZM5.5 0V-1.5H4V0H5.5ZM5.5 9.085L4.44004 10.1464L7 12.7029V9.085H5.5ZM1.705 5.295L2.76496 4.23364L1.7043 3.17438L0.64434 4.23434L1.705 5.295ZM1 6L-0.0606602 4.93934L-1.12132 6L-0.0606602 7.06066L1 6ZM6 11L4.93934 12.0607L6 13.1213L7.06066 12.0607L6 11ZM9.5 11V13H12.5V11H9.5ZM11 11.5H1V14.5H11V11.5ZM2.5 13V11H-0.5V13H2.5ZM1 9.5H0V12.5H1V9.5ZM-1.5 11V13H1.5V11H-1.5ZM-1.5 13C-1.5 13.663 -1.23661 14.2989 -0.767767 14.7678L1.35355 12.6464C1.44732 12.7402 1.5 12.8674 1.5 13H-1.5ZM-0.767767 14.7678C-0.298927 15.2366 0.336958 15.5 1 15.5V12.5C1.13261 12.5 1.25979 12.5527 1.35355 12.6464L-0.767767 14.7678ZM1 15.5H11V12.5H1V15.5ZM11 15.5C11.663 15.5 12.2989 15.2366 12.7678 14.7678L10.6464 12.6464C10.7402 12.5527 10.8674 12.5 11 12.5V15.5ZM12.7678 14.7678C13.2366 14.2989 13.5 13.663 13.5 13H10.5C10.5 12.8674 10.5527 12.7402 10.6464 12.6464L12.7678 14.7678ZM13.5 13V11H10.5V13H13.5ZM12 9.5H11V12.5H12V9.5ZM12.0607 4.93934L11.3557 4.23434L9.23434 6.35566L9.93934 7.06066L12.0607 4.93934ZM9.23504 4.23364L5.44004 8.02364L7.55996 10.1464L11.355 6.35636L9.23504 4.23364ZM8 9.085V0H5V9.085H8ZM6.5 -1.5H5.5V1.5H6.5V-1.5ZM4 0V9.085H7V0H4ZM6.55996 8.02364L2.76496 4.23364L0.645039 6.35636L4.44004 10.1464L6.55996 8.02364ZM0.64434 4.23434L-0.0606602 4.93934L2.06066 7.06066L2.76566 6.35566L0.64434 4.23434ZM-0.0606602 7.06066L4.93934 12.0607L7.06066 9.93934L2.06066 4.93934L-0.0606602 7.06066ZM7.06066 12.0607L12.0607 7.06066L9.93934 4.93934L4.93934 9.93934L7.06066 12.0607Z" fill="#505050" mask="url(#path-1-inside-1_8897_12506)"/>
</svg>
