<svg width="20" height="20" viewBox="0 0 20 20" fill="none" xmlns="http://www.w3.org/2000/svg">
<g id="Icons/voice-activate">
<path id="Vector" d="M16.25 18.75H15V16.875H12.5C11.6715 16.8742 10.8771 16.5447 10.2912 15.9588C9.70536 15.3729 9.37586 14.5785 9.37503 13.75V12.95L7.92753 12.4681C7.83877 12.4385 7.7578 12.3893 7.69058 12.3242C7.62336 12.2592 7.57162 12.1798 7.53916 12.092C7.50671 12.0043 7.49438 11.9103 7.50307 11.8172C7.51177 11.724 7.54127 11.634 7.5894 11.5538L9.37503 8.57687V6.875C9.37668 5.38367 9.96985 3.95389 11.0244 2.89935C12.0789 1.84482 13.5087 1.25165 15 1.25H18.125V2.5H15C13.8401 2.50132 12.7281 2.96268 11.9079 3.78287C11.0877 4.60305 10.6264 5.71508 10.625 6.875V8.75C10.6249 8.8632 10.594 8.97424 10.5357 9.07125L9.06253 11.5287L10.1982 11.9069C10.3225 11.9485 10.4307 12.0281 10.5073 12.1346C10.5839 12.241 10.6251 12.3688 10.625 12.5V13.75C10.6255 14.2471 10.8232 14.7238 11.1748 15.0753C11.5263 15.4268 12.0029 15.6245 12.5 15.625H15.625C15.7908 15.625 15.9498 15.6908 16.067 15.8081C16.1842 15.9253 16.25 16.0842 16.25 16.25V18.75Z" fill="#F56D0B"/>
<path id="Vector_2" d="M11.875 7.5H14.375V8.75H11.875V7.5ZM5.8325 15.7606C5.3738 15.3503 5.00684 14.8477 4.75561 14.2859C4.50437 13.724 4.37451 13.1155 4.37451 12.5C4.37451 11.8845 4.50437 11.276 4.75561 10.7141C5.00684 10.1523 5.3738 9.64974 5.8325 9.23937L6.66625 10.1706C6.33859 10.4637 6.07647 10.8227 5.89701 11.224C5.71754 11.6254 5.62478 12.0601 5.62478 12.4997C5.62478 12.9393 5.71754 13.374 5.89701 13.7753C6.07647 14.1767 6.33859 14.5356 6.66625 14.8287L5.8325 15.7606Z" fill="#F56D0B"/>
<path id="Vector_3" d="M4.00002 18C3.1464 17.3595 2.45359 16.529 1.97643 15.5744C1.49927 14.6198 1.25085 13.5672 1.25085 12.5C1.25085 11.4328 1.49927 10.3802 1.97643 9.42559C2.45359 8.47098 3.1464 7.64054 4.00002 7L4.75002 8C4.0513 8.52394 3.48417 9.20338 3.09357 9.9845C2.70296 10.7656 2.4996 11.627 2.4996 12.5003C2.4996 13.3737 2.70296 14.235 3.09357 15.0161C3.48417 15.7972 4.0513 16.4767 4.75002 17.0006L4.00002 18Z" fill="#F56D0B"/>
</g>
</svg>
