<svg width="17" height="16" viewBox="0 0 17 16" fill="none" xmlns="http://www.w3.org/2000/svg">
<g id="Icons/wand">
<path id="Vector" d="M5.50004 3.73398L3.83337 4.66732L4.76671 3.00065L3.83337 1.33398L5.50004 2.26732L7.16671 1.33398L6.23337 3.00065L7.16671 4.66732L5.50004 3.73398ZM13.5 10.2673L15.1667 9.33398L14.2334 11.0007L15.1667 12.6673L13.5 11.734L11.8334 12.6673L12.7667 11.0007L11.8334 9.33398L13.5 10.2673ZM15.1667 1.33398L14.2334 3.00065L15.1667 4.66732L13.5 3.73398L11.8334 4.66732L12.7667 3.00065L11.8334 1.33398L13.5 2.26732L15.1667 1.33398ZM9.39337 8.52065L11.02 6.89398L9.60671 5.48065L7.98004 7.10732L9.39337 8.52065ZM10.08 4.86065L11.64 6.42065C11.9 6.66732 11.9 7.10065 11.64 7.36065L3.86004 15.1407C3.60004 15.4007 3.16671 15.4007 2.92004 15.1407L1.36004 13.5807C1.10004 13.334 1.10004 12.9007 1.36004 12.6407L9.14004 4.86065C9.40004 4.60065 9.83337 4.60065 10.08 4.86065Z" fill="white"/>
</g>
</svg>
